<?xml version="1.0" encoding="UTF-8"?>
<svg width="9px" height="12px" viewBox="0 0 9 12" version="1.1" xmlns="http://www.w3.org/2000/svg" xmlns:xlink="http://www.w3.org/1999/xlink">
    <!-- Generator: sketchtool 51 (57462) - http://www.bohemiancoding.com/sketch -->
    <title>F876306E-1A11-42DC-8E76-A537E1C9FB7A</title>
    <desc>Created with sketchtool.</desc>
    <defs></defs>
    <g id="Page-1" stroke="none" stroke-width="1" fill="none" fill-rule="evenodd">
        <g id="Франшиза|Главная" transform="translate(-185.000000, -3051.000000)">
            <rect fill="#FFFFFF" x="0" y="0" width="1440" height="5659"></rect>
            <path d="M189.5,3057 C188.672,3057 188,3056.3286 188,3055.5 C188,3054.6714 188.672,3054 189.5,3054 C190.3286,3054 191,3054.6714 191,3055.5 C191,3056.3286 190.3286,3057 189.5,3057 M189.5,3051 C187.014714,3051 185,3052.8804 185,3055.2 C185,3058.2 189.5,3063 189.5,3063 C189.5,3063 194,3058.2 194,3055.2 C194,3052.8804 191.985286,3051 189.5,3051" id="Fill-1-Copy-3" fill="#3742FA"></path>
        </g>
    </g>
</svg>