<?xml version="1.0" encoding="UTF-8"?>
<svg width="9px" height="12px" viewBox="0 0 9 12" version="1.1" xmlns="http://www.w3.org/2000/svg" xmlns:xlink="http://www.w3.org/1999/xlink">
    <!-- Generator: sketchtool 51 (57462) - http://www.bohemiancoding.com/sketch -->
    <title>EC9F53E3-D2AB-4401-A933-4031A49D2284</title>
    <desc>Created with sketchtool.</desc>
    <defs></defs>
    <g id="Page-1" stroke="none" stroke-width="1" fill="none" fill-rule="evenodd">
        <g id="Франшиза|Главная" transform="translate(-185.000000, -3025.000000)">
            <rect fill="#FFFFFF" x="0" y="0" width="1440" height="5659"></rect>
            <path d="M189.5,3031 C188.672,3031 188,3030.3286 188,3029.5 C188,3028.6714 188.672,3028 189.5,3028 C190.3286,3028 191,3028.6714 191,3029.5 C191,3030.3286 190.3286,3031 189.5,3031 M189.5,3025 C187.014714,3025 185,3026.8804 185,3029.2 C185,3032.2 189.5,3037 189.5,3037 C189.5,3037 194,3032.2 194,3029.2 C194,3026.8804 191.985286,3025 189.5,3025" id="Fill-1" fill="#3742FA"></path>
        </g>
    </g>
</svg>