<?xml version="1.0" encoding="UTF-8"?>
<svg width="35px" height="35px" viewBox="0 0 35 35" version="1.1" xmlns="http://www.w3.org/2000/svg" xmlns:xlink="http://www.w3.org/1999/xlink">
    <!-- Generator: sketchtool 51 (57462) - http://www.bohemiancoding.com/sketch -->
    <title>44459269-FB21-414A-A3CA-E7E0ABE15A97</title>
    <desc>Created with sketchtool.</desc>
    <defs></defs>
    <g id="Page-1" stroke="none" stroke-width="1" fill="none" fill-rule="evenodd">
        <g id="Франшиза|Главная" transform="translate(-165.000000, -539.000000)">
            <rect fill="#FFFFFF" x="0" y="0" width="1440" height="5659"></rect>
            <g id="до-300к" transform="translate(165.000000, 539.000000)" fill="#006DF0" fill-rule="nonzero">
                <path d="M33.8420363,20.5005664 L33.301371,20.5005664 L33.301371,15.7827441 C33.301371,15.0358496 32.9176411,14.374541 32.3316028,13.9727246 L32.3316028,13.3303516 C32.3316028,12.3985449 31.5491129,11.6405078 30.587248,11.6405078 L30.1835484,11.6405078 L31.7281351,9.44480469 C32.2458669,8.70884766 32.0489919,7.70198242 31.2892944,7.20036133 L20.8082762,0.281025391 C20.4402823,0.0380078125 19.9967137,-0.0516796875 19.5589315,0.0287792969 C19.1213609,0.109101563 18.7422177,0.349658203 18.4914315,0.706220703 L9.44498992,13.5661914 L6.92760081,13.5661914 L7.5349496,7.61003906 C7.54179435,7.54291016 7.58681452,7.48473633 7.64961694,7.46183594 C8.43210685,7.17602539 9.11023185,6.64227539 9.55902218,5.95895508 C9.594375,5.90515625 9.66105847,5.87439453 9.73007056,5.88116211 L13.6785081,6.25905273 C13.9616129,6.28564453 14.2134577,6.08589844 14.2414012,5.81177734 C14.2693448,5.53765625 14.0626613,5.29354492 13.7796976,5.26647461 L9.83126008,4.88858398 C9.37294355,4.84510742 8.93586694,5.04970703 8.69030242,5.42349609 C8.36034274,5.9259375 7.86173387,6.31832031 7.28642137,6.52845703 C6.85336694,6.68664063 6.55600806,7.0634375 6.51028226,7.51194336 L5.89298387,13.566123 L5.23652218,13.566123 L6.19704637,4.14592773 C6.23162298,3.80686523 6.5440121,3.55776367 6.89443548,3.59173828 L14.8734476,4.3553125 C15.1564113,4.38176758 15.4083972,4.1821582 15.4363407,3.90803711 C15.4642843,3.63391602 15.2576008,3.38980469 14.9746371,3.36273438 L6.995625,2.59916016 C6.08082661,2.51172852 5.26277218,3.16148438 5.17237903,4.04783203 L4.39814516,11.6405078 L3.07964718,11.6405078 C2.11785282,11.6405078 1.33529234,12.3985449 1.33529234,13.3303516 L1.33529234,13.7685352 C0.548427419,14.1194922 0.000564516129,14.8900391 0.000564516129,15.7827441 L0.000564516129,32.7833789 C0.000564516129,34.0056445 1.02699597,35 2.28876008,35 L31.013246,35 C32.2749395,35 33.301371,34.0056445 33.301371,32.7833789 L33.301371,28.065625 L33.8420363,28.065625 C34.4802218,28.065625 34.9993649,27.5627051 34.9993649,26.9445313 L34.9993649,21.6217285 C34.9994355,21.0034863 34.4802218,20.5005664 33.8420363,20.5005664 Z M30.587248,12.6380078 C30.9814214,12.6379395 31.301996,12.9485645 31.301996,13.3304199 L31.301996,13.5845117 C31.2072984,13.5728906 31.111119,13.5662598 31.013246,13.5662598 L28.8289214,13.5662598 L29.4818548,12.6380078 L30.587248,12.6380078 Z M19.3422278,1.26786133 C19.4381956,1.13148438 19.5832056,1.03947266 19.7505847,1.00871094 C19.7905948,1.00139648 19.830746,0.997705078 19.8706149,0.997705078 C19.9974194,0.997705078 20.1213306,1.03448242 20.2284476,1.10516602 L30.7094657,8.02450195 C31.0000504,8.21638672 31.0754133,8.60152344 30.8774093,8.88302734 L27.5830343,13.5660547 L26.7924294,13.5660547 L28.4075806,11.2700684 C28.6695161,10.8977148 28.6911089,10.4238477 28.46375,10.0333105 C28.1615927,9.51446289 28.0390927,8.90353516 28.1188306,8.31297852 C28.1781048,7.87363281 27.9785484,7.44474609 27.5980645,7.19359375 L22.1647379,3.60664063 C21.7841835,3.35541992 21.299123,3.33238281 20.8987399,3.54655273 C20.3606855,3.8343457 19.7289214,3.94734375 19.1199496,3.86476563 C18.6683367,3.80337891 18.2103024,4.0009375 17.952248,4.36768555 L11.4815524,13.566123 L10.6909476,13.566123 L19.3422278,1.26786133 Z M19.5689516,9.73697266 C17.3270464,9.73697266 15.4867238,11.4304395 15.3367742,13.566123 L12.727369,13.566123 L18.8029032,4.92939453 C18.8029738,4.92939453 18.8029738,4.92939453 18.8029738,4.92939453 C18.8374798,4.88024414 18.8947077,4.85098633 18.9534879,4.85098633 C18.9613206,4.85098633 18.9691532,4.8515332 18.9769859,4.85255859 C19.8052722,4.96480469 20.6643952,4.81126953 21.3962903,4.41977539 C21.453871,4.38887695 21.5278226,4.39332031 21.5848387,4.43091797 L27.0182359,8.01793945 C27.0751109,8.05553711 27.106371,8.12061523 27.0979032,8.1837793 C26.9894456,8.98693359 27.156119,9.81777344 27.5670161,10.5233789 C27.5999698,10.5800488 27.5959476,10.6526465 27.5568548,10.7083594 L25.5466129,13.5660547 L23.8013407,13.5660547 C23.65125,11.4304395 21.810998,9.73697266 19.5689516,9.73697266 Z M22.7689113,13.5661914 L16.3690625,13.5661914 C16.5165423,11.9810059 17.8949496,10.7344727 19.5689516,10.7344727 C21.2430242,10.7344043 22.621502,11.9810059 22.7689113,13.5661914 Z M2.36489919,13.3303516 C2.36489919,12.9484961 2.68547379,12.6378711 3.07964718,12.6378711 L4.29646169,12.6378711 L4.20183468,13.566123 L2.36489919,13.566123 L2.36489919,13.3303516 Z M1.03017137,15.7827441 C1.03017137,15.110498 1.59475806,14.5635547 2.28876008,14.5635547 L31.013246,14.5635547 C31.707248,14.5635547 32.2717641,15.110498 32.2717641,15.7827441 L32.2717641,17.1666113 L1.03017137,17.1666113 L1.03017137,15.7827441 Z M32.2717641,32.7833789 C32.2717641,33.455625 31.707248,34.0025684 31.013246,34.0025684 L2.28876008,34.0025684 C1.59475806,34.0025684 1.03017137,33.455625 1.03017137,32.7833789 L1.03017137,31.3995117 L3.80632056,31.3995117 C4.09069556,31.3995117 4.32108871,31.17625 4.32108871,30.9008301 C4.32108871,30.6254102 4.090625,30.4021484 3.80632056,30.4021484 L1.03017137,30.4021484 L1.03017137,18.164043 L32.2717641,18.164043 L32.2717641,20.5005664 L27.3769859,20.5005664 L27.3769153,20.5005664 C25.8346573,20.5005664 24.4987298,21.3714648 23.8647077,22.6320801 C23.8625907,22.6363184 23.8601915,22.6404199 23.858004,22.6446582 C23.8526411,22.6553906 23.8479839,22.6665332 23.8427621,22.677334 C23.7672581,22.8327148 23.7016331,22.9935645 23.6482157,23.159541 C23.6480746,23.1600195 23.6479335,23.1604297 23.6477923,23.1609082 C23.5338306,23.515625 23.472369,23.8924902 23.472369,24.2830957 C23.472369,26.3688086 25.2239214,28.065625 27.3768448,28.065625 L27.3769153,28.065625 L32.2716935,28.065625 L32.2716935,30.4021484 L7.10267137,30.4021484 C6.81829637,30.4021484 6.58790323,30.6254102 6.58790323,30.9008301 C6.58790323,31.17625 6.81836694,31.3995117 7.10267137,31.3995117 L32.2717641,31.3995117 L32.2717641,32.7833789 Z M33.9698286,26.9444629 C33.9698286,27.0126855 33.9125302,27.0681934 33.8420363,27.0681934 L27.3770565,27.0681934 C26.2871875,27.0681934 25.3369657,26.4776367 24.8495766,25.609541 C24.8274194,25.5700977 24.80625,25.5300391 24.785998,25.489502 C24.7455645,25.4083594 24.7090827,25.3250293 24.6768347,25.2397168 C24.5637903,24.9412598 24.5021169,24.6190137 24.5021169,24.2830957 C24.5021169,23.9471777 24.5638609,23.6249316 24.6768347,23.3264746 C24.7091532,23.2412305 24.7456351,23.1579004 24.785998,23.0766895 C24.80625,23.0361523 24.8274194,22.9960938 24.8495766,22.9566504 C25.3369657,22.0885547 26.2871875,21.497998 27.3770565,21.497998 L33.8420363,21.497998 C33.9124597,21.497998 33.9698286,21.5535059 33.9698286,21.6217285 L33.9698286,26.9444629 Z" id="Shape"></path>
                <path d="M27.4976512,22.2596582 C26.3458972,22.2596582 25.4089415,23.1674023 25.4089415,24.2830957 C25.4089415,25.3987891 26.3458972,26.3064648 27.4976512,26.3064648 C28.6494052,26.3064648 29.5863609,25.3987891 29.5863609,24.2830957 C29.5863609,23.1674023 28.6494052,22.2596582 27.4976512,22.2596582 Z M27.4976512,25.3090332 C26.9136593,25.3090332 26.4385484,24.8487695 26.4385484,24.2830957 C26.4385484,23.7174219 26.9136593,23.2570898 27.4976512,23.2570898 C28.0816431,23.2570898 28.556754,23.7173535 28.556754,24.2830957 C28.556754,24.8488379 28.0816431,25.3090332 27.4976512,25.3090332 Z" id="Shape"></path>
            </g>
        </g>
    </g>
</svg>