<?xml version="1.0" encoding="UTF-8"?>
<svg width="161px" height="61px" viewBox="0 0 161 61" version="1.1" xmlns="http://www.w3.org/2000/svg" xmlns:xlink="http://www.w3.org/1999/xlink">
    <!-- Generator: sketchtool 51 (57462) - http://www.bohemiancoding.com/sketch -->
    <title>01DBC71E-5262-4174-B07B-7E28AEC602EF</title>
    <desc>Created with sketchtool.</desc>
    <defs></defs>
    <g id="Page-1" stroke="none" stroke-width="1" fill="none" fill-rule="evenodd">
        <g id="Франшиза|Главная" transform="translate(-165.000000, -31.000000)">
            <rect fill="#FFFFFF" x="0" y="0" width="1440" height="5659"></rect>
            <g id="Шапка">
                <g id="лого" transform="translate(165.000000, 31.000000)">
                    <path d="M3.2,51.6532258 L4.8,51.6532258 L8,59.8193548 L6.3,59.8193548 L5.7,58.1467742 L2.3,58.1467742 L1.6,59.8193548 L0,59.8193548 L3.2,51.6532258 Z M4,53.8177419 L2.9,56.6709677 L5.1,56.6709677 L4,53.8177419 Z M9.2,51.6532258 L13.3,51.6532258 L13.3,53.1290323 L10.8,53.1290323 L10.8,59.7209677 L9.2,59.7209677 L9.2,51.6532258 Z M14.5,51.6532258 L19,51.6532258 L19,53.1290323 L16.1,53.1290323 L16.1,54.6048387 L19,54.6048387 L19,56.0806452 L16.1,56.0806452 L16.1,58.2451613 L19,58.2451613 L19,59.7209677 L14.5,59.7209677 L14.5,51.6532258 Z M20.5,51.6532258 L22.1,51.6532258 L22.1,54.7032258 L24.9,54.7032258 L24.9,51.6532258 L26.5,51.6532258 L26.5,59.8193548 L24.9,59.8193548 L24.9,56.2774194 L22.1,56.2774194 L22.1,59.8193548 L20.5,59.8193548 L20.5,51.6532258 Z M27.5,51.6532258 L32.1,51.6532258 L32.1,53.2274194 L30.6,53.2274194 L30.6,59.8193548 L29,59.8193548 L29,53.2274194 L27.5,53.2274194 L27.5,51.6532258 Z M40.7,53.1290323 L39.6,54.1129032 C38.9,53.3258065 38,52.9322581 37.1,52.9322581 C36.3,52.9322581 35.6,53.2274194 35.1,53.7193548 C34.6,54.2112903 34.3,54.9 34.3,55.6870968 C34.3,56.2774194 34.4,56.6709677 34.7,57.1629032 C34.9,57.5564516 35.3,57.95 35.7,58.1467742 C36.1,58.3435484 36.6,58.5403226 37.2,58.5403226 C37.7,58.5403226 38.1,58.4419355 38.5,58.2451613 C38.9,58.0483871 39.3,57.7532258 39.7,57.3596774 L40.8,58.4419355 C40.2,59.0322581 39.6,59.4258065 39.1,59.6225806 C38.6,59.8193548 37.9,59.9177419 37.2,59.9177419 C35.9,59.9177419 34.9,59.5241935 34,58.7370968 C33.2,57.95 32.8,56.8677419 32.8,55.6870968 C32.8,54.9 33,54.1129032 33.4,53.5225806 C33.8,52.9322581 34.3,52.3419355 35,52.0467742 C35.7,51.6532258 36.4,51.4564516 37.2,51.4564516 C37.9,51.4564516 38.5,51.5548387 39.2,51.85 C39.7,52.1451613 40.3,52.5387097 40.7,53.1290323 Z M41.3,51.6532258 L45.9,51.6532258 L45.9,53.2274194 L44.4,53.2274194 L44.4,59.8193548 L42.8,59.8193548 L42.8,53.2274194 L41.3,53.2274194 L41.3,51.6532258 Z M46.9,59.8193548 L46.9,51.6532258 L48.2,51.6532258 C49,51.6532258 49.5,51.6532258 49.9,51.7516129 C50.4,51.85 50.8,52.1451613 51.1,52.4403226 C51.4,52.833871 51.5,53.2274194 51.5,53.7193548 C51.5,54.0145161 51.4,54.3096774 51.3,54.6048387 C51.2,54.9 51,55.0967742 50.7,55.2935484 C51.2,55.4903226 51.6,55.7854839 51.8,56.1790323 C52,56.5725806 52.1,56.966129 52.1,57.4580645 C52.1,57.95 52,58.3435484 51.7,58.7370968 C51.5,59.1306452 51.1,59.4258065 50.8,59.6225806 C50.4,59.8193548 49.9,59.9177419 49.2,59.9177419 L46.9,59.9177419 L46.9,59.8193548 Z M48.5,53.1290323 L48.5,54.9 L48.9,54.9 C49.3,54.9 49.6,54.8016129 49.8,54.7032258 C50,54.5064516 50.1,54.3096774 50.1,54.0145161 C50.1,53.7193548 50,53.5225806 49.8,53.4241935 C49.6,53.2274194 49.3,53.2274194 49,53.2274194 L48.5,53.2274194 L48.5,53.1290323 Z M48.5,56.2774194 L48.5,58.3435484 L48.9,58.3435484 C49.6,58.3435484 50,58.2451613 50.2,58.1467742 C50.4,57.95 50.5,57.7532258 50.5,57.4580645 C50.5,57.0645161 50.4,56.8677419 50.1,56.6709677 C49.8,56.4741935 49.4,56.3758065 48.8,56.3758065 L48.5,56.3758065 L48.5,56.2774194 Z M57.5,51.4564516 C58.7,51.4564516 59.7,51.85 60.5,52.7354839 C61.3,53.5225806 61.8,54.6048387 61.8,55.7854839 C61.8,56.966129 61.4,57.95 60.6,58.8354839 C59.8,59.6225806 58.8,60.1145161 57.6,60.1145161 C56.4,60.1145161 55.3,59.7209677 54.5,58.8354839 C53.7,57.95 53.3,56.966129 53.3,55.7854839 C53.3,54.9983871 53.5,54.3096774 53.9,53.6209677 C54.3,52.9322581 54.8,52.4403226 55.5,52.0467742 C56,51.6532258 56.7,51.4564516 57.5,51.4564516 Z M57.5,52.9322581 C56.7,52.9322581 56.1,53.2274194 55.6,53.7193548 C55.1,54.2112903 54.8,54.9 54.8,55.6870968 C54.8,56.5725806 55.1,57.2612903 55.8,57.8516129 C56.3,58.2451613 56.9,58.4419355 57.5,58.4419355 C58.2,58.4419355 58.9,58.1467742 59.4,57.6548387 C59.9,57.1629032 60.2,56.4741935 60.2,55.6870968 C60.2,54.9 59.9,54.2112903 59.4,53.7193548 C58.8,53.2274194 58.2,52.9322581 57.5,52.9322581 Z M105.8,51.6532258 L107.5,51.6532258 C108.4,51.6532258 109.1,51.7516129 109.5,51.9483871 C109.9,52.1451613 110.2,52.3419355 110.4,52.7354839 C110.6,53.1290323 110.7,53.5225806 110.7,54.0145161 C110.7,54.6048387 110.5,55.0967742 110.2,55.3919355 C109.9,55.7854839 109.5,56.0806452 109,56.1790323 C108.7,56.2774194 108.1,56.2774194 107.3,56.2774194 L107.3,59.7209677 L105.7,59.7209677 L105.7,51.6532258 L105.8,51.6532258 Z M107.3,54.8016129 L107.8,54.8016129 C108.2,54.8016129 108.5,54.8016129 108.6,54.7032258 C108.8,54.6048387 108.9,54.5064516 109,54.4080645 C109.1,54.3096774 109.1,54.1129032 109.1,53.916129 C109.1,53.6209677 109,53.3258065 108.7,53.2274194 C108.5,53.1290323 108.2,53.0306452 107.7,53.0306452 L107.3,53.0306452 L107.3,54.8016129 Z M112.2,51.6532258 L116.7,51.6532258 L116.7,53.1290323 L113.8,53.1290323 L113.8,54.6048387 L116.7,54.6048387 L116.7,56.0806452 L113.8,56.0806452 L113.8,58.2451613 L116.7,58.2451613 L116.7,59.7209677 L112.2,59.7209677 L112.2,51.6532258 Z M118.2,51.6532258 L119.8,51.6532258 L119.8,54.5064516 L122,51.6532258 L123.9,51.6532258 L121,55.2935484 L124.2,59.8193548 L122.3,59.8193548 L119.8,56.1790323 L119.8,59.8193548 L118.2,59.8193548 L118.2,51.6532258 Z M130.7,59.8193548 L128.4,53.8177419 L126.1,59.8193548 L124.4,59.8193548 L127.6,51.6532258 L129.2,51.6532258 L132.4,59.8193548 L130.7,59.8193548 Z M135.8,51.6532258 L137.4,51.6532258 L140.6,59.8193548 L139,59.8193548 L138.4,58.1467742 L135,58.1467742 L134.3,59.8193548 L132.7,59.8193548 L135.8,51.6532258 Z M136.6,53.8177419 L135.5,56.6709677 L137.7,56.6709677 L136.6,53.8177419 Z M142.6,51.6532258 L144.1,51.6532258 L146,57.3596774 L147.9,51.6532258 L149.4,51.6532258 L150.8,59.8193548 L149.3,59.8193548 L148.4,54.7032258 L146.7,59.8193548 L145.3,59.8193548 L143.6,54.7032258 L142.7,59.8193548 L141.2,59.8193548 L142.6,51.6532258 Z M158.4,51.6532258 L160,51.6532258 L160,59.8193548 L158.4,59.8193548 L158.4,51.6532258 Z M152.1,59.8193548 L152.1,51.6532258 L153.7,51.6532258 L153.7,54.7032258 L154,54.7032258 C154.7,54.7032258 155.2,54.8016129 155.6,54.9 C156,55.0967742 156.4,55.2935484 156.7,55.7854839 C157,56.1790323 157.2,56.6709677 157.2,57.2612903 C157.2,57.8516129 157.1,58.2451613 156.8,58.6387097 C156.5,59.0322581 156.2,59.3274194 155.9,59.4258065 C155.5,59.6225806 155,59.6225806 154.4,59.6225806 L152.1,59.6225806 L152.1,59.8193548 Z M153.7,56.0806452 L153.7,58.3435484 L154.1,58.3435484 C154.8,58.3435484 155.2,58.2451613 155.4,58.1467742 C155.6,57.95 155.7,57.7532258 155.7,57.3596774 C155.7,56.5725806 155.1,56.1790323 154,56.1790323 L153.7,56.1790323 L153.7,56.0806452 Z M66.3,51.6532258 L67.9,51.6532258 L67.9,59.8193548 L66.3,59.8193548 L66.3,51.6532258 Z M69.7,51.6532258 L71.2,51.6532258 L74.8,57.0645161 L74.8,51.6532258 L76.4,51.6532258 L76.4,59.8193548 L74.9,59.8193548 L71.4,54.5064516 L71.4,59.8193548 L69.8,59.8193548 L69.8,51.6532258 L69.7,51.6532258 Z M78.2,51.6532258 L80.1,51.6532258 C81.3,51.6532258 82.2,51.85 82.8,52.0467742 C83.4,52.3419355 83.9,52.833871 84.2,53.5225806 C84.6,54.2112903 84.8,54.9983871 84.8,55.883871 C84.8,56.4741935 84.7,57.0645161 84.5,57.6548387 C84.3,58.1467742 84,58.6387097 83.6,58.933871 C83.2,59.3274194 82.8,59.5241935 82.4,59.6225806 C82,59.7209677 81.2,59.8193548 80.1,59.8193548 L78.2,59.8193548 L78.2,51.6532258 Z M79.8,53.1290323 L79.8,58.2451613 L80.5,58.2451613 C81.2,58.2451613 81.7,58.1467742 82.1,58.0483871 C82.4,57.8516129 82.7,57.6548387 82.9,57.2612903 C83.1,56.8677419 83.2,56.3758065 83.2,55.883871 C83.2,54.9983871 83,54.3096774 82.5,53.916129 C82,53.3258065 81.3,53.1290323 80.3,53.1290323 L79.8,53.1290323 Z M90.1,51.4564516 C91.3,51.4564516 92.3,51.85 93.1,52.7354839 C93.9,53.5225806 94.4,54.6048387 94.4,55.7854839 C94.4,56.966129 94,57.95 93.2,58.8354839 C92.4,59.6225806 91.4,60.1145161 90.2,60.1145161 C89,60.1145161 87.9,59.7209677 87.1,58.8354839 C86.3,57.95 85.9,56.966129 85.9,55.7854839 C85.9,54.9983871 86.1,54.3096774 86.5,53.6209677 C86.9,52.9322581 87.4,52.4403226 88.1,52.0467742 C88.6,51.6532258 89.4,51.4564516 90.1,51.4564516 Z M90.1,52.9322581 C89.3,52.9322581 88.7,53.2274194 88.2,53.7193548 C87.7,54.2112903 87.4,54.9 87.4,55.6870968 C87.4,56.5725806 87.7,57.2612903 88.4,57.8516129 C88.9,58.2451613 89.5,58.4419355 90.1,58.4419355 C90.8,58.4419355 91.5,58.1467742 92,57.6548387 C92.5,57.1629032 92.8,56.4741935 92.8,55.6870968 C92.8,54.9 92.5,54.2112903 92,53.7193548 C91.5,53.2274194 90.9,52.9322581 90.1,52.9322581 Z M96,51.6532258 L97.7,51.6532258 C98.6,51.6532258 99.3,51.7516129 99.7,51.85 C100.1,52.0467742 100.4,52.2435484 100.6,52.6370968 C100.8,53.0306452 101,53.4241935 101,53.916129 C101,54.4080645 100.9,54.9 100.6,55.2935484 C100.3,55.6870968 99.9,55.883871 99.4,56.0806452 L101.3,59.7209677 L99.6,59.7209677 L97.7,56.2774194 L97.5,56.2774194 L97.5,59.7209677 L96,59.7209677 L96,51.6532258 Z M97.6,54.8016129 L98.1,54.8016129 C98.6,54.8016129 99,54.7032258 99.1,54.6048387 C99.3,54.5064516 99.4,54.2112903 99.4,53.916129 C99.4,53.7193548 99.4,53.6209677 99.3,53.4241935 C99.2,53.3258065 99.1,53.2274194 98.9,53.1290323 C98.7,53.2274194 98.4,53.1290323 98,53.1290323 L97.6,53.1290323 L97.6,54.8016129 Z" id="Shape" fill="#000000" fill-rule="nonzero"></path>
                    <g id="Group">
                        <path d="M73,23.7112903 C73.8,25.0887097 74.4,26.466129 74.6,28.0403226 C74.9,30.3032258 74.2,32.8612903 72.7,34.533871 C70.3,37.2887097 66.3,38.1741935 62.6,38.2725806 C61.2,41.6177419 58.8,44.9629032 55.4,46.0451613 C53.2,46.733871 50.6,46.4387097 48.6,45.3564516 C45.9,43.8806452 44,41.1258065 42.8,38.2725806 C38.9,38.1741935 34.6,37.1903226 32.4,33.9435484 C30,30.5 30.5,26.8596774 32.4,23.7112903 C30.5,20.5629032 30,16.9225806 32.4,13.4790323 C34.7,10.2322581 38.9,9.2483871 42.8,9.15 C44.4,5.60806452 46.9,2.06612903 50.8,1.18064516 C56.9,-0.196774194 60.6,4.23064516 62.7,9.15 C66.4,9.2483871 70.4,10.133871 72.8,12.8887097 C74.3,14.6596774 75,17.1193548 74.7,19.3822581 C74.4,20.9564516 73.8,22.4322581 73,23.7112903 Z" id="Shape" fill="#A2C7FF"></path>
                        <path d="M35.1,26.3677419 C35.3,26.3677419 35.4,26.3677419 35.6,26.3677419 C35.7,26.3677419 35.8,26.3677419 35.8,26.3677419 L36.4,26.3677419 C36.8,26.3677419 37.3,26.3677419 37.7,26.466129 C38.2,26.466129 38.7,26.5645161 39.2,26.6629032 C39.7,26.7612903 40.2,26.8596774 40.6,27.0564516 C41.4,27.3516129 42.1,28.0403226 42.1,29.0241935 L42.1,29.4177419 L42,29.7129032 C41.6,30.7951613 40.8,31.6806452 39.9,32.4677419 C39.3,32.9596774 38.7,33.3532258 38,33.6483871 C38,33.6483871 38,33.6483871 38,33.7467742 C38.2,34.1403226 38.3,34.533871 38.5,35.0258065 C38.7,35.5177419 38.8,36.0096774 38.8,36.5016129 C38.8,37.3870968 38.4,38.1741935 37.6,38.666129 C37.1,39.0596774 36.5,39.3548387 35.9,39.65 C35,40.1419355 34.1,40.3387097 33.1,40.3387097 L33,40.3387097 C32,40.3387097 31.1,39.7483871 30.5,38.9612903 C30,38.3709677 29.6,37.7806452 29.3,37.0919355 C29,36.6 28.7,36.0096774 28.5,35.5177419 L28.4,35.5177419 C28.1,35.616129 27.8,35.616129 27.6,35.616129 C27.5,35.616129 27.4,35.616129 27.3,35.616129 C24.3,36.6983871 21.1,37.583871 17.9,38.3709677 C13.6,39.3548387 9.3,40.1419355 5,40.8306452 L4.9,40.8306452 L4.5,40.8306452 C3,40.8306452 2,39.8467742 1.8,38.4693548 L1.8,38.3709677 L1.8,36.4032258 L2.5,36.4032258 C2.7,36.2064516 2.8,36.1080645 2.9,35.9112903 C3.2,35.616129 3.4,35.2225806 3.7,34.9274194 C4,34.4354839 4.2,34.0419355 4.4,33.55 C4.5,33.2548387 4.6,32.9596774 4.6,32.6645161 L4.6,32.3693548 L4.7,32.0741935 C4.8,31.8774194 4.9,31.6806452 4.9,31.483871 C5,31.2870968 5,31.1887097 5.1,30.9919355 L5,30.9919355 C4.6,31.0903226 4.2,31.0903226 3.8,31.1887097 C3.6,31.1887097 3.3,31.1887097 3.1,31.1887097 C2.3,31.1887097 1.4,30.9919355 0.8,30.4016129 L0,29.6145161 L0.6,28.5322581 C1,27.8435484 1.6,27.2532258 2.1,26.6629032 C2.8,25.9741935 3.6,25.2854839 4.5,24.7935484 L5.1,24.4 L5.2,24.4 C5.7,24.2032258 6.4,23.9080645 7,23.9080645 L8,23.9080645 C8.3,23.5145161 8.5,23.1209677 8.7,22.6290323 C9,21.9403226 9.2,21.35 9.4,20.6612903 C9.6,19.8741935 9.8,19.1854839 10.1,18.3983871 C10.7,16.5290323 11.3,14.5612903 11.9,12.6919355 C12.3,11.216129 12.8,9.83870968 13.2,8.36290323 C13.5,7.28064516 13.8,6.1983871 14.4,5.21451613 C15,4.13225806 16.1,3.54193548 17.2,3.1483871 C18.7,2.45967742 20.5,1.57419355 22.2,1.37741935 L23.3,1.27903226 L23.8,2.26290323 C24.8,4.03387097 25.7,5.80483871 26.7,7.67419355 C27.7,9.54354839 28.5,11.5112903 29.4,13.3806452 C30.7,16.1354839 31.9,18.7919355 33.2,21.5467742 C33.7,23.2193548 34.4,24.7935484 35.1,26.3677419 Z M12,32.8612903 C12,32.8612903 12,32.9596774 12,32.8612903 L12,33.2548387 L11.9,33.4516129 C11.8,33.6483871 11.8,33.7467742 11.7,33.9435484 C13,33.9435484 14.3,33.7467742 15.6,33.6483871 C16.8,33.55 18,33.3532258 19.2,33.1564516 C18.4,33.0580645 17.6,32.8612903 16.8,32.7629032 C15.7,32.566129 14.6,32.3693548 13.5,32.3693548 C13,32.3693548 12.5,32.4677419 12.1,32.6645161 C12.1,32.7629032 12,32.8612903 12,32.8612903 Z M16.7,24.4983871 C17.2,24.5967742 17.8,24.5967742 18.1,24.5967742 C19.4,24.5967742 20.8,24.7935484 22.1,24.9903226 C22.8,25.0887097 23.5,25.1870968 24.2,25.2854839 C24.1,25.0887097 24.1,24.9903226 24,24.7935484 L22.8,21.7435484 C22.1,20.0709677 21.4,18.3983871 20.6,16.7258065 C20.4,16.3322581 20.2,16.0370968 20.1,15.6435484 C19.8,16.233871 19.6,16.8241935 19.3,17.4145161 C18.9,18.3983871 18.5,19.3822581 18.1,20.366129 C17.7,21.2516129 17.4,22.2354839 17.1,23.2193548 C16.9,23.6129032 16.8,24.1048387 16.7,24.4983871 Z" id="Shape" fill="#A2C7FF"></path>
                        <path d="M17.5,35.9112903 C17,36.0096774 16.4,36.0096774 15.9,36.1080645 C14.5,36.3048387 13.1,36.4032258 11.8,36.4032258 L8.2,36.4032258 L9.5,33.0580645 C9.5,32.9596774 9.6,32.8612903 9.6,32.8612903 C9.6,32.7629032 9.6,32.7629032 9.6,32.6645161 L9.7,31.8774194 L10.2,31.2870968 C10.4,31.0903226 10.7,30.8935484 10.9,30.6967742 C11.7,30.2048387 12.6,30.0080645 13.6,30.0080645 C14.9,30.0080645 16.1,30.2048387 17.3,30.4016129 C18.1,30.5 18.9,30.6967742 19.7,30.7951613 L34.7,33.4516129 L30.5,34.0419355 L30.7,34.533871 C30.9,35.0258065 31.1,35.4193548 31.4,35.9112903 C31.7,36.4032258 32.1,36.9935484 32.4,37.4854839 C32.5,37.583871 32.8,37.9774194 32.9,37.9774194 L33.2,37.9774194 C33.8,37.9774194 34.3,37.7806452 34.8,37.583871 C35.2,37.3870968 35.7,37.0919355 36.1,36.7967742 L36.2,36.6983871 L36.3,36.6983871 C36.3,36.4032258 36.2,36.2064516 36.1,35.9112903 C36,35.5177419 35.8,35.2225806 35.7,34.8290323 C35.7,34.8290323 35.7,34.7306452 35.7,34.7306452 L34.8,32.566129 L37,31.5822581 C37.5,31.3854839 37.9,31.0903226 38.3,30.7951613 C38.8,30.4016129 39.2,30.0080645 39.5,29.4177419 C39.3,29.3193548 39,29.3193548 38.7,29.2209677 C38.3,29.1225806 37.9,29.1225806 37.4,29.0241935 C37,29.0241935 36.7,29.0241935 36.3,29.0241935 L35.7,29.0241935 C35.6,29.0241935 35.5,29.0241935 35.5,29.0241935 C35.2,29.0241935 35,29.0241935 34.8,28.9258065 L33.3,28.7290323 L32.8,27.3516129 C32.2,25.7774194 31.5,24.2032258 30.8,22.6290323 C29.6,19.8741935 28.3,17.2177419 27.1,14.5612903 C26.2,12.6919355 25.3,10.7241935 24.4,8.85483871 C23.6,7.28064516 22.7,5.60806452 21.9,4.03387097 C20.7,4.32903226 19.3,4.91935484 18.2,5.50967742 L18,5.50967742 L17.8,5.60806452 C17.3,5.80483871 16.6,6.1 16.4,6.59193548 C16,7.37903226 15.7,8.36290323 15.4,9.15 C15,10.6258065 14.6,12.1016129 14.1,13.5774194 C13.5,15.4467742 12.9,17.4145161 12.3,19.283871 C12.1,19.9725806 11.9,20.7596774 11.7,21.4483871 C11.5,22.2354839 11.2,22.9241935 10.9,23.7112903 C10.6,24.4 10.3,24.9903226 9.8,25.5806452 L9.1,26.466129 L6.9,26.466129 C6.7,26.466129 6.3,26.6629032 6.1,26.7612903 L5.6,27.0564516 C4.9,27.45 4.3,27.9419355 3.7,28.5322581 C3.6,28.6306452 3.4,28.8274194 3.3,28.9258065 C3.4,28.9258065 3.4,28.9258065 3.5,28.9258065 C3.8,28.9258065 4.2,28.8274194 4.5,28.8274194 L4.7,28.8274194 L8.5,28.8274194 L7.3,32.0741935 C7.2,32.2709677 7.2,32.3693548 7.1,32.566129 C7,32.7629032 7,32.9596774 6.9,33.1564516 C6.9,33.7467742 6.7,34.3370968 6.5,34.8290323 C6.2,35.4193548 6,35.9112903 5.6,36.4032258 C5.3,36.8951613 5,37.2887097 4.6,37.6822581 C4.4,37.8790323 4.3,38.0758065 4.1,38.1741935 L4,38.2725806 C4,38.4693548 4.1,38.5677419 4.3,38.5677419 L4.5,38.5677419 C8.7,37.8790323 13,37.1903226 17.1,36.2064516 C17.4,35.9112903 17.5,35.9112903 17.5,35.9112903 Z M14.3,23.9080645 C14.4,23.416129 14.5,22.9241935 14.7,22.5306452 C15,21.5467742 15.4,20.5629032 15.7,19.5790323 C16.1,18.5951613 16.5,17.5129032 16.9,16.5290323 C17.2,15.9387097 17.4,15.3483871 17.7,14.6596774 L19.8,10.133871 L22.1,14.5612903 C22.3,14.9548387 22.5,15.3483871 22.7,15.7419355 C23.5,17.4145161 24.3,19.1854839 25,20.9564516 L26.2,24.0064516 C26.3,24.1048387 26.3,24.3016129 26.4,24.4 L28.1,28.3354839 L23.8,27.7451613 C23.1,27.6467742 22.4,27.5483871 21.7,27.45 C20.5,27.2532258 19.3,27.1548387 18.2,27.0564516 C17.6,27.0564516 17,27.0564516 16.4,26.9580645 L13.8,26.5645161 L14.3,23.9080645 Z" id="Shape" fill="#3742FA"></path>
                        <path d="M118.9,24.4983871 C119.2,23.8096774 119.6,23.2193548 120.1,22.6290323 L122,20.8580645 C122,20.7596774 122.1,20.4645161 122.1,20.366129 L122.1,15.4467742 C122.1,12.2983871 123.9,10.133871 127.2,10.133871 L154.7,10.133871 C158,10.133871 160.1,12.1016129 160.1,15.3483871 L160.1,36.0096774 C160.1,36.9935484 159.7,37.9774194 159.1,38.666129 C158.4,39.4532258 157.3,39.8467742 156.2,39.8467742 L154.6,39.8467742 C152.1,39.8467742 150.3,38.3709677 150.3,35.8129032 L150.3,19.6774194 L146,19.6774194 L146,36.0096774 C146,36.9935484 145.6,37.9774194 144.9,38.666129 C144.2,39.4532258 143.2,39.8467742 142.1,39.8467742 L140.5,39.8467742 C138,39.8467742 136.2,38.3709677 136.2,35.8129032 L136.2,19.6774194 L131.9,19.6774194 L131.9,35.8129032 C131.9,38.2725806 130.1,39.8467742 127.7,39.8467742 L122.7,39.8467742 C120.5,39.8467742 118.9,38.666129 118.6,36.6983871 C118.4,37.1903226 118.1,37.6822581 117.7,38.0758065 C116.7,39.2564516 115.3,39.8467742 113.8,39.8467742 L97,39.8467742 C95.5,39.8467742 94.1,39.3548387 93,38.4693548 C91.8,37.4854839 91.2,36.1080645 91.2,34.6322581 L91.2,19.1854839 C90.4,19.5790323 89.5,19.6774194 88.6,19.6774194 L83.4,19.6774194 L83.4,20.2677419 C83.4,20.366129 83.4,20.5629032 83.4,20.6612903 L85.3,22.4322581 C86.7,23.7112903 87,25.5806452 87,27.3516129 L87,35.8129032 C87,38.2725806 85.3,39.8467742 82.8,39.8467742 L77.8,39.8467742 C75.3,39.8467742 73.6,38.2725806 73.6,35.8129032 L73.6,19.6774194 L68.3,19.6774194 C67.1,19.6774194 66,19.4806452 65.1,18.6935484 C64.2,17.9064516 63.8,16.7258065 63.8,15.5451613 L63.8,14.1677419 C63.8,11.5112903 65.9,10.133871 68.4,10.133871 L88.6,10.133871 C90.3,10.133871 91.8,10.7241935 92.6,11.9048387 C93.6,10.7241935 95.2,10.133871 97.2,10.133871 L113.7,10.133871 C115.1,10.133871 116.3,10.5274194 117.4,11.4129032 C118.4,12.2983871 119.1,13.4790323 119.1,14.7580645 L119.1,24.4983871 L118.9,24.4983871 Z M109.1,30.4016129 L109.1,19.6774194 L101,19.6774194 L101,20.2677419 C101,20.366129 101,20.5629032 101.1,20.6612903 L103,22.4322581 C104.4,23.7112903 104.7,25.5806452 104.7,27.3516129 L104.7,30.3032258 C104.7,30.3032258 104.7,30.3032258 104.8,30.3032258 L109.1,30.4016129 C109.1,30.4016129 109.1,30.4016129 109.1,30.4016129 Z" id="Shape" fill="#A2C7FF"></path>
                        <path d="M66.5,16.9225806 C66.9,17.2177419 67.6,17.316129 68.1,17.316129 L75.9,17.316129 L75.9,35.9112903 C75.9,37.0919355 76.5,37.583871 77.7,37.583871 L82.7,37.583871 C83.8,37.583871 84.5,37.0919355 84.5,35.9112903 L84.5,27.45 C84.5,26.3677419 84.4,25.0887097 83.5,24.3016129 L81.2,22.1370968 L81,21.5467742 C80.9,21.1532258 80.8,20.7596774 80.8,20.366129 L80.8,17.316129 L88.5,17.316129 C88.9,17.316129 89.6,17.316129 90,17.0209677 L92.1,15.9387097 L90.4,13.3806452 C90,12.7903226 89.1,12.6919355 88.5,12.6919355 L68.2,12.6919355 C67.1,12.6919355 66,12.9870968 66,14.266129 L66,15.6435484 C66.1,16.0370968 66.2,16.5290323 66.5,16.9225806 Z M92.3,15.8403226 L93.6,15.1516129 L93.6,34.6322581 C93.6,35.4193548 94,36.1080645 94.6,36.6983871 C95.3,37.2887097 96.1,37.4854839 97,37.4854839 L113.6,37.4854839 C114.4,37.4854839 115.1,37.1903226 115.6,36.6 C115.8,36.3048387 116,36.1080645 116.1,35.8129032 L116.3,35.3209677 L116.3,14.8564516 C116.3,14.266129 115.9,13.6758065 115.5,13.2822581 C114.9,12.7903226 114.2,12.5935484 113.4,12.5935484 L97,12.5935484 C96,12.5935484 94.9,12.7903226 94.3,13.5774194 L92.3,15.8403226 Z M110.6,32.3693548 C110.5,32.3693548 110.5,32.4677419 110.4,32.4677419 L109.8,32.8612903 L104.2,32.8612903 L103.7,32.6645161 C103.6,32.6645161 103.5,32.566129 103.4,32.4677419 L102.2,31.7790323 L102.2,27.45 C102.2,26.466129 102.1,24.9903226 101.3,24.3016129 L99,22.1370968 L98.7,21.6451613 C98.5,21.2516129 98.5,20.7596774 98.5,20.366129 L98.5,17.316129 L111.5,17.316129 L111.5,31.6806452 L110.6,32.3693548 Z M119.6,29.4177419 L120.9,36.4032258 C121.1,37.2887097 121.8,37.583871 122.6,37.583871 L127.6,37.583871 C128.7,37.583871 129.4,37.0919355 129.4,35.9112903 L129.4,17.316129 L138.6,17.316129 L138.6,36.0096774 C138.6,37.1903226 139.3,37.583871 140.5,37.583871 L142.1,37.583871 C142.5,37.583871 142.8,37.4854839 143.1,37.1903226 C143.4,36.8951613 143.5,36.6 143.5,36.2064516 L143.5,17.316129 L152.7,17.316129 L152.7,36.0096774 C152.7,37.1903226 153.5,37.583871 154.6,37.583871 L156.2,37.583871 C156.6,37.583871 157,37.4854839 157.2,37.1903226 C157.5,36.8951613 157.6,36.6 157.6,36.2064516 L157.6,15.5451613 C157.6,13.5774194 156.6,12.6919355 154.6,12.6919355 L127.1,12.6919355 C125.2,12.6919355 124.5,13.7741935 124.5,15.5451613 L124.5,20.4645161 C124.5,20.8580645 124.4,21.35 124.3,21.7435484 L124.1,22.2354839 L121.8,24.4 C121.5,24.6951613 121.3,24.9903226 121.2,25.2854839 L119.6,29.4177419 Z" id="Shape" fill="#3742FA"></path>
                        <path d="M62.1,23.8096774 C62.1,25.5806452 62,27.2532258 61.8,28.8274194 C64.4,27.2532258 66.6,25.4822581 68.2,23.7112903 C66.6,21.9403226 64.3,20.1693548 61.6,18.4967742 C61.9,20.6612903 62.1,22.5306452 62.1,23.8096774 Z M52.7,17.7096774 C56,17.7096774 58.6,20.366129 58.6,23.6129032 C58.6,26.8596774 55.9,29.516129 52.7,29.516129 C49.4,29.516129 46.8,26.8596774 46.8,23.6129032 C46.7,20.366129 49.4,17.7096774 52.7,17.7096774 Z M68.6,23.2193548 C66.9,21.2516129 64.4,19.3822581 61.5,17.6112903 C61.3,16.5290323 61.1,15.3483871 60.8,14.1677419 C64.9,13.8725806 68.3,14.4629032 70.3,16.0370968 C71,16.6274194 71.1,16.7258065 71.1,17.6112903 C71.1,19.3822581 70.2,21.35 68.6,23.2193548 Z M49.3,32.3693548 C50.1,32.6645161 50.8,32.9596774 51.6,33.1564516 C49.5,33.7467742 47.5,34.1403226 45.6,34.2387097 C45.2,32.8612903 44.9,31.483871 44.6,29.9096774 C46.4,31.0903226 48.1,31.8774194 49.3,32.3693548 Z M52.8,33.55 C50.3,34.3370968 47.9,34.7306452 45.7,34.9274194 C47,38.9612903 49.1,41.9129032 51.5,42.7983871 C52.3,43.0935484 52.5,43.0935484 53.3,42.6016129 C55.5,41.4209677 57.3,38.5677419 58.6,34.7306452 C56.7,34.533871 54.8,34.1403226 52.8,33.55 Z M60.4,35.0258065 C59,39.2564516 56.9,42.2080645 54.4,43.0935484 C53.1,43.4870968 51.4,43.2903226 50.2,42.6016129 C48.1,41.4209677 46.3,38.7645161 45,35.0258065 C40.3,35.3209677 36.6,34.3370968 35,32.0741935 C33,29.3193548 34.1,26.3677419 36.4,23.7112903 C34.1,21.0548387 33.1,18.1032258 35,15.3483871 C36.6,13.183871 40.3,12.1016129 45,12.3967742 C46.5,7.96935484 48.8,4.91935484 51.5,4.32903226 C56.1,3.24677419 58.8,7.47741935 60.4,12.3967742 C64.9,12.1016129 68.6,12.8887097 70.3,14.9548387 C71.2,16.0370968 71.6,17.6112903 71.4,18.9887097 C71.2,20.4645161 70.4,22.1370968 69.1,23.7112903 C70.4,25.2854839 71.2,26.9580645 71.4,28.433871 C71.6,29.8112903 71.2,31.3854839 70.3,32.4677419 C68.5,34.4354839 64.9,35.3209677 60.4,35.0258065 Z M59.5,16.6274194 C59.4,15.8403226 59.2,15.1516129 59,14.4629032 C58,14.5612903 56.9,14.7580645 55.8,15.0532258 C55.9,15.0532258 56,15.1516129 56.1,15.1516129 C57.4,15.5451613 58.5,16.1354839 59.5,16.6274194 Z M52.8,13.9709677 C54.8,13.3806452 56.8,12.9870968 58.6,12.6919355 C57.3,8.55967742 55.2,5.60806452 52.8,4.62419355 C52.2,4.32903226 52,4.42741935 51.4,4.72258065 C49.1,5.70645161 47.1,8.55967742 45.8,12.5935484 C47.9,12.6919355 50.3,13.183871 52.8,13.9709677 Z M37.6,24.9903226 C35.8,27.0564516 34.8,29.1225806 34.8,30.8935484 C34.8,31.5822581 34.9,31.6806452 35.4,32.1725806 C37.2,33.9435484 40.6,34.6322581 44.8,34.3370968 C44.3,32.8612903 44,31.2870968 43.7,29.516129 C41.6,28.2370968 39.4,26.6629032 37.6,24.9903226 Z M35.4,15.3483871 C34.9,15.8403226 34.8,15.9387097 34.8,16.6274194 C34.8,18.4967742 35.8,20.4645161 37.6,22.5306452 C39.4,20.7596774 41.6,19.283871 43.8,18.0048387 C44.1,16.3322581 44.4,14.6596774 44.9,13.183871 C40.6,12.8887097 37.2,13.5774194 35.4,15.3483871 Z M45.5,13.183871 C45.1,14.5612903 44.8,15.9387097 44.5,17.5129032 C46.4,16.4306452 48.1,15.6435484 49.2,15.1516129 C50,14.8564516 50.7,14.5612903 51.5,14.3645161 C49.4,13.7741935 47.4,13.3806452 45.5,13.183871 Z M54.7,15.3483871 C53.2,15.7419355 51.6,16.233871 50,16.9225806 C47.9,17.7096774 46,18.6935484 44.2,19.6774194 C44.1,20.9564516 44,22.333871 44,23.7112903 C44,25.0887097 44.1,26.466129 44.2,27.7451613 C45.9,28.7290323 47.9,29.7129032 49.9,30.5 C51.5,31.0903226 53.1,31.6806452 54.6,32.0741935 C55,31.8774194 55.4,31.7790323 55.9,31.5822581 C57.2,31.0903226 58.5,30.5 59.7,29.9096774 C60,27.9419355 60.2,25.8758065 60.2,23.7112903 C60.2,21.5467742 60,19.3822581 59.7,17.4145161 C58.5,16.8241935 57.3,16.233871 56,15.7419355 C55.5,15.6435484 55.1,15.4467742 54.7,15.3483871 Z M68.6,24.2032258 C70.2,26.0725806 71.1,28.0403226 71.1,29.7129032 C71.1,30.5983871 71,30.6967742 70.3,31.2870968 C68.4,32.8612903 65,33.4516129 60.9,33.1564516 C61.2,32.0741935 61.4,30.8935484 61.6,29.6145161 C64.5,28.0403226 66.9,26.1709677 68.6,24.2032258 Z M59.1,33.0580645 C59.3,32.3693548 59.4,31.5822581 59.6,30.8935484 C58.5,31.3854839 57.4,31.9758065 56.3,32.3693548 C56.2,32.3693548 56.1,32.4677419 56,32.4677419 C57,32.7629032 58.1,32.9596774 59.1,33.0580645 Z M43.5,27.3516129 C43.4,26.1709677 43.3,24.9903226 43.3,23.7112903 C43.3,22.5306452 43.4,21.2516129 43.5,20.1693548 C41.7,21.35 40.1,22.5306452 38.8,23.8096774 C40.1,24.9903226 41.7,26.1709677 43.5,27.3516129 Z" id="Shape" fill="#3742FA"></path>
                    </g>
                </g>
            </g>
        </g>
    </g>
</svg>