<?xml version="1.0" encoding="UTF-8"?>
<svg width="503px" height="400px" viewBox="0 0 503 400" version="1.1" xmlns="http://www.w3.org/2000/svg" xmlns:xlink="http://www.w3.org/1999/xlink">
    <!-- Generator: sketchtool 51 (57462) - http://www.bohemiancoding.com/sketch -->
    <title>A7A69737-1CC8-41B0-8C92-605B69F878A0</title>
    <desc>Created with sketchtool.</desc>
    <defs>
        <linearGradient x1="49.9899601%" y1="100.007353%" x2="49.9899601%" y2="-0.00193859288%" id="linearGradient-1">
            <stop stop-color="#808080" stop-opacity="0.25" offset="0%"></stop>
            <stop stop-color="#808080" stop-opacity="0.12" offset="54%"></stop>
            <stop stop-color="#808080" stop-opacity="0.1" offset="100%"></stop>
        </linearGradient>
    </defs>
    <g id="Page-1" stroke="none" stroke-width="1" fill="none" fill-rule="evenodd">
        <g id="Франшиза|Главная" transform="translate(-772.000000, -3284.000000)">
            <rect fill="#FFFFFF" x="0" y="0" width="1440" height="5659"></rect>
            <g id="undraw_business_plan_5i9d" transform="translate(735.000000, 3268.000000)">
                <ellipse id="Oval" fill="#6C63FF" fill-rule="nonzero" opacity="0.1" cx="279.222796" cy="401.451995" rx="207.118611" ry="14.3368858"></ellipse>
                <path d="M53.8845948,61.9537716 C40.9784506,77.0295732 37.7134461,96.1406228 37.5355298,114.464775 C37.4105076,127.386205 39.1800534,141.401615 49.9896705,150.93075 C64.2181656,163.468328 91.5355298,165.939377 98.584862,181.960415 C104.835975,196.19654 90.2901158,210.519031 76.3164737,220.566367 C62.3428317,230.613702 46.2967053,242.916171 48.9077471,257.876817 C50.5618878,267.429942 59.6356189,274.929458 68.6853072,281.224637 C85.8902939,293.220023 105.230276,303.713587 127.032235,308.818824 C166.587355,318.069666 209.311309,308.492549 246.375601,293.992526 C269.192164,285.067958 295.682458,274.113772 318.340338,283.292641 C324.322173,285.715709 329.4,289.376701 334.915405,292.409135 C350.951915,301.175363 370.537133,304.404521 389.598219,307.144268 C417.535886,311.174717 446.896883,314.538224 473.815138,307.26902 C500.733393,299.999815 523.99715,278.739193 519.876224,256.063114 C515.990917,234.70173 491.255744,220.777486 471.545503,206.186298 C464.592342,201.037878 457.514159,194.214902 459.245236,186.724983 C460.620481,180.784867 467.092787,176.648858 472.863045,172.810334 C503.233838,152.494948 525.55512,124.449735 535.816563,93.6983622 C540.66358,79.1887428 542.413891,62.4719723 531.599466,50.2366782 C522.876759,40.3668743 507.926981,35.6262976 493.708103,31.7253979 C467.323598,24.4849827 440.280321,18.3673356 412.530187,16.7167705 C384.780053,15.0662053 356.111487,18.2137947 331.477293,28.6593772 C319.662689,33.6734487 308.954052,40.2757093 297.024043,45.1026528 C263.152627,58.8061822 223.241674,56.9636909 185.465717,54.7997232 C171.968121,54.0272203 157.85984,52.6549481 146.141407,46.7724106 C136.043455,41.6959631 130.273197,38.0589619 117.770971,37.4927797 C93.2666073,36.384406 67.9159394,45.5344867 53.8845948,61.9537716 Z" id="Shape" fill="#6C63FF" fill-rule="nonzero" opacity="0.1"></path>
                <polygon id="Shape" fill="#535461" fill-rule="nonzero" points="236.801781 165.22925 236.272841 166.318431 232.844346 173.347728 196.881211 247.032987 135.855922 396.236401 127.133215 396.303576 188.192164 247.032987 229.800534 161.769781 232.844346 163.271603 236.272841 164.965352"></polygon>
                <polygon id="Shape" fill="#535461" fill-rule="nonzero" points="343.868923 396.303576 336.68976 396.236401 275.659662 247.032987 240.643811 175.281384 236.272841 166.318431 235.739092 165.22925 236.272841 164.965352 240.643811 162.806182 242.745147 161.769781 283.728406 247.032987"></polygon>
                <rect id="Rectangle-path" fill="#535461" fill-rule="nonzero" x="232.844346" y="141.727889" width="7.80427427" height="254.575686"></rect>
                <path d="M235.854497,99.7872203 C230.372699,99.7925104 225.930146,104.22546 225.924844,109.695409 L225.924844,113.236448 C225.845617,116.829144 227.721138,120.183287 230.826709,122.002845 C233.932281,123.822403 237.781521,123.822403 240.887093,122.002845 C243.992665,120.183287 245.868185,116.829144 245.788958,113.236448 L245.788958,109.695409 C245.781007,104.224684 241.337076,99.7925054 235.854497,99.7872203 Z M243.302939,113.222053 C243.302939,117.329472 239.966005,120.659193 235.849688,120.659193 C231.733372,120.659193 228.396438,117.329472 228.396438,113.222053 L228.396438,109.681015 C228.396438,105.573596 231.733372,102.243875 235.849688,102.243875 C239.966005,102.243875 243.302939,105.573596 243.302939,109.681015 L243.302939,113.222053 Z" id="Shape" fill="#535461" fill-rule="nonzero"></path>
                <polygon id="Shape" fill="#000000" fill-rule="nonzero" opacity="0.1" points="283.728406 247.032987 275.659662 247.032987 240.643811 175.281384 240.643811 247.032987 232.844346 247.032987 232.844346 173.347728 196.881211 247.032987 188.192164 247.032987 229.800534 161.769781 232.844346 163.271603 232.844346 141.727889 240.643811 141.727889 240.643811 162.806182 242.745147 161.769781"></polygon>
                <path d="M245.788958,110.050473 L245.788958,113.236448 C245.868185,116.829144 243.992665,120.183287 240.887093,122.002845 C237.781521,123.822403 233.932281,123.822403 230.826709,122.002845 C227.721138,120.183287 225.845617,116.829144 225.924844,113.236448 L225.924844,110.050473 L228.406055,110.050473 L228.406055,113.236448 C228.406055,117.343866 231.742989,120.673587 235.859305,120.673587 C239.975622,120.673587 243.312555,117.343866 243.312556,113.236448 L243.312556,110.050473 L245.788958,110.050473 Z" id="Shape" fill="#000000" fill-rule="nonzero" opacity="0.1"></path>
                <rect id="Rectangle-path" fill="#535461" fill-rule="nonzero" x="85.8085485" y="110.7606" width="300.096705" height="135.211995"></rect>
                <rect id="Rectangle-path" fill="#FFFFFF" fill-rule="nonzero" x="91.1316118" y="115.006967" width="288.743722" height="123.178224"></rect>
                <g id="Group" opacity="0.2" transform="translate(119.252004, 128.110727)" fill="#6C63FF" fill-rule="nonzero">
                    <rect id="Rectangle-path" x="0.39430098" y="0.287889273" width="13.6514693" height="6.20401384"></rect>
                </g>
                <g id="Group" opacity="0.2" transform="translate(119.252004, 140.106113)" fill="#6C63FF" fill-rule="nonzero">
                    <rect id="Rectangle-path" x="0.39430098" y="0.292687428" width="13.6514693" height="6.20401384"></rect>
                </g>
                <g id="Group" opacity="0.2" transform="translate(119.252004, 152.101499)" fill="#6C63FF" fill-rule="nonzero">
                    <rect id="Rectangle-path" x="0.39430098" y="0.292687428" width="13.6514693" height="6.20401384"></rect>
                </g>
                <g id="Group" opacity="0.2" transform="translate(119.252004, 164.096886)" fill="#6C63FF" fill-rule="nonzero">
                    <rect id="Rectangle-path" x="0.39430098" y="0.292687428" width="13.6514693" height="6.20401384"></rect>
                </g>
                <g id="Group" opacity="0.2" transform="translate(119.252004, 176.092272)" fill="#6C63FF" fill-rule="nonzero">
                    <rect id="Rectangle-path" x="0.39430098" y="0.297485582" width="13.6514693" height="6.20401384"></rect>
                </g>
                <g id="Group" opacity="0.2" transform="translate(119.252004, 188.087659)" fill="#6C63FF" fill-rule="nonzero">
                    <rect id="Rectangle-path" x="0.39430098" y="0.297485582" width="13.6514693" height="6.20401384"></rect>
                </g>
                <g id="Group" opacity="0.2" transform="translate(119.252004, 200.083045)" fill="#6C63FF" fill-rule="nonzero">
                    <rect id="Rectangle-path" x="0.39430098" y="0.297485582" width="13.6514693" height="6.20401384"></rect>
                </g>
                <g id="Group" opacity="0.2" transform="translate(119.252004, 212.078431)" fill="#6C63FF" fill-rule="nonzero">
                    <rect id="Rectangle-path" x="0.39430098" y="0.297485582" width="13.6514693" height="6.20401384"></rect>
                </g>
                <g id="Group" opacity="0.2" transform="translate(145.218166, 218.316032)" fill="#6C63FF" fill-rule="nonzero">
                    <rect id="Rectangle-path" x="0.12983081" y="0.268696655" width="13.6514693" height="6.20401384"></rect>
                </g>
                <g id="Group" opacity="0.2" transform="translate(169.260908, 218.316032)" fill="#6C63FF" fill-rule="nonzero">
                    <rect id="Rectangle-path" x="0.134639359" y="0.268696655" width="13.6514693" height="6.20401384"></rect>
                </g>
                <g id="Group" opacity="0.2" transform="translate(193.303651, 218.316032)" fill="#6C63FF" fill-rule="nonzero">
                    <rect id="Rectangle-path" x="0.134639359" y="0.268696655" width="13.6514693" height="6.20401384"></rect>
                </g>
                <g id="Group" opacity="0.2" transform="translate(217.346394, 218.316032)" fill="#6C63FF" fill-rule="nonzero">
                    <rect id="Rectangle-path" x="0.139447907" y="0.268696655" width="13.6514693" height="6.20401384"></rect>
                </g>
                <g id="Group" opacity="0.2" transform="translate(241.389136, 218.316032)" fill="#6C63FF" fill-rule="nonzero">
                    <rect id="Rectangle-path" x="0.139447907" y="0.268696655" width="13.6514693" height="6.20401384"></rect>
                </g>
                <g id="Group" opacity="0.2" transform="translate(265.431879, 218.316032)" fill="#6C63FF" fill-rule="nonzero">
                    <rect id="Rectangle-path" x="0.144256456" y="0.268696655" width="13.6514693" height="6.20401384"></rect>
                </g>
                <g id="Group" opacity="0.2" transform="translate(289.474622, 218.316032)" fill="#6C63FF" fill-rule="nonzero">
                    <rect id="Rectangle-path" x="0.144256456" y="0.268696655" width="13.6514693" height="6.20401384"></rect>
                </g>
                <g id="Group" opacity="0.2" transform="translate(313.517364, 218.316032)" fill="#6C63FF" fill-rule="nonzero">
                    <rect id="Rectangle-path" x="0.149065004" y="0.268696655" width="13.6514693" height="6.20401384"></rect>
                </g>
                <g id="Group" opacity="0.2" transform="translate(337.560107, 218.316032)" fill="#6C63FF" fill-rule="nonzero">
                    <rect id="Rectangle-path" x="0.149065004" y="0.268696655" width="13.6514693" height="6.20401384"></rect>
                </g>
                <rect id="Rectangle-path" fill="#6C63FF" fill-rule="nonzero" x="145.347996" y="173.491672" width="13.6514693" height="38.8842445"></rect>
                <rect id="Rectangle-path" fill="#6C63FF" fill-rule="nonzero" x="169.395548" y="155.498593" width="13.6514693" height="56.8821223"></rect>
                <rect id="Rectangle-path" fill="#6C63FF" fill-rule="nonzero" x="193.43829" y="140.3988" width="13.6514693" height="71.9819146"></rect>
                <rect id="Rectangle-path" fill="#6C63FF" fill-rule="nonzero" x="217.485841" y="148.224591" width="13.6514693" height="64.1513264"></rect>
                <rect id="Rectangle-path" fill="#6C63FF" fill-rule="nonzero" x="241.528584" y="134.607428" width="13.6514693" height="77.7732872"></rect>
                <g id="Group" opacity="0.2" transform="translate(265.431879, 164.096886)" fill="#6C63FF" fill-rule="nonzero">
                    <rect id="Rectangle-path" x="0.144256456" y="0.292687428" width="13.6514693" height="47.9863437"></rect>
                </g>
                <g id="Group" opacity="0.2" transform="translate(289.474622, 164.096886)" fill="#6C63FF" fill-rule="nonzero">
                    <rect id="Rectangle-path" x="0.144256456" y="0.292687428" width="13.6514693" height="47.9863437"></rect>
                </g>
                <g id="Group" opacity="0.2" transform="translate(313.517364, 164.096886)" fill="#6C63FF" fill-rule="nonzero">
                    <rect id="Rectangle-path" x="0.149065004" y="0.292687428" width="13.6514693" height="47.9863437"></rect>
                </g>
                <g id="Group" opacity="0.2" transform="translate(337.560107, 164.096886)" fill="#6C63FF" fill-rule="nonzero">
                    <rect id="Rectangle-path" x="0.149065004" y="0.292687428" width="13.6514693" height="47.9863437"></rect>
                </g>
                <polygon id="Shape" fill="#535461" fill-rule="nonzero" points="336.141585 164.284014 219.24577 171.462053 219.24577 173.736378 338.632413 169.010196"></polygon>
                <path d="M474.541229,211.670588 C474.541229,211.670588 480.657703,201.632849 479.032413,185.885306 C477.407124,170.137762 471.526269,144.649965 471.526269,144.649965 C471.526269,144.649965 474.079608,130.370657 460.230988,128.365029 C460.230988,128.365029 451.623687,126.767243 445.468744,122.904729 C443.179875,121.465283 441.232413,119.723552 440.179341,117.626759 C440.179341,117.626759 440.097596,117.861869 439.938914,118.293702 C439.802775,118.077797 439.677595,117.855202 439.563847,117.626759 C439.563847,117.626759 439.530187,117.713126 439.477293,117.866667 L437.125913,114.210473 C437.125913,114.210473 436.80374,114.551142 436.260374,115.112526 C435.314683,113.7579 434.509135,112.311048 433.8561,110.794187 C434.440758,110.653298 435.014465,110.470493 435.572752,110.247197 C436.10656,110.070997 436.58763,109.764173 436.972039,109.35474 C437.309005,108.887816 437.526866,108.345988 437.606768,107.776148 C437.981594,105.952403 438.088502,104.083943 437.924132,102.229481 C437.794301,100.790035 437.50098,99.3505882 437.601959,97.8871511 C437.707747,96.3277509 438.26073,94.8211303 438.337667,93.2569319 C438.472306,90.5027912 437.10187,87.8829988 435.409261,85.6998385 C434.399466,84.3995386 433.264648,83.1904037 432.389492,81.7989389 C431.629742,80.5898039 431.076759,79.255917 430.259305,78.0803691 C428.335886,75.345421 425.128584,73.7332411 421.839537,73.1622607 C418.55049,72.5912803 415.165272,72.9463437 411.871416,73.4885352 C408.986287,73.9683506 406.101158,74.664083 403.216028,74.8320185 C400.696349,74.9759631 398.643099,74.1266897 396.334996,75.7916494 C394.788337,76.9294962 393.81006,78.6788915 393.651825,80.5898039 C393.614323,80.9113438 393.638806,81.2370739 393.723954,81.5494348 C393.860137,81.8730735 394.02089,82.1858629 394.204809,82.485075 C395.229029,84.5002999 393.67106,86.894579 393.873019,89.1449135 C394.126513,91.193652 395.759338,92.7991048 397.816028,93.0218224 C397.724666,93.2137486 397.623687,93.4008766 397.537133,93.5976009 C394.946456,99.4378359 395.321995,106.16388 398.546784,111.680819 C401.771573,117.197757 407.45381,120.835299 413.823687,121.460484 L414.718077,122.146621 C416.737667,123.706021 419.007302,125.572503 421.195191,127.602122 L421.151915,127.635709 L420.796082,127.434187 C420.129986,127.95984 419.429599,128.440717 418.699555,128.873633 C416.675156,130.111557 413.410151,131.718939 409.73642,131.901269 C409.73642,131.901269 403.158326,135.379931 400.8935,146.852318 C397.642921,149.76 390.684951,155.009181 381.491006,156.376655 C368.570436,158.295917 352.639715,158.924475 352.639715,158.924475 C352.639715,158.924475 352.509884,159.154787 352.327159,159.577024 L350.855744,159.308328 C350.855744,159.308328 350.855744,159.485859 350.793232,159.788143 L350.216207,159.529043 C345.652894,157.537809 336.535886,154.634925 335.381834,162.633449 C333.833482,173.362122 344.085307,172.128997 344.085307,172.128997 C346.112531,171.360452 348.189813,170.730439 350.30276,170.243322 L350.874978,170.132964 C350.972197,170.412769 351.108153,170.677634 351.278896,170.919862 L352.673375,170.919862 C353.157775,171.919969 353.742604,172.868462 354.418878,173.750773 L386.915049,173.040646 C386.915049,173.040646 392.468923,171.831511 397.594835,172.599216 C395.35886,189.277601 392.718967,207.568166 392.718967,207.568166 C392.718967,207.568166 387.189136,236.534625 391.060018,239.562261 C393.306675,238.814298 395.596495,238.202222 397.917008,237.729366 C397.952229,239.519254 398.142068,241.302777 398.484417,243.060115 L400.960819,259.234694 C400.960819,259.234694 401.922529,275.759539 405.139448,285.624544 L407.976492,299.107359 L410.351915,309.298639 L411.688691,326.595986 C413.524426,333.923588 414.851528,341.368794 415.660552,348.878616 C416.915583,360.499746 423.729297,379.279723 424.638112,381.750773 C422.310775,385.037509 417.531077,390.612964 411.534817,391.188743 C402.975601,392.014025 402.768833,397.162445 408.750668,399.014533 C414.732502,400.866621 427.321282,399.014533 427.321282,399.014533 L445.074443,394.633818 C444.540695,397.901361 444.261799,400.482768 444.651291,400.761061 C445.786109,401.586344 463.015138,406.039031 463.635441,398.908973 C463.683526,398.3204 463.726803,397.749419 463.765272,397.196032 C464.021727,392.628505 463.4099,388.053796 461.962066,383.713218 C461.822618,383.286182 461.697596,382.854348 461.586999,382.422514 C461.842545,382.137453 462.077168,381.834384 462.289047,381.515663 C462.289047,381.515663 463.529653,362.265467 464.457703,355.365721 C464.529831,354.813933 464.577916,354.142191 464.601959,353.384083 C465.02992,345.112065 462.005343,323.352434 462.005343,323.352434 C462.005343,323.352434 458.269101,309.197878 458.408549,302.69158 C458.42996,302.150936 458.522103,301.615403 458.682636,301.098593 C458.682636,301.098593 458.682636,300.969043 458.63455,300.753126 C458.63455,300.661961 458.677827,300.565998 458.706679,300.479631 C458.706679,300.479631 456.81211,287.524614 457.076581,279.818777 C457.11356,278.669258 457.274779,277.52708 457.557435,276.412088 C457.858098,274.948387 458.011132,273.458326 458.014248,271.964198 C458.254675,266.686228 457.975779,257.569735 457.591095,249.019423 C457.634372,248.875479 457.677649,248.731534 457.711309,248.563599 C457.788885,247.882715 457.708261,247.193151 457.47569,246.548374 C457.446839,245.996586 457.422796,245.449596 457.393945,244.907405 C457.552627,244.365213 457.682458,243.789435 457.797863,243.194464 L458.047907,243.194464 L458.047907,243.228051 C458.047907,243.228051 474.214248,242.455548 477.931256,238.132411 C477.931256,238.132411 474.175779,226.48729 472.093678,217.020531 L474.541229,211.670588 Z M404.874978,175.449319 L404.620125,175.358155 C405.028851,173.918708 405.514515,172.244152 406.062689,170.488028 C405.59626,172.388097 405.192342,174.115433 404.874978,175.449319 Z M421.281745,127.71248 L421.353874,127.779654 L421.276937,127.736471 L421.281745,127.71248 Z M441.477649,377.466021 C440.607302,374.47677 437.149955,362.289458 437.260552,356.478893 C437.2847,355.973849 437.37358,355.473973 437.525022,354.991465 C437.845628,353.938416 438.007681,352.843684 438.005877,351.743114 C438.352093,345.678247 436.024755,334.810427 436.024755,334.810427 C436.024755,334.810427 430.817097,320.152065 431.216207,308.511742 C431.216207,308.219054 431.249866,307.926367 431.269101,307.633679 C431.355654,306.530104 431.422974,305.335363 431.47106,304.073449 L431.47106,304.049458 C431.66821,299.553587 431.624933,294.141269 431.495102,289.09361 L431.466251,288.906482 C431.288335,282.222653 430.956545,276.205767 430.817097,273.825882 C431.297952,277.266159 434.375423,298.680323 435.702582,302.182976 C435.702582,302.182976 436.428673,312.062376 439.727337,320.415963 L443.343366,342.132411 C443.343366,342.132411 444.271416,367.975271 445.81496,375.28286 C446.507391,378.536009 447.094034,380.728766 447.531612,382.158616 C446.9065,385.071096 445.896705,389.950819 445.2187,393.990865 C444.81959,391.356678 443.415494,381.318939 441.482458,377.466021 L441.477649,377.466021 Z" id="Shape" fill="url(#linearGradient-1)" fill-rule="nonzero"></path>
                <path d="M426.018166,378.132964 C426.018166,378.132964 419.983437,389.048766 411.496349,389.864452 C403.009261,390.680138 402.807302,395.780577 408.736242,397.61827 C414.665183,399.455963 427.143366,397.61827 427.143366,397.61827 L444.934996,393.232757 C444.934996,393.232757 442.785574,375.681107 439.924488,374.76466 C437.063402,373.848212 426.018166,378.132964 426.018166,378.132964 Z" id="Shape" fill="#4C4C78" fill-rule="nonzero"></path>
                <path d="M447.70472,378.334487 C447.70472,378.334487 443.203918,398.534717 444.338736,399.355202 C445.473553,400.175686 462.539092,404.556401 463.154586,397.517509 C463.202671,396.925736 463.245948,396.359554 463.284417,395.818962 C463.536417,391.292032 462.929526,386.758329 461.495637,382.456101 C461.014782,381.016655 460.678183,379.476448 460.803206,378.334487 C461.08691,375.479585 447.70472,378.334487 447.70472,378.334487 Z" id="Shape" fill="#4C4C78" fill-rule="nonzero"></path>
                <path d="M442.121995,122.588051 C442.121995,122.588051 428.316652,156.424637 430.77382,145.556817 C432.39911,138.359585 421.892431,128.796863 414.626714,123.178224 C410.92894,120.299331 408.072663,118.471234 408.072663,118.471234 C408.072663,118.471234 433.990739,88.3196309 432.153874,101.327428 C431.650063,104.890025 432.139181,108.522262 433.567587,111.82579 C436.428673,118.610381 442.121995,122.588051 442.121995,122.588051 Z" id="Shape" fill="#FFB9B9" fill-rule="nonzero"></path>
                <path d="M353.938023,170.655963 C353.207124,170.468835 352.014604,170.588789 350.778807,170.852687 C348.685596,171.33505 346.627615,171.958644 344.619056,172.71917 C344.619056,172.71917 334.458593,173.942699 335.99252,163.309988 C337.132146,155.383437 346.167409,158.26233 350.692253,160.229573 C352.230988,160.906113 353.250401,161.472295 353.250401,161.472295 L353.938023,170.655963 Z" id="Shape" fill="#FFB9B9" fill-rule="nonzero"></path>
                <path d="M353.938023,170.655963 C353.207124,170.468835 352.014604,170.588789 350.778807,170.852687 C349.672841,168.069758 350.514337,161.472295 350.692253,160.229573 C352.230988,160.906113 353.250401,161.472295 353.250401,161.472295 L353.938023,170.655963 Z" id="Shape" fill="#000000" fill-rule="nonzero" opacity="0.1"></path>
                <path d="M353.9813,160.503068 L351.322173,160.023253 C351.322173,160.023253 349.961354,169.139746 351.740516,171.538824 L354.798753,171.538824 L353.9813,160.503068 Z" id="Shape" fill="#CBCDDA" fill-rule="nonzero"></path>
                <path d="M407.312912,177.13827 C407.312912,177.13827 399.186465,172.287336 398.215138,178.409781 C397.243811,184.532226 395.964737,194.992203 395.964737,194.992203 L393.714337,208.307082 L390.800356,234.984821 L391.209083,239.523875 C391.209083,239.523875 399.86447,236.616194 401.893678,237.638201 C403.922885,238.660208 405.577026,226.415317 405.577026,226.415317 L408.94301,213.762584 L409.452716,186.931303 L407.312912,177.13827 Z" id="Shape" fill="#4C4C78" fill-rule="nonzero"></path>
                <path d="M407.312912,177.13827 C407.312912,177.13827 399.186465,172.287336 398.215138,178.409781 C397.243811,184.532226 395.964737,194.992203 395.964737,194.992203 L393.714337,208.307082 L390.800356,234.984821 L391.209083,239.523875 C391.209083,239.523875 399.86447,236.616194 401.893678,237.638201 C403.922885,238.660208 405.577026,226.415317 405.577026,226.415317 L408.94301,213.762584 L409.452716,186.931303 L407.312912,177.13827 Z" id="Shape" fill="#000000" fill-rule="nonzero" opacity="0.1"></path>
                <path d="M402.932324,145.710358 C402.932324,145.710358 394.49813,155.201107 381.692965,157.110773 C368.887801,159.020438 353.08691,159.6394 353.08691,159.6394 C353.08691,159.6394 349.100623,166.755063 354.851647,174.331349 L387.068923,173.621223 C387.068923,173.621223 394.2,172.076217 399.725022,173.621223 L402.932324,145.710358 Z" id="Shape" fill="#4C4C78" fill-rule="nonzero"></path>
                <path d="M402.932324,145.710358 C402.932324,145.710358 394.49813,155.201107 381.692965,157.110773 C368.887801,159.020438 353.08691,159.6394 353.08691,159.6394 C353.08691,159.6394 349.100623,166.755063 354.851647,174.331349 L387.068923,173.621223 C387.068923,173.621223 394.2,172.076217 399.725022,173.621223 L402.932324,145.710358 Z" id="Shape" fill="#000000" fill-rule="nonzero" opacity="0.05"></path>
                <g id="Group" transform="translate(0.028851, 0.134348)"></g>
                <path d="M432.201959,111.533103 C429.057168,118.250519 423.589849,123.202215 415.660552,123.202215 C415.309528,123.202215 414.968121,123.202215 414.626714,123.178224 C410.92894,120.299331 408.072663,118.471234 408.072663,118.471234 C408.072663,118.471234 433.990739,88.3196309 432.153874,101.327428 C431.586465,105.309896 430.937311,108.543852 432.201959,111.533103 Z" id="Shape" fill="#000000" fill-rule="nonzero" opacity="0.1"></path>
                <path d="M435.414069,102.872434 C435.406103,113.759815 426.555498,122.579834 415.64453,122.573653 C404.733563,122.567471 395.893001,113.737429 395.897425,102.850045 C395.901848,91.9626612 404.749583,83.1397754 415.660552,83.1424221 C420.905984,83.1321868 425.93925,85.208207 429.646532,88.9110777 C433.353814,92.6139485 435.429432,97.6383525 435.414069,102.872434 Z" id="Shape" fill="#FFB9B9" fill-rule="nonzero"></path>
                <path d="M447.488335,223.354095 C447.488335,223.354095 403.422796,227.235802 401.807124,221.621961 C400.191451,216.00812 406.303117,200.807566 406.303117,200.807566 L404.312378,179.585329 L404.240249,178.774441 C404.240249,178.774441 409.760463,155.815271 409.558504,153.982376 C409.366162,152.331811 418.444702,133.06722 420.310419,129.127935 C420.531612,128.672111 420.647017,128.422607 420.647017,128.422607 L420.998041,128.624129 L421.151915,128.715294 L423.310953,129.972411 L431.836509,127.957186 L442.112378,122.588051 L443.074087,181.322261 L447.488335,223.354095 Z" id="Shape" fill="#CBCDDA" fill-rule="nonzero"></path>
                <path d="M424.585218,129.132734 C424.585218,129.132734 421.570258,128.317047 420.392164,131.32549 C419.931067,132.618735 419.384911,133.880194 418.757257,135.101638 L417.583972,142.087751 L415.43455,153.123506 L413.847729,201.944729 L414.564203,210.614994 L418.502404,203.628881 L419.218878,157.993633 L419.218878,152.317416 C419.449472,147.409815 420.560195,142.583249 422.498308,138.066897 L423.046483,136.78579 L426.470169,132.395479 L424.585218,129.132734 Z" id="Shape" fill="#000000" fill-rule="nonzero" opacity="0.1"></path>
                <path d="M423.974533,128.51857 C423.974533,128.51857 420.954764,127.702884 419.781478,130.711326 C419.319503,132.004961 418.771719,133.266467 418.141763,134.487474 L416.968477,141.478385 L414.819056,152.514141 L413.237044,201.335363 L413.953517,210.010427 L417.891719,203.000323 L418.608192,157.393864 L418.608192,151.703253 C418.843414,146.796286 419.953951,141.970529 421.887622,137.452734 L422.440606,136.171626 L425.864292,131.786113 L423.974533,128.51857 Z" id="Shape" fill="#4C4C78" fill-rule="nonzero"></path>
                <path d="M436.856634,115.918616 C436.856634,115.918616 426.426892,126.954371 422.743544,128.264268 C422.743544,128.264268 424.585218,136.632249 426.426892,138.263622 C426.426892,138.263622 437.371149,127.127105 439.308994,126.225052 L440.934283,122.256978 L436.856634,115.918616 Z" id="Shape" fill="#000000" fill-rule="nonzero" opacity="0.1"></path>
                <path d="M436.856634,115.290058 C436.856634,115.290058 426.426892,126.325813 422.743544,127.635709 C422.743544,127.635709 424.585218,136.003691 426.426892,137.635063 C426.426892,137.635063 437.371149,126.498547 439.308994,125.596494 L440.934283,121.633218 L436.856634,115.290058 Z" id="Shape" fill="#CBCDDA" fill-rule="nonzero"></path>
                <path d="M421.257703,128.422607 L421.151915,128.710496 L417.809973,137.649458 L411.832947,154.514971 C411.832947,154.514971 411.780053,154.687705 411.674265,154.994787 C410.683704,158.065606 405.360641,174.729596 404.312378,179.570934 L404.240249,178.760046 C404.240249,178.760046 409.760463,155.800877 409.558504,153.967982 C409.366162,152.317416 418.444702,133.052826 420.310419,129.113541 C420.608549,128.912018 420.839359,128.739285 420.998041,128.609735 L421.257703,128.422607 Z" id="Shape" fill="#000000" fill-rule="nonzero" opacity="0.1"></path>
                <path d="M420.647017,128.417809 L417.194479,137.649458 L411.217453,154.514971 C411.217453,154.514971 411.164559,154.687705 411.058771,154.994787 C410.010508,158.267128 404.033482,176.946344 403.552627,180.36263 C403.009261,184.114787 395.4935,204.396586 395.4935,204.396586 L391.199466,239.514279 C387.352627,236.534625 392.815138,207.846459 392.815138,207.846459 C392.815138,207.846459 398.950846,165.301223 400.403028,151.146667 C401.855209,136.992111 409.688335,132.856101 409.688335,132.856101 C413.304363,132.673772 416.564559,131.080784 418.569724,129.857255 C419.293827,129.424629 419.987836,128.94372 420.647017,128.417809 Z" id="Shape" fill="#4C4C78" fill-rule="nonzero"></path>
                <path d="M463.947996,354.358108 C463.029564,361.195479 461.803384,380.268143 461.803384,380.268143 C457.50935,386.692872 447.998041,383.223806 447.998041,383.223806 C447.998041,383.223806 446.978629,381.304544 445.444702,374.040138 C443.910775,366.775732 442.992342,341.187174 442.992342,341.187174 L439.409973,319.691442 C436.14016,311.424221 435.423687,301.631188 435.423687,301.631188 C433.981122,297.85504 430.514159,273.062976 430.514159,273.062976 C430.514159,273.062976 431.956723,295.302422 431.028673,307.038708 C430.100623,318.774994 435.726625,334.565721 435.726625,334.565721 C435.726625,334.565721 438.900267,349.36323 437.260552,353.955063 C435.620837,358.546897 441.352627,377.5188 441.352627,377.5188 C440.871772,383.03188 424.590027,380.786344 424.590027,380.786344 C424.590027,380.786344 416.930009,360.274233 415.588424,347.928581 C414.784455,340.490005 413.468615,333.115426 411.650223,325.85707 L410.323063,308.713264 L407.966874,298.579562 L405.158682,285.216701 C401.98504,275.423668 401.018522,259.047566 401.018522,259.047566 L398.561354,242.978547 C396.955298,235.032803 399.042208,225.70519 400.42707,220.825467 C401.028139,218.709481 401.508994,217.418777 401.508994,217.418777 C402.917898,218.416794 410.986643,219.587543 415.160463,220.537578 C417.444724,221.062907 419.793951,221.250439 422.132858,221.094164 C432.685212,220.258103 443.124309,218.348111 453.287444,215.393956 C453.975067,215.187636 454.340516,215.067682 454.340516,215.067682 L454.556901,216.905375 L455.066607,221.281292 L455.975423,229.049504 C455.975423,229.049504 458.73553,270.471972 457.100623,276.071419 C455.465717,281.670865 458.225824,300.542007 458.225824,300.542007 C456.691897,305.018685 461.495637,323.213287 461.495637,323.213287 C461.495637,323.213287 464.871238,347.520738 463.947996,354.358108 Z" id="Shape" fill="#000000" fill-rule="nonzero" opacity="0.1"></path>
                <path d="M463.947996,353.758339 C463.029564,360.595709 461.803384,379.668374 461.803384,379.668374 C457.50935,386.097901 447.998041,382.624037 447.998041,382.624037 C447.998041,382.624037 446.978629,380.704775 445.444702,373.445167 C443.910775,366.185559 442.992342,340.587405 442.992342,340.587405 L439.409973,319.062884 C436.164203,310.795663 435.423687,300.978639 435.423687,300.978639 C433.981122,297.202491 430.514159,272.410427 430.514159,272.410427 C430.514159,272.410427 431.956723,294.649873 431.028673,306.386159 C430.100623,318.122445 435.726625,333.932364 435.726625,333.932364 C435.726625,333.932364 438.900267,348.729873 437.260552,353.321707 C435.620837,357.913541 441.352627,376.890242 441.352627,376.890242 C440.871772,382.398524 424.590027,380.152987 424.590027,380.152987 C424.590027,380.152987 416.930009,359.664867 415.588424,347.314418 C414.784455,339.875841 413.468615,332.501262 411.650223,325.242907 L410.323063,308.103899 L407.966874,298.003783 L405.158682,284.640923 C401.98504,274.843091 401.018522,258.46699 401.018522,258.46699 L398.561354,242.39797 C396.955298,234.452226 399.042208,225.124614 400.42707,220.24489 C401.028139,218.133702 401.508994,216.842999 401.508994,216.842999 C402.917898,217.841015 410.986643,219.006967 415.160463,219.957001 C417.444359,220.484687 419.793936,220.672247 422.132858,220.513587 C432.685212,219.677527 443.124309,217.767534 453.287444,214.813379 L454.340516,214.491903 L454.556901,216.324798 L455.066607,220.705513 L455.975423,228.473725 C455.975423,228.473725 458.73553,269.891396 457.100623,275.49564 C455.465717,281.099885 458.225824,299.966228 458.225824,299.966228 C456.691897,304.438108 461.495637,322.63271 461.495637,322.63271 C461.495637,322.63271 464.871238,346.911373 463.947996,353.758339 Z" id="Shape" fill="#474463" fill-rule="nonzero"></path>
                <path d="M435.414069,102.872434 C435.420128,106.320108 434.518049,109.708829 432.798219,112.699054 C429.720748,113.241246 426.446126,112.641476 424.142832,110.611857 C422.565628,109.22519 421.546215,107.329919 420.190205,105.722537 C419.312452,104.73474 418.369475,103.806625 417.367587,102.944406 C416.713417,102.294143 415.962428,101.748708 415.141229,101.327428 C414.304219,100.905538 413.318439,100.894904 412.472484,101.298639 C411.385752,101.903206 411.02992,103.251488 410.4,104.326275 C409.926231,105.248953 409.115493,105.954882 408.135174,106.298316 C407.128994,106.619478 406.030594,106.247647 405.427961,105.381869 C404.759573,104.23511 405.250045,102.445398 404.129653,101.744867 C403.83412,101.599253 403.52885,101.474203 403.216028,101.370611 C401.773464,100.718062 401.605165,98.784406 401.480142,97.201015 C401.417631,96.423714 401.249332,95.5456517 400.59537,95.1282122 C399.941407,94.7107728 399.080677,94.9218916 398.301692,94.936286 C398.071209,94.9453381 397.840453,94.927626 397.614069,94.8835063 C401.398651,86.3708104 410.636511,81.6614804 419.767074,83.5902187 C428.897638,85.518957 435.430495,93.5596903 435.433304,102.872434 L435.414069,102.872434 Z" id="Shape" fill="#000000" fill-rule="nonzero" opacity="0.1"></path>
                <path d="M396.402315,77.2310957 C394.866137,78.3620985 393.896262,80.1016487 393.743188,82.0004614 C393.706757,82.3140687 393.731246,82.6317434 393.815316,82.9361015 C393.949535,83.259114 394.110371,83.5704619 394.296171,83.8669435 C395.305966,85.8677739 393.762422,88.2380623 393.959573,90.4692042 C394.236251,92.6490582 396.085318,94.2891204 398.287266,94.3077278 C399.066251,94.3077278 399.922173,94.0774164 400.580944,94.499654 C401.239715,94.9218916 401.403206,95.7951557 401.465717,96.5724567 C401.590739,98.1558478 401.749421,100.089504 403.196794,100.742053 C403.508696,100.848107 403.813807,100.973092 404.110419,101.116309 C405.235619,101.81684 404.745147,103.611349 405.413535,104.75331 C406.016169,105.619089 407.114568,105.99092 408.120748,105.669758 C409.099185,105.327724 409.908358,104.623376 410.380766,103.702514 C411.001069,102.62293 411.371327,101.303437 412.458059,100.674879 C413.302774,100.267428 414.289582,100.276299 415.126803,100.69887 C415.948166,101.121876 416.699135,101.668915 417.353161,102.320646 C418.35621,103.181608 419.29927,104.109804 420.175779,105.098777 C421.53179,106.701361 422.551202,108.596632 424.128406,109.983299 C427.100089,112.588697 431.648976,112.862191 435.31309,111.360369 C435.841932,111.184399 436.319208,110.881185 436.70276,110.477509 C437.037257,110.013286 437.253456,109.474779 437.33268,108.908512 C437.704743,107.102242 437.811649,105.25159 437.650045,103.414625 C437.520214,101.975179 437.226892,100.535732 437.327872,99.096286 C437.428851,97.5512803 437.981834,96.0590542 438.058771,94.5140484 C438.193411,91.7791003 436.832591,89.1832987 435.173642,87.019331 C434.173464,85.7286275 433.048264,84.533887 432.182725,83.1520185 C431.427783,81.9524798 430.879608,80.6329873 430.071772,79.4718339 C428.177204,76.7608766 424.984328,75.1534948 421.724132,74.5921107 C418.463936,74.0307266 415.112378,74.3761938 411.847373,74.9183852 C409.000712,75.3982007 406.134817,76.0795386 403.249688,76.247474 C400.7252,76.4250058 398.691184,75.5757324 396.402315,77.2310957 Z" id="Shape" fill="#472727" fill-rule="nonzero"></path>
                <path d="M420.647017,128.417809 L417.194479,137.649458 L411.217453,154.514971 C411.217453,154.514971 411.164559,154.687705 411.058771,154.994787 L411.058771,155.018777 L418.579341,129.847659 C419.299863,129.417759 419.990642,128.940068 420.647017,128.417809 Z" id="Shape" fill="#000000" fill-rule="nonzero" opacity="0.1"></path>
                <path d="M457.970971,234.068374 C457.970971,234.068374 458.326803,245.238478 455.311843,248.045398 L447.286376,232.945606 L454.018344,229.678062 L457.970971,234.068374 Z" id="Shape" fill="#FFB9B9" fill-rule="nonzero"></path>
                <path d="M476.705076,238.146805 C473.021728,242.431557 456.990027,243.199262 456.990027,243.199262 L441.121817,218.248858 C441.121817,218.248858 437.36634,215.648258 430.312199,203.935963 C423.258059,192.223668 423.488869,183.203137 423.88317,176.466528 C424.277471,169.729919 428.691719,150.369366 428.691719,150.369366 C429.379341,146.012641 439.270525,118.701546 439.270525,118.701546 C440.309172,120.76955 442.242208,122.496886 444.502226,123.921938 C450.609083,127.760461 459.134639,129.334256 459.134639,129.334256 C472.867854,131.32549 470.333749,145.480046 470.333749,145.480046 C470.333749,145.480046 470.487622,200.500484 469.641318,207.083552 C468.795013,213.666621 476.705076,238.146805 476.705076,238.146805 Z" id="Shape" fill="#000000" fill-rule="nonzero" opacity="0.1"></path>
                <polygon id="Shape" fill="#CBCDDA" fill-rule="nonzero" points="458.177738 236.208351 457.716118 240.29158 452.14301 238.252364 448.055744 232.07714 451.123598 229.678062"></polygon>
                <path d="M457.980588,220.393633 L455.066607,220.691119 L426.970258,223.493241 C422.458343,223.945429 417.904037,223.722249 413.458237,222.831096 L400.42707,220.230496 C401.028139,218.119308 401.508994,216.828604 401.508994,216.828604 C402.917898,217.826621 410.986643,218.992572 415.160463,219.942607 C417.444359,220.470292 419.793936,220.657852 422.132858,220.499193 C432.685212,219.663132 443.124309,217.75314 453.287444,214.798985 L454.556901,216.310404 L457.980588,220.393633 Z" id="Shape" fill="#000000" fill-rule="nonzero" opacity="0.1"></path>
                <g id="Group" opacity="0.1" transform="translate(401.032947, 214.477509)" fill="#000000" fill-rule="nonzero">
                    <path d="M0.781237756,2.51109573 C0.684742777,2.4634962 0.591236345,2.41006395 0.501237756,2.35109573 C0.501237756,2.35109573 0.501237756,2.38109573 0.471237756,2.42609573 L0.781237756,2.51109573 Z" id="Shape"></path>
                    <path d="M60.486732,108.150404 C60.486732,108.150404 55.6781834,89.9558016 57.216919,85.4839216 C57.216919,85.4839216 54.4568121,66.6271742 56.0965272,61.0133333 C57.7362422,55.3994925 54.9665183,13.9914187 54.9665183,13.9914187 L54.0577026,6.22320646 L53.5479964,1.84249135 L53.3364203,0.00959630911 L52.2785396,0.331072664 L51.624577,0.522998847 L51.7063224,1.23312572 L52.2160285,5.60904268 L53.1248442,13.3772549 C53.1248442,13.3772549 55.884951,54.7997232 54.2548531,60.3991696 C52.6247551,65.9986159 55.3752449,84.8697578 55.3752449,84.8697578 C53.8413179,89.346436 58.6450579,107.53624 58.6450579,107.53624 C58.6450579,107.53624 62.0110419,131.824498 61.1022262,138.65707 C60.1934105,145.489642 58.952805,164.567105 58.952805,164.567105 C55.8176313,169.264498 49.8983081,168.679123 46.9314337,168.021776 L46.9843277,168.136932 C46.9843277,168.136932 56.4956367,171.610796 60.7896705,165.181269 C60.7896705,165.181269 62.0158504,146.099008 62.9390917,139.271234 C63.862333,132.44346 60.486732,108.150404 60.486732,108.150404 Z" id="Shape"></path>
                    <path d="M36.2564559,138.863391 C37.8913624,134.271557 34.7225289,119.474048 34.7225289,119.474048 C34.7225289,119.474048 29.1013357,103.640138 30.0197685,91.9278431 C30.4044524,87.0385236 30.3804096,80.3307036 30.216919,74.1746713 C28.9138023,66.2337255 27.6635797,57.3811303 27.6635797,57.3811303 C27.6635797,57.3811303 29.1061443,79.6205767 28.1829029,91.3520646 C27.2596616,103.083552 32.8808549,118.903068 32.8808549,118.903068 C32.8808549,118.903068 36.0544969,133.695779 34.4147818,138.287612 C32.7750668,142.879446 38.4972395,161.832157 38.4972395,161.832157 C38.0885129,166.246459 27.5818344,165.670681 23.4128228,165.286828 L23.5715049,165.709066 C23.5715049,165.709066 39.8292075,167.954602 40.3389136,162.446321 C40.3485307,162.431926 34.6215494,143.455225 36.2564559,138.863391 Z" id="Shape"></path>
                </g>
                <path d="M477.315761,238.146805 C473.637222,242.431557 457.600712,243.199262 457.600712,243.199262 L441.732502,218.248858 C441.732502,218.248858 437.977026,215.648258 430.918077,203.935963 C423.859127,192.223668 424.099555,183.203137 424.489047,176.466528 C424.87854,169.729919 429.297596,150.369366 429.297596,150.369366 C429.985218,146.012641 439.876402,118.701546 439.876402,118.701546 C440.91024,120.76955 442.843277,122.496886 445.108103,123.921938 C451.21496,127.760461 459.740516,129.334256 459.740516,129.334256 C473.468923,131.32549 470.934817,145.480046 470.934817,145.480046 C470.934817,145.480046 471.088691,200.500484 470.242386,207.083552 C469.396082,213.666621 477.315761,238.146805 477.315761,238.146805 Z" id="Shape" fill="#4C4C78" fill-rule="nonzero"></path>
                <path d="M442.814426,132.241938 L439.361888,133.523045 L441.660374,135.130427 L424.493856,176.452134 C424.892965,169.734717 429.302404,150.354971 429.302404,150.354971 C429.990027,145.998247 439.881211,118.687151 439.881211,118.687151 C440.915049,120.755156 442.848085,122.482491 445.112912,123.907543 L442.814426,132.241938 Z" id="Shape" fill="#000000" fill-rule="nonzero" opacity="0.1"></path>
                <polygon id="Shape" fill="#000000" fill-rule="nonzero" opacity="0.1" points="446.954586 205.855225 464.515405 201.340161 466.8187 208.455825 448.873197 212.822145"></polygon>
                <path d="M456.999644,135.149619 C456.999644,135.149619 449.022262,142.639539 452.032413,159.332318 C455.042565,176.025098 459.855922,194.147728 459.855922,194.147728 L446.872841,230.037924 C446.872841,230.037924 455.922529,239.451903 460.370436,240.593864 L473.329475,211.896101 C473.329475,211.896101 479.388246,201.949527 477.777382,186.34113 C476.166518,170.732734 470.338557,145.475248 470.338557,145.475248 C470.338557,145.475248 470.343366,130.101961 456.999644,135.149619 Z" id="Shape" fill="#000000" fill-rule="nonzero" opacity="0.1"></path>
                <path d="M457.610329,135.149619 C457.610329,135.149619 449.628139,142.639539 452.628673,159.332318 C455.629207,176.025098 460.447373,194.147728 460.447373,194.147728 L447.464292,230.037924 C447.464292,230.037924 456.51398,239.451903 460.961888,240.593864 L473.944969,211.896101 C473.944969,211.896101 480.00374,201.949527 478.392876,186.34113 C476.782012,170.732734 470.954052,145.475248 470.954052,145.475248 C470.954052,145.475248 470.954052,130.101961 457.610329,135.149619 Z" id="Shape" fill="#4C4C78" fill-rule="nonzero"></path>
                <path d="M447.897061,230.80083 C447.897061,230.80083 458.019056,244.782653 457.254497,248.506021 C456.489938,252.229389 453.523063,250.238155 453.523063,250.238155 L449.536776,244.782653 L445.954408,234.576978 C445.954408,234.576978 446.305432,230.172272 447.897061,230.80083 Z" id="Shape" fill="#000000" fill-rule="nonzero" opacity="0.1"></path>
                <path d="M446.670882,230.80083 C446.670882,230.80083 456.768833,244.782653 456.028317,248.506021 C455.287801,252.229389 452.296883,250.238155 452.296883,250.238155 L448.305788,244.782653 L444.728228,234.576978 C444.728228,234.576978 445.079252,230.172272 446.670882,230.80083 Z" id="Shape" fill="#000000" fill-rule="nonzero" opacity="0.1"></path>
                <path d="M447.286376,230.80083 C447.286376,230.80083 457.384328,244.782653 456.639003,248.506021 C455.893678,252.229389 452.907569,250.238155 452.907569,250.238155 L448.921282,244.782653 L445.343722,234.576978 C445.343722,234.576978 445.689938,230.172272 447.286376,230.80083 Z" id="Shape" fill="#474463" fill-rule="nonzero"></path>
            </g>
        </g>
    </g>
</svg>