<?xml version="1.0" encoding="UTF-8"?>
<svg width="540px" height="478px" viewBox="0 0 540 478" version="1.1" xmlns="http://www.w3.org/2000/svg" xmlns:xlink="http://www.w3.org/1999/xlink">
    <!-- Generator: sketchtool 51 (57462) - http://www.bohemiancoding.com/sketch -->
    <title>DD6C9E44-58EE-4403-ABFA-CEDE6A5B7F43</title>
    <desc>Created with sketchtool.</desc>
    <defs></defs>
    <g id="Page-1" stroke="none" stroke-width="1" fill="none" fill-rule="evenodd">
        <g id="Франшиза|Главная" transform="translate(-735.000000, -1967.000000)">
            <rect fill="#FFFFFF" x="0" y="0" width="1440" height="5659"></rect>
            <g id="undraw_mobile_testing_reah" transform="translate(735.000000, 1967.000000)">
                <path d="M241.5799,184.993929 C220.450963,178.171673 198.111149,172.452417 175.279964,173.041851 C141.71467,173.911411 109.442149,189.51681 93.5252509,212.580585 C80.0710551,232.125268 78.2752125,255.095667 72.4021636,276.828841 C65.1661461,303.604297 51.4311672,329.014134 36.7719435,353.863718 C28.8983142,367.210594 20.5918108,380.837597 19.2229926,395.503404 C17.3452549,415.865123 29.7114156,436.221006 49.2083001,449.865517 C68.7051846,463.510028 94.6483837,470.781653 120.714425,472.479922 C134.583946,473.378662 149.07938,472.684181 161.427992,467.700258 C174.490261,462.44788 184.04274,452.836028 197.157656,447.64201 C209.313229,442.833166 223.481082,442.214553 237.116617,442.920706 C254.775462,443.811897 272.264694,446.801586 289.213603,451.826405 C308.219117,457.498973 325.879211,465.663503 344.843777,471.417775 C363.808343,477.172047 385.007476,480.428521 404.440015,475.800592 C422.685074,471.458626 437.157109,460.755447 450.207679,449.912205 C471.238548,432.482852 490.793822,413.353919 508.674933,392.719644 C520.461979,379.069297 531.441772,364.654437 536.706458,348.704716 C546.762007,318.205907 533.290262,283.67444 503.147014,262.670764 C478.174857,245.262049 444.580315,237.576069 411.681882,232.907288 C381.679025,228.606174 346.9672,228.180148 319.391949,217.226022 C293.091921,206.750446 269.166851,193.899627 241.5799,184.993929 Z" id="Shape" fill="#4285F4" fill-rule="nonzero" opacity="0.1"></path>
                <ellipse id="Oval" fill="#4285F4" fill-rule="nonzero" opacity="0.1" cx="512.44898" cy="288" rx="13.5250464" ry="2"></ellipse>
                <ellipse id="Oval" fill="#4285F4" fill-rule="nonzero" opacity="0.1" cx="459.350649" cy="292" rx="13.5250464" ry="2"></ellipse>
                <ellipse id="Oval" fill="#4285F4" fill-rule="nonzero" opacity="0.1" cx="398.237477" cy="285" rx="13.5250464" ry="2"></ellipse>
                <ellipse id="Oval" fill="#4285F4" fill-rule="nonzero" opacity="0.1" cx="480.38961" cy="307" rx="9.51762523" ry="1"></ellipse>
                <ellipse id="Oval" fill="#4285F4" fill-rule="nonzero" opacity="0.1" cx="425.28757" cy="306" rx="9.51762523" ry="1"></ellipse>
                <path d="M458.37199,292 C458.37199,292 477.02906,229.628879 455.454305,204.64756 C439.340857,185.958529 420.994546,188.212482 412.793952,190.507523 C408.497528,191.673682 404.920385,194.706266 403.010788,198.801368 C400.133386,205.111264 400.662828,215.35384 420.908224,227.310359 C454.809767,247.331806 456.921779,274.795995 456.921779,274.795995 L458.37199,292 Z" id="Shape" fill="#4285F4" fill-rule="nonzero"></path>
                <path d="M414.768089,200 C414.768089,200 470.528691,217.416118 458.023985,292" id="Shape" stroke="#565987"></path>
                <path d="M447.829314,206 C447.829314,206 439.767841,211.196485 442.316148,219" id="Shape" stroke="#565987"></path>
                <path d="M420.779221,209 C420.779221,209 425.274365,205.74532 430.797774,207.539771" id="Shape" stroke="#565987"></path>
                <path d="M442.820037,233.198552 C442.820037,233.198552 450.780756,230.028183 452.83859,234" id="Shape" stroke="#565987"></path>
                <path d="M463.858998,244.024304 C463.858998,244.024304 457.953618,243.631967 457.847866,246" id="Shape" stroke="#565987"></path>
                <path d="M458.849722,293 C458.849722,293 436.915319,248.031894 430.917992,249.015917 C428.031886,249.481727 426.738911,252.323166 426.144373,255.170428 C425.405625,258.855879 425.82325,262.681933 427.339221,266.116957 C430.450443,273.313717 438.802832,286.979409 458.849722,293 Z" id="Shape" fill="#4285F4" fill-rule="nonzero"></path>
                <path d="M431.799629,257 C431.799629,257 455.30899,290.526194 459.851577,292" id="Shape" stroke="#565987"></path>
                <path d="M429.795918,263 L435.80705,263" id="Shape" stroke="#565987"></path>
                <path d="M435.80705,275 L443.821892,275.62" id="Shape" stroke="#565987"></path>
                <path d="M441.818182,265 L440.816327,270" id="Shape" stroke="#565987"></path>
                <path d="M449.111688,278 L448.831169,282" id="Shape" stroke="#565987"></path>
                <path d="M459.851577,293 C459.851577,293 481.785979,248.031894 487.783307,249.015917 C490.669412,249.481727 491.962388,252.323166 492.556925,255.170428 C493.295674,258.855879 492.878048,262.681933 491.362078,266.116957 C488.250856,273.313717 479.898466,286.979409 459.851577,293 Z" id="Shape" fill="#4285F4" fill-rule="nonzero"></path>
                <path d="M487.903525,257 C487.903525,257 464.394164,290.526194 459.851577,292" id="Shape" stroke="#565987"></path>
                <path d="M489.907236,263 L483.896104,263" id="Shape" stroke="#565987"></path>
                <path d="M483.896104,275 L475.881262,275.62" id="Shape" stroke="#565987"></path>
                <path d="M477.884972,265 L478.886827,270" id="Shape" stroke="#565987"></path>
                <path d="M469.87013,278 L470.160668,282" id="Shape" stroke="#565987"></path>
                <path d="M421.043084,302.022423 C420.464012,301.535122 420.041249,300.88019 419.829813,300.14286 C419.636636,299.37771 419.989952,298.577937 420.677979,298.222939 C421.458741,297.917366 422.290056,298.470857 422.924776,299.035879 C423.559497,299.600901 424.278472,300.229343 425.10417,300.114033 C424.241697,299.309185 423.853668,298.098993 424.081877,296.925695 C424.116392,296.686459 424.213451,296.461304 424.362727,296.27419 C424.795235,295.801416 425.581614,296.008975 426.098377,296.377969 C427.744156,297.571434 428.20475,299.866115 428.215984,301.930175 C428.296314,301.163648 428.296314,300.390489 428.215984,299.623963 C428.150802,298.848683 428.464294,298.090662 429.052915,297.600262 C429.442993,297.380858 429.88343,297.273314 430.327973,297.288923 C431.071205,297.18041 431.824413,297.400405 432.400643,297.894304 C433.024129,298.586167 432.861237,299.745039 432.316388,300.506089 C431.703567,301.202838 430.979922,301.787705 430.176314,302.235748 C429.560879,302.609391 429.036463,303.122042 428.642875,303.734786 C428.598705,303.820027 428.561142,303.908706 428.530535,304 L423.890899,304 C422.859273,303.475319 421.901355,302.810123 421.043084,302.022423 Z" id="Shape" fill="#4285F4" fill-rule="nonzero"></path>
                <path d="M506.200082,286.012755 C505.618802,285.528119 505.195632,284.872978 504.987169,284.134952 C504.794749,283.372143 505.148133,282.57513 505.835085,282.222589 C506.615617,281.917302 507.446687,282.470274 508.08122,283.029007 C508.715753,283.58774 509.440132,284.227114 510.265586,284.106152 C509.399374,283.304575 509.008896,282.09418 509.23798,280.920799 C509.271968,280.682278 509.37128,280.458558 509.524362,280.275665 C509.956743,279.803334 510.737275,280.004938 511.253886,280.379347 C512.89918,281.565934 513.359637,283.835425 513.370868,285.926353 C513.453623,285.160681 513.453623,284.387972 513.370868,283.622301 C513.305706,282.847747 513.619105,282.090435 514.207553,281.600495 C514.599395,281.386918 515.038706,281.281702 515.482235,281.295208 C516.221366,281.175876 516.975041,281.38539 517.554294,281.871221 C518.183212,282.556676 518.020367,283.714463 517.470064,284.4748 C516.861411,285.184569 516.137578,285.780906 515.330621,286.2374 C514.715367,286.610694 514.191105,287.122865 513.797634,287.735034 C513.751459,287.819182 513.713827,287.907969 513.685327,288 L509.047058,288 C508.016015,287.470615 507.058552,286.802287 506.200082,286.012755 Z" id="Shape" fill="#4285F4" fill-rule="nonzero"></path>
                <path d="M478.146112,302.022423 C477.568286,301.535122 477.146433,300.88019 476.935452,300.14286 C476.74269,299.37771 477.095246,298.577937 477.781793,298.222939 C478.560875,297.917366 479.390401,298.470857 480.023755,299.035879 C480.65711,299.600901 481.374538,300.229343 482.198459,300.114033 C481.336761,299.309757 480.947564,298.099955 481.172761,296.925695 C481.211681,296.686756 481.31017,296.462282 481.458611,296.27419 C481.890189,295.801416 482.674876,296.008975 483.190528,296.377969 C484.832765,297.571434 485.292367,299.866115 485.303577,301.930175 C485.393055,301.16468 485.402451,300.39152 485.331602,299.623963 C485.266561,298.848683 485.579378,298.090662 486.166733,297.600262 C486.555971,297.380858 486.99546,297.273314 487.439047,297.288923 C488.180679,297.18041 488.932267,297.400405 489.507257,297.894304 C490.129402,298.586167 489.966859,299.745039 489.423183,300.506089 C488.811681,301.202838 488.089593,301.787705 487.287714,302.235748 C486.673603,302.609391 486.150316,303.122042 485.757575,303.734786 C485.713499,303.820027 485.676017,303.908706 485.645477,304 L481.015824,304 C479.976587,303.477565 479.011184,302.812287 478.146112,302.022423 Z" id="Shape" fill="#4285F4" fill-rule="nonzero"></path>
                <path d="M397.229807,266 C397.229807,266 395.222266,268.405941 398.155866,272.035644 C401.089465,275.665347 403.498514,278.736634 402.527123,281 C402.527123,281 398.104058,274.257426 394.503437,274.162376 C390.902816,274.067327 393.266533,270.057426 397.229807,266 Z" id="Shape" fill="#4285F4" fill-rule="nonzero"></path>
                <path d="M397.28213,266 C397.102574,266.231706 396.961322,266.485979 396.862854,266.754754 C393.312107,270.540412 391.418812,274.076466 394.831984,274.16561 C398.015864,274.248811 401.83521,279.40729 402.745826,280.702853 C402.745826,280.803883 402.680314,280.904913 402.641007,281 C402.641007,281 398.166541,274.254754 394.524078,274.159667 C390.881614,274.06458 393.2728,270.059033 397.28213,266 Z" id="Shape" fill="#000000" fill-rule="nonzero" opacity="0.1"></path>
                <path d="M394.730983,269.522158 C394.730983,270.341272 394.89128,271 395.091651,271 C395.292022,271 395.442301,270.341272 395.442301,269.522158 C395.442301,268.703043 395.241929,269.092552 395.051577,269.092552 C394.861224,269.092552 394.730983,268.708771 394.730983,269.522158 Z" id="Shape" fill="#FFD037" fill-rule="nonzero"></path>
                <path d="M392.201545,270.500169 C392.982193,270.856316 393.669163,271.06794 393.72537,270.980194 C393.781577,270.892447 393.200775,270.531139 392.420127,270.180153 C391.639479,269.829168 391.945493,270.082084 391.883041,270.180153 C391.820589,270.278223 391.420897,270.149184 392.201545,270.500169 Z" id="Shape" fill="#FFD037" fill-rule="nonzero"></path>
                <path d="M408.260082,266 C408.260082,266 410.268408,268.405941 407.33366,272.035644 C404.398912,275.665347 401.988921,278.736634 402.96717,281 C402.96717,281 407.385488,274.257426 410.987519,274.162376 C414.589549,274.067327 412.224907,270.057426 408.260082,266 Z" id="Shape" fill="#4285F4" fill-rule="nonzero"></path>
                <path d="M408.209521,266 C408.389077,266.231706 408.530329,266.485979 408.628797,266.754754 C412.179544,270.540412 414.072839,274.076466 410.659667,274.16561 C407.475787,274.248811 403.656442,279.40729 402.745826,280.702853 C402.776041,280.803923 402.813238,280.903168 402.857196,281 C402.857196,281 407.32511,274.254754 410.967573,274.159667 C414.610037,274.06458 412.218851,270.059033 408.209521,266 Z" id="Shape" fill="#000000" fill-rule="nonzero" opacity="0.1"></path>
                <path d="M410.47013,269.522158 C410.47013,270.341272 410.309833,271 410.109462,271 C409.909091,271 409.758813,270.341272 409.758813,269.522158 C409.758813,268.703043 409.959184,269.092552 410.149536,269.092552 C410.339889,269.092552 410.47013,268.708771 410.47013,269.522158 Z" id="Shape" fill="#FFD037" fill-rule="nonzero"></path>
                <path d="M411.286396,270.500169 C410.505748,270.856316 409.818777,271.06794 409.762571,270.980194 C409.706364,270.892447 410.287166,270.531139 411.067814,270.180153 C411.848462,269.829168 411.542448,270.082084 411.6049,270.180153 C411.667352,270.278223 412.067044,270.149184 411.286396,270.500169 Z" id="Shape" fill="#FFD037" fill-rule="nonzero"></path>
                <path d="M408.756957,280.858599 C408.756957,280.858599 403.919417,280.699669 402.459767,279.562706 C401.000116,278.425742 395.010515,277.068722 394.630222,278.890308 C394.24993,280.711894 387.359931,287.949338 392.818242,287.998239 C398.276553,288.047141 405.524474,287.069108 406.978532,286.097188 C408.43259,285.125268 408.756957,280.858599 408.756957,280.858599 Z" id="Shape" fill="#A8A8A8" fill-rule="nonzero"></path>
                <path d="M392.745599,286.469557 C398.215213,286.510643 405.459513,285.688926 406.92069,284.872344 C408.040365,284.256056 408.47144,282.027147 408.600203,281 L408.756957,281 C408.756957,281 408.454645,284.595014 406.993469,285.401325 C405.532292,286.207635 398.29359,287.039624 392.818378,286.998538 C391.239635,286.998538 390.696593,286.484965 390.724585,285.709469 C390.965315,286.17682 391.569939,286.464422 392.745599,286.469557 Z" id="Shape" fill="#000000" fill-rule="nonzero" opacity="0.2"></path>
                <ellipse id="Oval" fill="#4285F4" fill-rule="nonzero" opacity="0.1" cx="75.6400742" cy="35.5" rx="12.5231911" ry="12.5"></ellipse>
                <ellipse id="Oval" fill="#4285F4" fill-rule="nonzero" opacity="0.1" cx="294.044527" cy="14.5" rx="12.5231911" ry="12.5"></ellipse>
                <ellipse id="Oval" fill="#4285F4" fill-rule="nonzero" opacity="0.1" cx="495.41744" cy="64.5" rx="12.5231911" ry="12.5"></ellipse>
                <ellipse id="Oval" fill="#4285F4" fill-rule="nonzero" opacity="0.1" cx="21.038961" cy="150" rx="21.038961" ry="21"></ellipse>
                <ellipse id="Oval" fill="#4285F4" fill-rule="nonzero" opacity="0.1" cx="42.0779221" cy="255" rx="21.038961" ry="21"></ellipse>
                <ellipse id="Oval" fill="#4285F4" fill-rule="nonzero" opacity="0.1" cx="438.812616" cy="164" rx="21.038961" ry="21"></ellipse>
                <path d="M261.569903,202.840602 C260.837012,202.911242 260.092669,202.875922 259.365503,202.993657 C258.144705,203.243457 256.979749,203.724539 255.930076,204.412359 C250.719677,207.461685 245.80129,211.653036 243.642696,217.398484 C243.465099,217.751659 243.408612,218.156114 243.482376,218.546396 C243.610348,218.868136 243.819944,219.14868 244.089301,219.358765 L246.116204,221.254292 C246.372422,221.527729 246.677677,221.747616 247.015141,221.901832 C247.562054,222.048813 248.138602,222.030417 248.675597,221.848852 C254.246716,220.536111 260.167103,219.023222 264.077765,214.737682 C265.932896,212.706761 267.644884,209.910564 270.376049,209.834037 C271.521192,209.834037 272.5919,210.287315 273.719866,210.42271 C274.847831,210.558104 276.204825,210.063619 276.473934,208.933367 C276.561258,208.371252 276.497914,207.795297 276.290711,207.267422 L274.607351,201.504314 C274.149294,199.926671 269.528644,199.844256 267.988427,200.126819 C265.640885,200.544777 264.060588,202.605133 261.569903,202.840602 Z" id="Shape" fill="#65617D" fill-rule="nonzero"></path>
                <path d="M282.725605,234.355865 C282.644875,236.286152 282.800569,238.239487 282.483414,240.152488 C282.20447,241.660964 281.721425,243.124502 281.04757,244.502836 C280.010422,246.719217 278.692571,248.79325 277.126389,250.673992 C275.667479,252.402607 273.920247,254.027505 271.757831,254.707427 C269.595415,255.387349 266.937085,254.897575 265.587737,253.076767 C264.486346,251.59592 264.434448,249.619537 264.515179,247.769918 C264.711238,243.223661 265.426277,238.61402 267.467597,234.546012 C268.344097,232.817397 269.45702,231.169451 270.350819,229.423549 C272.219146,225.79922 273.285938,221.50073 276.50938,219 C278.531672,219.933698 280.694317,220.527486 282.910131,220.757425 C283.769331,220.849618 286.225836,220.907239 286.514158,222.00779 C286.710217,222.751095 285.095613,224.831195 284.784225,225.562976 C283.553433,228.339397 282.855135,231.322004 282.725605,234.355865 Z" id="Shape" fill="#65617D" fill-rule="nonzero"></path>
                <path d="M260.317266,151.699697 C261.007529,153.506433 261.881863,155.277743 262.042924,157.202567 C262.157968,158.38344 262.042924,159.564314 262.042924,160.745187 C262.139774,162.363092 262.40198,163.966072 262.825223,165.527725 L266.029194,178.989682 C266.506626,181.003071 266.984058,183.0696 266.736714,185.124319 C266.5699,186.494133 266.086716,187.822615 266.092468,189.198333 C266.153639,190.24153 266.315493,191.275925 266.575653,192.286317 C267.182269,195.407845 267.016135,198.635716 266.092468,201.674261 C265.997842,201.903194 265.964098,202.153802 265.994681,202.400498 C266.075212,202.784282 266.4376,203.020456 266.765475,203.203492 C270.214881,205.140769 273.975101,206.426667 277.867208,207 C281.380085,198.422001 283.834217,189.426788 285.172494,180.223695 C285.989305,174.649972 286.386207,169.005397 287.433106,163.473005 C287.45699,163.153423 287.589298,162.852557 287.806998,162.622776 C288.198148,162.286227 288.790623,162.498784 289.250799,162.72315 C295.1292,165.624706 300.784518,168.980156 306.168,172.760574 C310.0004,167.666602 311.431243,161.088834 310.073739,154.805394 C309.397608,152.129384 308.432952,149.539083 307.197642,147.082481 C305.881538,144.094273 304.24139,141.26791 302.308278,138.656949 C298.04015,133.165888 291.781764,129.658694 285.339307,127.279234 C281.422064,125.826759 277.389776,124.752165 273.363241,123.653952 C271.108381,123.033994 267.32919,121.0147 265.137604,122.585262 C262.836727,124.220772 261.306643,128.277072 260.363284,130.851376 C259.1988,134.04436 258.564916,137.415386 258.488069,140.823852 C258.393342,144.537462 259.014999,148.233642 260.317266,151.699697 Z" id="Shape" fill="#3F3D56" fill-rule="nonzero"></path>
                <path d="M306.567718,167.376344 C305.381945,168.699715 306.380491,170.812465 306.153548,172.600176 C306.005141,173.4074 305.723083,174.182771 305.319536,174.892858 L299.889944,185.799057 C298.982393,187.435718 298.302573,189.193956 297.870158,191.022889 C297.126922,194.958175 298.653109,199.381019 296.701406,202.85777 C296.071641,203.977991 295.095789,204.941498 294.834806,206.206826 C294.641905,207.129703 294.834806,208.09321 294.738355,209.027695 C294.607864,210.1247 294.034835,211.111424 293.717115,212.167798 C293.469285,213.182854 293.292952,214.214791 293.189475,215.255663 C292.50115,219.694291 290.229118,223.714382 286.812399,226.53914 C284.854602,228.236603 282.340687,229.111854 279.77719,228.988536 C277.246785,228.767974 274.7334,227.009285 274.217106,224.46702 C274.041226,223.602185 274.075267,222.638679 273.547627,221.936364 C272.798717,220.932227 271.221469,220.891597 270.500928,219.864244 L273.292317,215.162795 C274.160371,213.705927 275.045445,212.185211 275.187284,210.484564 C275.357491,208.400835 274.375966,206.322911 274.727726,204.2624 C275.028425,202.492101 276.270933,201.01782 276.645388,199.264934 C277.110619,197.088338 276.180156,194.888524 275.67521,192.717732 C274.438375,187.372011 275.822722,181.799924 277.201396,176.465811 C279.033955,169.407834 280.911901,162.239577 284.622407,156 C292.026396,160.080393 298.834662,163.998267 306.567718,167.376344 Z" id="Shape" fill="#3F3D56" fill-rule="nonzero"></path>
                <path d="M307.151837,56.4629333 C307.607074,57.7068046 307.361946,59.0856243 307.274401,60.4057707 C307.070128,63.3394295 307.688783,66.2730883 307.54871,69.2478183 C307.408637,72.2225483 306.498163,75.06233 305.867835,77.9549175 C304.076069,86.2102333 304.507961,94.8117209 302.885449,103.102241 C300.883574,113.370046 295.765076,122.933774 294.755384,133.35413 C294.434383,136.663297 294.475238,140.207157 292.671799,143 C281.9551,138.257707 271.824829,132.2757 262.486085,125.175089 C264.540488,109.855523 266.571545,94.4596818 266.297236,79.0051674 C266.164282,77.1421105 266.293965,75.2695129 266.682436,73.4429503 C267.169351,71.908678 267.868804,70.4509995 268.760185,69.11287 C271.018861,65.4223272 273.505155,61.8784674 275.985613,58.3404749 C277.573106,56.0756904 279.288999,53.6994268 281.821984,52.6374423 C284.35497,51.5754578 287.354865,52.0507105 290.115468,52.5552998 C293.438309,53.1655009 296.757259,53.7757019 300.072318,54.3859029 C302.14423,54.7672786 306.264708,54.0397312 307.151837,56.4629333 Z" id="Shape" fill="#4285F4" fill-rule="nonzero"></path>
                <path d="M226.632571,114.954703 C225.337029,113.563619 223.92408,112.304493 222.411874,111.193499 C224.383384,108.618475 223.994635,104.893035 224.477794,101.596766 C224.873586,99.455646 225.474718,97.3642252 226.271591,95.3559099 C226.471519,94.7896431 226.75475,94.1637692 227.304551,94.0147516 C227.642122,93.9699221 227.984638,94.027751 228.293083,94.1816513 C229.959148,94.8134859 233.43567,94.7777217 234.729647,95.9340981 C236.290194,97.3408241 234.862932,100.285412 234.274256,102.043819 C233.857739,103.224038 227.46005,115.848808 226.632571,114.954703 Z" id="Shape" fill="#BE6F72" fill-rule="nonzero"></path>
                <path d="M231.748378,221.541012 C232.615894,222.946708 233.182673,224.517268 233.412891,226.153426 C233.55112,227.790833 232.952126,229.583909 231.558313,230.448736 C230.1645,231.313564 228.165933,231.025288 226.507181,230.506392 C219.391363,228.189742 213.599065,222.947163 210.582003,216.092598 C210.057883,214.881839 209.602878,213.596128 208.67559,212.662115 C207.986798,212.056023 207.222011,211.542408 206.400564,211.134252 C204.137058,209.854308 201.954185,208.170776 200.905946,205.783852 C199.857706,203.396928 200.32999,200.208597 202.501343,198.790279 C203.868364,197.999694 205.495339,197.791957 207.016837,198.213727 C208.518095,198.640534 209.955425,199.266866 211.290429,200.07599 C213.525137,201.292514 216.255168,202.341838 218.201898,203.961949 C219.929766,205.386031 221.479087,207.311714 222.953534,208.98948 C224.642136,210.919817 226.224516,212.940738 227.69365,215.043273 C228.165933,215.660184 232.145788,220.981757 231.748378,221.541012 Z" id="Shape" fill="#65617D" fill-rule="nonzero"></path>
                <path d="M189.966045,211.733818 C189.760263,214.646033 189.222514,217.52804 188.362364,220.328574 C187.872182,221.902832 187.224658,223.540755 185.863042,224.54203 C184.711242,225.256149 183.406115,225.713101 182.044465,225.878992 C181.569493,226.002156 181.073299,226.031692 180.586023,225.965808 C179.750899,225.797964 179.157839,225.109226 178.643451,224.455214 C176.622208,221.897045 174.655429,219.194182 173.80215,216.091967 C172.591824,211.594913 173.80215,206.773747 175.902064,202.571867 C176.656888,200.877953 177.757591,199.345143 179.139685,198.063237 C180.847322,196.721097 182.89903,195.839891 185.082382,195.510855 C187.315432,195.082564 190.056819,194.168105 190.220213,196.766789 C190.459207,201.756025 190.374321,206.754636 189.966045,211.733818 Z" id="Shape" fill="#65617D" fill-rule="nonzero"></path>
                <path d="M221.360415,102 C225.385559,104.093812 229.854052,106.756531 230.694082,111.23154 C231.213267,113.964639 230.215731,116.762253 230.379071,119.542272 C230.524909,121.987985 231.545779,124.351588 231.417441,126.791436 C231.281173,127.944348 231.086469,129.089516 230.834087,130.222472 C230.489908,132.386664 230.694082,134.591912 230.606579,136.779564 C230.414072,141.70618 228.774847,146.445115 227.981485,151.307216 C227.419941,154.778939 227.288658,158.307264 227.590638,161.811466 C227.783145,164.075363 228.173992,166.32753 228.173992,168.603158 C228.174039,170.241996 228.039409,171.878036 227.771477,173.494584 C226.989569,178.573431 225.414546,183.496206 223.104644,188.080886 C220.298711,193.63506 220.695391,200.802113 220.992902,207.024898 C221.122886,207.8825 221.013844,208.759542 220.677891,209.558587 C219.942865,210.901676 218.111132,211.095222 216.594412,210.966191 C210.969798,210.449468 205.75348,207.793671 202.010557,203.541077 C201.464576,203.006421 201.094134,202.316791 200.948853,201.564565 C200.820515,200.309451 201.823884,199.277208 202.547243,198.2391 C205.008998,194.720088 204.384809,189.951827 204.676486,185.629308 C204.889407,182.484545 205.637218,179.399792 206.887398,176.509204 C207.610757,174.837673 208.514956,173.189603 208.678296,171.371447 C208.829968,169.676456 208.316616,167.999061 207.809098,166.380315 L206.059035,160.796817 C203.346438,152.122454 200.616341,143.395305 196.509528,135.295714 C193.815141,137.058233 191.886585,139.783262 191.113501,142.920239 C189.585114,148.445087 191.761025,154.615087 189.67845,159.928794 C189.333651,160.665553 189.046926,161.428395 188.82092,162.210287 C188.698312,162.885179 188.65135,163.571765 188.680915,164.257178 C188.734973,169.974062 189.081554,175.684364 189.719285,181.365439 C189.750736,182.225877 189.991062,183.065517 190.41931,183.811152 C190.763489,184.309679 191.265174,184.679175 191.632687,185.154242 C192.653556,186.485601 192.46105,188.350677 192.216041,190.010478 L191.049333,197.857873 C191.028597,198.255763 190.897224,198.639818 190.670152,198.966362 C190.395048,199.234242 190.051974,199.420907 189.67845,199.505944 C185.971607,200.663239 182.063948,201.022941 178.209707,200.561647 C177.072167,200.426752 176.03963,199.658434 175.088762,199.013282 C174.989592,197.840278 176.442144,197.060231 176.494646,195.893092 C176.438289,195.201574 176.118545,194.558636 175.602114,194.098396 C173.432037,191.635088 170.841944,189.019289 170.865278,185.729014 C170.865278,184.866856 171.069452,184.004698 171.040285,183.14254 C170.964448,180.931428 169.447728,179.037027 168.916875,176.908025 C168.263519,174.274631 169.132716,171.541532 169.465228,168.849489 C169.920245,165.224907 169.383559,161.553405 168.881874,157.934688 L166.927638,144.656284 C166.700473,142.595305 166.294467,140.558248 165.714261,138.568395 C164.978592,136.60921 164.115302,134.700899 163.130002,132.855866 C161.263269,129.043603 159.729047,125.07885 158.200659,121.125828 C157.714967,120.051789 157.409439,118.904334 157.29646,117.729981 C157.208957,115.71828 158.241494,113.818014 159.524873,112.269649 C161.928628,109.392295 165.209395,107.392597 168.85854,106.58058 C169.468409,106.409553 170.10948,106.383451 170.731107,106.504335 C171.253876,106.678731 171.744595,106.938293 172.183659,107.272652 C181.325226,113.284024 192.739109,114.644932 203.025594,110.950019 C203.608948,111.395761 204.688153,111.202215 205.35901,110.885504 C207.231577,110.023346 208.759965,108.586417 210.405024,107.366493 C213.467633,105.032215 217.597781,102.815238 221.360415,102 Z" id="Shape" fill="#3F3D56" fill-rule="nonzero"></path>
                <path d="M101.413621,250.90986 C101.727892,251.7841 102.20089,252.597516 102.810535,253.312138 C104.953259,256.005429 107.942418,258.156639 109.321574,261.300714 C109.611611,261.974036 109.8247,262.681596 110.091061,263.366331 C110.901125,265.432962 112.221752,267.277983 113.938493,268.741501 C115.248004,269.789387 116.670898,270.698108 118.182507,271.45191 C120.798761,272.827086 123.628104,274.071022 126.599506,273.996842 C127.196959,273.984464 127.791715,273.915661 128.375244,273.791422 C129.30012,273.606573 130.191661,273.291246 131.021094,272.855617 C132.932972,271.839927 134.57257,269.854195 134.193746,267.782872 C134.11729,267.38801 133.987961,267.004393 133.809002,266.641647 C133.495054,266.064475 133.132786,265.512956 132.725802,264.992577 C131.72547,263.657343 130.695542,262.287873 129.233517,261.431954 C127.588,260.461913 125.516305,260.222256 124.036524,259.02397 C123.452646,258.514576 122.948247,257.926466 122.538985,257.277895 C121.197767,255.290578 120.198373,253.107444 119.579421,250.812856 C119.129568,249.101018 118.827692,247.223703 117.531403,245.968355 C116.235114,244.713008 114.453457,244.427702 112.725072,244.142395 C112.140986,244.026276 111.545678,243.970801 110.949334,243.976918 C110.102899,244.005448 109.226868,244.239399 108.433705,243.857089 C107.640542,243.474779 107.374181,242.932697 106.415283,243.006876 C105.652037,243.106093 104.932581,243.408417 104.337669,243.879914 C102.088401,245.483335 100.596781,248.336397 101.413621,250.90986 Z" id="Shape" fill="#3F3D56" fill-rule="nonzero"></path>
                <path d="M121.771233,254.808516 C122.149439,256.780919 122.731295,258.881324 124.255758,260.167168 C125.227458,261.005003 126.583183,261.528649 127.066124,262.709764 C127.549064,263.890878 126.926478,265.374544 126.123517,266.456747 C125.098271,267.825169 123.827651,268.991167 122.376363,269.895361 C121.142828,270.657558 119.670732,271.239388 118.256822,270.901926 C117.093109,270.628466 116.173777,269.790632 115.306811,268.981888 C113.316863,267.137488 111.280367,265.223268 110.163203,262.750492 C108.999491,260.143895 108.941305,257.124198 107.672859,254.558329 C106.933901,253.063027 105.793463,251.75391 105.345434,250.14806 C105.144596,249.567594 105.144596,248.936489 105.345434,248.356024 C105.787923,247.50895 106.670728,246.984245 107.62631,247.000361 C108.563169,247.031634 109.48708,247.228621 110.355215,247.582191 C112.982074,248.518552 115.670929,249.270931 118.402286,249.833872 C119.490357,250.037512 120.147854,250.031694 120.72971,251.084806 C121.267254,252.264758 121.618601,253.520913 121.771233,254.808516 Z" id="Shape" fill="#FBBEBE" fill-rule="nonzero"></path>
                <path d="M128.291109,272.188152 C127.846481,272.818256 127.531316,273.519037 127.361478,274.255218 C127.219935,274.827634 127.197543,275.419811 127.295505,276 C128.232645,275.819995 129.136009,275.512929 129.97644,275.088713 C131.91367,274.099633 133.57501,272.165926 133.191163,270.148869 C133.113694,269.764353 132.982649,269.390786 132.801318,269.037543 C132.218804,268.916625 131.610876,269.092369 131.205951,269.498744 C130.089125,270.249141 129.105658,271.156546 128.291109,272.188152 Z" id="Shape" fill="#FBBEBE" fill-rule="nonzero"></path>
                <path d="M107.464759,224.647345 C107.211897,225.186023 107.136665,225.78979 107.249719,226.373137 C107.517066,227.523665 108.708506,228.185219 109.783708,228.708709 L120.006841,233.655979 C120.716048,233.980753 121.40676,234.343712 122.075877,234.743228 C123.819448,235.801714 125.191056,237.2974 126.678903,238.666529 C128.166749,240.035657 129.823141,241.318496 131.793375,241.801718 C133.760215,242.228323 135.815819,241.961785 137.605276,241.048122 C138.569595,240.572605 139.464907,239.970852 140.267126,239.259051 C140.961548,238.656085 141.603148,237.996009 142.185053,237.285895 C142.684901,236.7635 143.042822,236.124228 143.225384,235.427792 C143.417176,234.375059 142.888293,233.339584 142.272232,232.470935 C141.917484,231.970157 141.52915,231.493533 141.109852,231.044281 C137.233314,226.804585 130.880907,224.607077 125.41772,223.744181 C123.244069,223.399022 121.180845,222.593653 119.08856,221.937852 C116.996276,221.282051 114.781942,220.787324 112.608291,221.092214 C110.43464,221.397104 108.295861,222.633921 107.464759,224.647345 Z" id="Shape" fill="#3F3D56" fill-rule="nonzero"></path>
                <path d="M107.464759,224.647345 C107.211897,225.186023 107.136665,225.78979 107.249719,226.373137 C107.517066,227.523665 108.708506,228.185219 109.783708,228.708709 L120.006841,233.655979 C120.716048,233.980753 121.40676,234.343712 122.075877,234.743228 C123.819448,235.801714 125.191056,237.2974 126.678903,238.666529 C128.166749,240.035657 129.823141,241.318496 131.793375,241.801718 C133.760215,242.228323 135.815819,241.961785 137.605276,241.048122 C138.569595,240.572605 139.464907,239.970852 140.267126,239.259051 C140.961548,238.656085 141.603148,237.996009 142.185053,237.285895 C142.684901,236.7635 143.042822,236.124228 143.225384,235.427792 C143.417176,234.375059 142.888293,233.339584 142.272232,232.470935 C141.917484,231.970157 141.52915,231.493533 141.109852,231.044281 C137.233314,226.804585 130.880907,224.607077 125.41772,223.744181 C123.244069,223.399022 121.180845,222.593653 119.08856,221.937852 C116.996276,221.282051 114.781942,220.787324 112.608291,221.092214 C110.43464,221.397104 108.295861,222.633921 107.464759,224.647345 Z" id="Shape" fill="#000000" fill-rule="nonzero" opacity="0.1"></path>
                <path d="M133.915648,229.65727 C134.676789,230.501916 135.303078,231.456324 135.772907,232.487569 C136.195616,233.163055 136.346255,233.970713 136.195012,234.750695 C135.973718,235.275725 135.618955,235.735404 135.165077,236.085217 L134.180167,236.98602 C133.882691,237.291524 133.5367,237.546965 133.155861,237.742249 C132.617083,237.941869 132.041789,238.027127 131.467443,237.992471 C130.14485,237.992471 128.720951,237.992471 127.645992,237.20844 C126.177069,236.163064 125.91255,234.000027 126.582289,232.337435 C127.252028,230.674843 128.653414,229.418168 130.066057,228.294946 C131.214181,227.377462 133.110836,228.817634 133.915648,229.65727 Z" id="Shape" fill="#FBBEBE" fill-rule="nonzero"></path>
                <path d="M139.351081,234.655462 C139.167688,235.585 139.25613,236.546973 139.606035,237.428571 C139.855324,238.268908 140.098947,239.109244 140.34257,239.966387 C140.34257,239.966387 140.34257,239.966387 140.34257,240 C141.019518,239.412798 141.644974,238.76998 142.212236,238.078431 C142.699506,237.569694 143.04842,236.947135 143.226388,236.268908 C143.413355,235.243697 142.89778,234.235294 142.297221,233.389356 C141.9514,232.90167 141.572837,232.437507 141.16409,232 C140.897804,232.341737 140.665513,232.677871 140.47288,232.896359 C139.977113,233.397503 139.594732,233.997119 139.351081,234.655462 Z" id="Shape" fill="#FBBEBE" fill-rule="nonzero"></path>
                <path d="M112.253573,191.777385 C111.093969,196.848566 111.586941,202.152905 112.203155,207.329008 C112.673719,211.269374 113.200302,215.349634 112.079912,219.144277 C111.665368,220.56071 111.00994,222.000459 111.262028,223.463524 C111.738193,226.220615 114.931304,227.281482 117.575424,227.800258 C118.338234,228.002093 119.130915,228.051541 119.911436,227.945982 C120.694441,227.724123 121.421114,227.326166 122.040176,226.780193 C125.798615,223.937252 128.653037,219.988641 130.235827,215.442897 C131.238575,212.400189 131.557886,209.165125 131.865994,205.965035 C132.381373,200.579091 132.902354,195.129028 132.146091,189.778058 C131.922013,188.204243 131.585896,186.647915 131.445847,185.062442 C131.269516,182.304859 131.416244,179.535195 131.882799,176.814486 C132.847407,170.074508 134.308212,163.421595 136.252319,156.914472 C130.917917,157.651462 125.495613,156.63231 120.746126,154 C121.664846,154.512947 120.611679,162.690955 120.499641,163.839257 C120.159748,167.262606 119.56604,170.653494 118.723823,173.98162 C117.160879,180.201103 113.670866,185.598705 112.253573,191.777385 Z" id="Shape" fill="#3F3D56" fill-rule="nonzero"></path>
                <path d="M112.253573,191.777385 C111.093969,196.848566 111.586941,202.152905 112.203155,207.329008 C112.673719,211.269374 113.200302,215.349634 112.079912,219.144277 C111.665368,220.56071 111.00994,222.000459 111.262028,223.463524 C111.738193,226.220615 114.931304,227.281482 117.575424,227.800258 C118.338234,228.002093 119.130915,228.051541 119.911436,227.945982 C120.694441,227.724123 121.421114,227.326166 122.040176,226.780193 C125.798615,223.937252 128.653037,219.988641 130.235827,215.442897 C131.238575,212.400189 131.557886,209.165125 131.865994,205.965035 C132.381373,200.579091 132.902354,195.129028 132.146091,189.778058 C131.922013,188.204243 131.585896,186.647915 131.445847,185.062442 C131.269516,182.304859 131.416244,179.535195 131.882799,176.814486 C132.847407,170.074508 134.308212,163.421595 136.252319,156.914472 C130.917917,157.651462 125.495613,156.63231 120.746126,154 C121.664846,154.512947 120.611679,162.690955 120.499641,163.839257 C120.159748,167.262606 119.56604,170.653494 118.723823,173.98162 C117.160879,180.201103 113.670866,185.598705 112.253573,191.777385 Z" id="Shape" fill="#000000" fill-rule="nonzero" opacity="0.1"></path>
                <path d="M144.59734,161.627513 C146.947764,168.436764 146.430671,175.874652 145.414112,183.007034 C144.397554,190.139416 142.899158,197.271797 143.339863,204.457055 C143.510269,207.277107 143.968601,210.173536 143.145953,212.870211 C142.688773,214.185876 142.083575,215.445351 141.342002,216.624405 L122.591491,249.043255 C121.620294,250.75242 119.852801,251.856924 117.890642,251.980809 C115.886906,252.121812 113.918425,251.4638 112.049838,250.729411 C110.808231,250.318005 109.654377,249.678407 108.647598,248.843501 C107.634615,247.999907 107.099018,246.713804 107.213839,245.400687 C108.054116,239.772333 109.317469,234.008852 110.251763,228.362872 C110.887221,224.532008 112.27306,220.864322 114.329749,217.570298 C115.781136,215.220254 117.567459,213.11109 118.81906,210.667045 C122.415209,203.663916 121.169484,195.121508 118.395984,187.754121 C115.622483,180.386735 111.491612,173.548109 109.288089,166.01622 C108.634832,163.920321 108.261408,161.74731 108.177513,159.5536 C108.122661,154.978368 109.890008,150.569172 113.089901,147.298123 C113.552281,146.774553 114.135094,146.371288 114.788082,146.123102 C115.551424,145.94605 116.34668,145.960176 117.10325,146.164227 C127.545011,148.19114 141.148092,151.569327 144.59734,161.627513 Z" id="Shape" fill="#3F3D56" fill-rule="nonzero"></path>
                <path d="M311.506262,60.9638471 C311.846187,63.5277969 310.920185,66.1210155 309.601512,68.3395931 C304.613997,76.6519417 293.115166,80.3281071 284.224378,76.4587674 C280.561397,74.8606891 277.46105,72.2264941 274.425171,69.6274217 C273.405397,68.7493567 272.344597,67.8303154 271.82885,66.5893168 C270.92043,64.3941544 272.016394,61.7775207 273.803929,60.2087112 C275.591464,58.6399018 277.906468,57.8672046 280.209751,57.1706063 C287.811169,54.8056846 309.695284,47.3479859 311.506262,60.9638471 Z" id="Shape" fill="#FBBEBE" fill-rule="nonzero"></path>
                <path d="M305.641916,52.0557603 C312.391583,57.633499 322.216034,62.947029 329.862989,67.080427 C332.463411,68.4895399 335.349594,70.074792 336.286889,72.9517309 C336.789828,74.4900125 336.624086,76.1633342 336.458345,77.783814 C336.138293,80.9014764 335.806811,84.0661092 334.635192,86.9606621 C333.257826,90.3484044 330.823145,93.1431451 328.868542,96.2197083 C325.439414,101.609565 323.427659,107.962316 319.192687,112.723944 C322.050293,122.476179 325.176515,132.216673 326.193823,142.338801 C326.250045,142.617181 326.220069,142.906656 326.108094,143.166654 C325.991141,143.33759 325.838931,143.479925 325.662308,143.583517 L318.552583,148.374501 C317.777333,148.839248 317.08373,149.434691 316.500821,150.135892 C315.243474,151.815085 315.409216,154.175349 314.631947,156.130494 C313.770912,158.058847 312.181644,159.543096 310.231233,160.240406 C308.288396,160.928222 306.21873,161.153088 304.178822,160.897992 C301.581979,160.730011 299.081333,159.825597 296.954793,158.285262 C295.14307,156.876149 293.851432,154.89752 292.605515,152.948247 C291.682411,151.618765 290.915087,150.182124 290.31943,148.668066 C289.559307,146.507426 289.513585,144.153034 289.542161,141.851482 C289.561034,137.471883 289.9685,133.10317 290.759502,128.799574 C291.090984,127.091024 291.502479,125.40596 291.765379,123.685668 C292.291179,120.221599 292.188305,116.687074 292.576939,113.205391 C293.107914,109.28931 293.958672,105.426066 295.120209,101.656536 C295.755775,99.3217097 296.252016,96.9492053 296.606165,94.552258 C297.274844,90.3366618 298.606489,86.2678482 299.938134,82.2225198 L302.224219,75.2885099 C302.710012,73.7913274 303.20152,72.3000162 303.778757,70.8380615 C304.853217,68.1079052 306.236299,65.4482045 306.602072,62.5360378 C307.007852,59.3596623 303.670168,55.5902852 304.796065,52.6076628 C304.887508,52.2788698 305.384732,51.8443933 305.641916,52.0557603 Z" id="Shape" fill="#3F3D56" fill-rule="nonzero"></path>
                <path d="M336.08465,71 C337.706863,71.7204065 338.602887,73.4378555 339.182667,75.0976719 C340.489612,78.8383849 340.80408,82.8456055 340.09626,86.7394404 C339.86747,87.7183134 339.710892,88.7121832 339.627751,89.7132782 C339.639898,90.8736571 339.755516,92.0307475 339.973276,93.1712292 C340.558913,97.5801168 339.973276,102.058163 340.166536,106.507394 C340.365652,111.509896 341.472505,116.794798 339.340789,121.342003 C337.923548,124.361947 335.241333,126.609616 332.594256,128.649807 C322.739191,136.208457 311.865551,142.384133 300.284692,147 C302.281712,144.637067 302.316851,141.081141 300.987456,138.29749 C299.658061,135.513839 297.186675,133.421779 294.545455,131.796542 C297.907282,131.061244 301.163061,129.917091 304.237738,128.39046 C310.375209,125.32441 315.634224,120.834837 320.82882,116.39137 C321.59511,115.849169 322.191602,115.106424 322.550591,114.247441 C323.077664,112.518465 321.625285,110.875938 320.61799,109.360203 C317.566824,104.749602 318.275445,98.7270039 319.552132,93.3902328 C320.975229,87.5405323 323.065951,81.7138849 326.878444,77.0110715 C329.256129,74.0718131 332.360002,71.8126185 336.08465,71 Z" id="Shape" fill="#3F3D56" fill-rule="nonzero"></path>
                <path d="M300.670257,150.14678 C300.140225,150.983464 299.45202,151.715837 298.64172,152.305507 C296.872648,153.44769 294.443121,153.013661 292.467657,152.20271 C290.631813,151.448608 288.937991,150.404543 287.455285,149.113104 C286.817873,148.456783 286.065133,147.915351 285.23215,147.514047 C283.68716,146.942955 281.528892,147.371274 280.662046,145.994943 C280.561181,145.850399 280.511515,145.678041 280.520521,145.503804 C280.573593,145.006954 281.24584,144.869892 281.764768,144.841337 C284.172229,144.687193 286.508912,143.988935 288.587491,142.802539 C287.923563,142.337866 287.355504,141.75673 286.912769,141.089264 C286.729155,140.856318 286.6297,140.571376 286.629718,140.278314 C286.701768,139.959843 286.882497,139.674164 287.142749,139.467363 C291.019688,135.923958 296.724366,135.003166 301.578381,137.137309 C302.041644,137.318834 302.448109,137.614068 302.757762,137.993947 C302.97602,138.344202 303.122201,138.732066 303.188237,139.13613 C303.571536,140.735187 304.957309,143.133773 304.456072,144.749962 C303.901762,146.606011 301.80836,148.576277 300.670257,150.14678 Z" id="Shape" fill="#FBBEBE" fill-rule="nonzero"></path>
                <path d="M259.027419,142.365479 C266.19111,133.898147 269.392889,122.755681 272.364323,111.978541 L274.489245,104.318463 L279.614394,85.8694605 C280.368769,83.1471868 281.123145,80.424913 281.624143,77.649608 C282.482174,72.8591132 282.562794,67.9625559 282.510967,63.0954604 C282.437798,61.0778187 281.986189,59.0933895 281.180731,57.2502319 C280.679734,55.9774805 280.437873,54.622236 280.029012,53.3082381 C279.508826,51.4763238 278.730948,49.731589 277.719816,48.1288471 C277.438321,47.6523426 277.086763,47.223057 276.67751,46.8560957 C275.968857,46.363292 275.166101,46.0299102 274.322245,45.8779627 C272.491521,45.3209745 270.594356,45.0255258 268.684582,45 C266.772728,45.0707084 264.803289,45.7483307 263.57095,47.2332073 C262.632299,48.3704342 262.200404,49.843526 261.457546,51.1221698 C261.111752,51.6457014 260.798258,52.1908249 260.518895,52.7543555 C260.202284,53.610469 260.027133,54.5145323 260.000621,55.4294904 C259.701174,59.1416818 259.445877,62.8578016 259.234728,66.5778495 C259.136832,68.268959 259.050453,69.9718532 259.113798,71.668855 C259.165625,72.9887453 259.303831,74.3027433 259.442038,75.6167412 L260.806825,88.4856717 C261.123547,91.5084562 260.898962,94.3367925 261.163857,97.3654694 C261.80882,104.677897 260.271275,111.990325 258.69342,119.167229 C257.939045,122.57891 257.161634,126.037729 255.549228,129.12533 C254.126855,131.859388 251.996175,134.634693 252.560517,137.681047 C252.75631,138.741674 253.280342,139.731591 253.360962,140.804002 C253.32154,141.468133 253.385687,142.134451 253.550996,142.777945 C254.033192,143.675873 255.027071,144.152205 256.009915,143.956419 C257.150175,143.751564 258.202578,143.196699 259.027419,142.365479 Z" id="Shape" fill="#3F3D56" fill-rule="nonzero"></path>
                <path d="M260.031549,108.216935 C260.24495,109.896052 260.082091,111.598571 260.160713,113.28939 C260.336954,115.46705 260.713059,117.622109 261.283872,119.72503 C261.845451,122.065262 262.564273,124.686323 264.546649,125.985152 C265.043847,126.254274 265.519036,126.565396 265.967445,126.915395 C266.419652,127.286952 266.603163,127.911793 266.427941,128.483351 L264.883597,128.214224 C265.361748,128.59506 265.588235,129.227583 265.466318,129.841626 C265.344402,130.455669 264.895635,130.942678 264.311699,131.094638 C263.727763,131.246599 263.111888,131.036646 262.727131,130.554457 C262.785689,131.081591 262.737868,131.615657 262.586736,132.122413 C262.426537,132.631745 261.97777,132.982392 261.463577,133 C261.172438,132.952893 260.896757,132.832387 260.660518,132.648965 L256.628377,130.045456 C255.420213,129.367889 254.415403,128.355492 253.725011,127.120165 L251.961651,124.35284 C251.572959,123.819459 251.264312,123.227647 251.046276,122.597665 C250.389228,120.257433 252.225593,117.659774 251.270908,115.454105 C250.984147,114.910524 250.647498,114.397174 250.265681,113.921252 C248.227147,110.995961 248.35631,107.017566 248.580942,103.390205 C248.653947,102.167433 248.867347,100.716489 249.928733,100.184086 C250.771102,99.7569935 251.781945,100.137281 252.562541,100.669684 C253.343137,101.202087 254.03388,101.904157 254.921175,102.220089 C255.482755,102.419008 256.100492,102.442411 256.662072,102.653032 C257.448283,102.93971 258.178337,104.057171 258.706222,104.718287 C259.452646,105.732853 259.911724,106.944744 260.031549,108.216935 Z" id="Shape" fill="#FBBEBE" fill-rule="nonzero"></path>
                <path d="M207.533259,55.8039483 C207.049744,56.9212601 206.371011,57.942192 205.529316,58.8182283 C204.671645,59.7059533 203.446323,60.1312648 202.227364,59.9643424 C200.963513,59.7121973 200.035551,58.6635029 199.198677,57.6721142 C197.012557,55.087627 194.797972,52.4687563 193.329173,49.4086318 C191.086122,44.7496781 190.727462,39.4317088 190.40296,34.2684649 C190.323258,32.9389725 190.254941,31.5292522 190.886867,30.3659464 C191.689583,28.8817287 193.391796,28.1825991 194.96307,27.5923504 L203.644926,24.3259253 C204.177027,24.0722574 204.76594,23.9635778 205.352832,24.0107439 C206.713464,24.2399667 207.21445,25.890371 207.584496,27.2255939 C208.246818,29.6249807 209.347252,31.8792298 210.829518,33.8730555 C212.776531,36.4861956 217.143078,40.0047658 214.649535,43.2654603 C211.637927,47.1737093 209.725072,51.3914091 207.533259,55.8039483 Z" id="Shape" fill="#BE6F72" fill-rule="nonzero"></path>
                <path d="M219.675916,39.4771306 C223.586354,43.1332921 224.909346,48.8271232 224.72202,54.1541738 C224.534694,59.4812244 223.047791,64.674371 222.198968,69.9373805 C221.350145,75.2003901 221.180381,80.8185363 223.480983,85.6565462 C224.271266,87.3157915 225.348393,88.8527766 225.898664,90.6051724 C226.360036,92.3371666 226.5165,94.1355113 226.361126,95.9205792 C226.351639,97.8023873 225.990358,99.6660317 225.295707,101.416465 C224.048816,104.164408 221.484786,106.073996 219.031982,107.82057 C214.026855,111.418512 208.922212,115.074674 203.044847,116.955152 C199.064161,118.230151 194.849318,118.649328 190.681306,118.876383 C187.859289,119.100054 185.021236,119.020024 182.216496,118.637685 C177.310254,117.824522 172.80154,115.450739 169.367078,111.872621 C168.768673,111.295882 168.275474,110.620214 167.909445,109.875705 C167.551815,108.906863 167.379095,107.880162 167.400151,106.84831 C167.259656,103.025254 167.283072,99.2021976 167.470398,95.3791413 C167.577884,91.7357567 168.082321,88.1147068 168.974863,84.5794923 C170.092968,80.504153 172.030625,76.6849779 173.499966,72.7144331 C178.616317,58.9106769 178.10117,43.203155 185.207864,30.3134392 C186.741599,27.5305646 189.305628,24.6021423 192.466761,25.0446077 C193.074859,25.0809933 193.647161,25.3427284 194.070743,25.7781688 C194.433981,26.308058 194.637114,26.9302824 194.656138,27.571318 C195.411297,33.8356966 196.48257,40.2630888 199.450522,45.9161666 C200.621312,48.1343155 202.377497,51.5110252 205.076167,52.1048603 C207.774838,52.6986955 209.367112,50.1370537 210.813037,48.3206167 C213.353811,44.9896484 216.335014,42.0149687 219.675916,39.4771306 Z" id="Shape" fill="#E3E8F4" fill-rule="nonzero"></path>
                <path d="M238.749117,31.6133269 C239.563013,32.0347953 240.322858,32.5457121 241.013273,33.1357358 C242.80548,34.7611647 243.462623,37.2508183 243.450675,39.6088349 C243.438727,41.9668516 242.853273,44.2905282 242.494831,46.6256515 C241.533013,52.9213271 242.351454,59.3658096 242.733792,65.741612 C242.850316,66.7710163 242.785695,67.8118564 242.542623,68.8207696 C242.249896,69.782291 241.646519,70.6293455 241.258208,71.5622502 C240.117169,74.3209008 240.977429,77.4687386 240.308338,80.3647493 C239.591455,83.4496304 237.13613,86.2540677 237.59613,89.3847354 C237.781325,90.6095305 238.39665,91.7370288 238.659507,92.9503772 C238.922364,94.1637255 238.695351,95.628901 237.602104,96.2813619 C236.508857,96.9338228 234.919767,96.4587855 233.617429,96.819356 C233.088355,97.0064785 232.573369,97.2283065 232.07613,97.4832636 C230.062884,98.3532115 227.661325,98.0555977 225.677949,97.105523 C223.734064,96.0890768 221.98628,94.761137 220.510417,93.1793108 C218.234313,90.9472077 216.029898,88.5033409 215.032235,85.5329267 C213.574573,81.2289739 214.870937,76.5415572 216.454053,72.2719445 C218.03717,68.0023318 219.924962,63.6869324 219.644183,59.1483226 C219.488858,56.607159 218.652495,54.1632922 218.150677,51.6679153 C217.529513,48.210525 217.307137,44.6981714 217.48756,41.1942005 C217.565222,38.6301435 217.744443,35.9859598 218.89743,33.6680065 C220.567623,30.5260654 223.790461,28.4130428 227.452235,28.0591319 C231.634053,27.624158 235.218468,29.6673908 238.749117,31.6133269 Z" id="Shape" fill="#3F3D56" fill-rule="nonzero"></path>
                <path d="M228.4912,86.6221798 C228.532095,88.4547769 228.865778,90.2696058 229.479989,92 C230.521127,89.6633114 230.643271,87.0402638 230.782865,84.4973967 C231.364506,75.7405415 233.336269,67.4819507 235.435993,59 C233.906277,60.1454356 233.045448,63.0090246 232.312581,64.7271781 C229.404087,71.6557471 228.098712,79.1350249 228.4912,86.6221798 Z" id="Shape" fill="#000000" fill-rule="nonzero" opacity="0.1"></path>
                <path d="M189.55952,25.3538706 C186.723968,26.0902373 184.264921,27.7485119 181.517613,28.8327683 C178.664412,29.9924009 175.593545,30.4852448 172.599155,31.1984188 C165.669114,32.8566934 158.709658,35.9355179 154.526925,41.6351121 C151.444292,45.8271839 150.167705,51.0049434 148.055749,55.7536388 C146.290882,59.7369767 143.937727,63.4709936 142.637609,67.6166801 C140.937455,73.0263661 141.13159,78.8245291 141.549275,84.4719398 C141.890483,89.1104701 142.408177,93.8011839 144.543665,97.9120814 C145.661413,100.068998 147.20273,101.999786 148.320479,104.156703 C149.661777,106.748482 150.367723,109.606976 151.485472,112.274131 C152.603221,114.941286 154.244546,117.608441 156.8389,119 L161.133408,116.524184 C167.539872,112.830755 173.946336,109.131527 180.152783,105.119198 C185.565039,101.6403 191.024359,97.6453659 193.906974,91.9283773 C196.460147,86.8781774 196.713111,80.9756475 196.054228,75.368824 C195.395344,69.7620004 193.889325,64.2769383 193.112784,58.6875092 C192.123547,51.6525229 192.272468,44.5074277 193.554001,37.5184164 C194.142289,34.3642158 195.707137,31.1056482 196.030696,27.9630439 C196.389552,24.6059075 192.012684,24.7160726 189.55952,25.3538706 Z" id="Shape" fill="#3F3D56" fill-rule="nonzero"></path>
                <path d="M161.707782,118.355548 C164.903836,121.474532 169.500665,122.382516 173.497162,124.251548 C176.466534,125.673328 179.140236,127.67565 181.37009,130.147547 C182.599342,131.539003 183.788571,133.431619 183.171087,135.200418 C182.650799,136.721586 181.05563,137.499858 179.591963,138.065874 C177.773814,138.773394 175.74412,139.39837 173.931688,138.684954 C172.868243,138.266338 172.010625,137.429106 171.032942,136.83361 C168.63733,135.365506 165.618517,135.35961 163.160014,134.00353 C159.695239,132.093227 157.96857,127.889379 154.709624,125.619419 C152.925779,124.381259 150.461559,123.367148 150.2786,121.156148 C150.270198,120.356614 150.434242,119.56515 150.758866,118.83902 C151.416373,117.034844 152.536993,110.838149 155.041236,111.003237 C157.768459,111.186013 159.678087,116.86386 161.707782,118.355548 Z" id="Shape" fill="#FBBEBE" fill-rule="nonzero"></path>
                <path d="M144.362431,90.1919687 C145.415018,93.9644285 147.859552,97.1807658 150.396115,100.173507 C152.219449,102.323466 154.221091,104.66262 154.284361,107.477632 C154.34188,110.137847 152.558808,112.585932 150.258071,113.944706 C147.957333,115.303479 145.248215,115.739204 142.585111,115.911201 C140.454696,116.11565 138.305012,115.966473 136.223572,115.469743 C130.966387,114.047904 127.319718,109.478526 123.184142,105.946862 C120.728105,103.854236 117.96722,102.031071 116.086367,99.410989 C114.205514,96.7909067 113.41176,93.0299134 115.263854,90.3868982 C115.932195,89.5301555 116.705065,88.7597877 117.564591,88.0936096 C120.705686,85.3789218 123.384378,82.1745107 125.496383,78.6051279 C126.347656,77.1660892 127.164418,75.606653 128.596627,74.7409365 C130.650035,73.4968274 133.28438,74.0644164 135.608125,74.6721379 C138.133184,75.3314583 145.248215,76.6214332 145.742873,79.8320373 C145.944188,81.1506782 144.304912,83.2031716 144.057583,84.6192773 C143.74279,86.476359 143.846928,88.3800137 144.362431,90.1919687 Z" id="Shape" fill="#FBBEBE" fill-rule="nonzero"></path>
                <path d="M157.905969,98.0133647 C158.665804,99.4078273 159.291239,100.873157 159.773611,102.389059 C161.542651,108.614878 158.38158,115.028648 156.873546,121.324948 C154.947902,129.389147 155.765721,137.823371 155.672919,146.122506 C155.632318,149.916732 155.232109,154.09273 152.535048,156.72402 C151.839032,157.393589 151.003813,157.957437 150.534003,158.803208 C150.243641,159.422939 150.027502,160.075606 149.890188,160.747309 C149.055901,163.687274 146.94113,166.080298 144.147931,167.245105 C141.354733,168.409912 138.189101,168.218899 135.552264,166.726445 C133.354015,165.487155 131.445772,163.337485 128.928515,163.272877 C128.136999,163.311574 127.348607,163.399844 126.567862,163.537181 C124.062205,163.789738 121.60875,162.849991 119.259697,161.927865 C118.699033,161.748569 118.175956,161.465804 117.716862,161.09384 C117.293452,160.700321 117.020846,160.171714 116.632237,159.748828 C115.199605,158.1865 112.75195,158.456677 110.687103,158.022044 C107.542159,157.309394 105.08612,154.822323 104.382361,151.637642 C103.964751,149.617188 104.318559,147.526252 104.666567,145.488177 L106.221002,136.407878 C106.873315,133.077239 107.324628,129.709449 107.572433,126.323224 C107.762996,122.496503 107.439091,118.661308 106.609611,114.922926 C105.925196,111.86875 104.904373,108.879182 104.533164,105.766272 C103.886338,100.187379 105.335687,94.5662353 108.593256,90.0196471 C109.399474,88.8978248 110.455098,87.7760026 111.823929,87.6702811 C112.931754,87.5704331 113.969977,88.1695214 114.932799,88.745116 C123.296588,93.7570967 131.718378,98.6653137 140.198169,103.469767 C142.518222,104.791285 144.890475,106.118677 147.477334,106.770626 C148.254551,106.970322 149.368176,106.888095 149.478379,106.08931 C149.492205,105.784831 149.413235,105.483412 149.252174,105.225918 C147.802141,102.400806 145.702494,99.9750852 144.032056,97.2850612 C142.361618,94.5950372 141.073989,91.4116464 141.567,88.2869897 C142.239815,83.9641563 146.207105,81.1038033 149.449378,84.4927637 C153.08606,88.3398504 155.522115,93.2852657 157.905969,98.0133647 Z" id="Shape" fill="#F86D70" fill-rule="nonzero"></path>
                <path d="M132.703893,153.156361 C139.496541,153.57431 146.439751,154.020123 152.728596,156.52782 C154.749597,157.330283 156.892205,158.366798 159.017441,157.870831 C160.075233,157.56105 161.059147,157.053541 161.912858,156.377358 C164.531104,154.529892 167.004666,152.499686 169.313544,150.303158 C169.08191,149.082746 167.362033,148.915566 166.076468,148.926711 C162.941854,148.944696 159.849641,148.229454 157.06593,146.842536 C156.150918,146.312959 155.18041,145.877741 154.170514,145.544106 C151.419868,144.814088 148.617104,146.207253 145.854876,146.887118 C141.766548,147.890196 137.458168,147.305067 133.282977,146.714365 L122.014014,145.115011 C120.965873,144.970122 119.784543,144.853096 118.950663,145.477234 C118.393242,145.984099 118.011171,146.643583 117.856196,147.366366 C116.477977,151.824495 117.138132,152.197863 121.724473,152.476496 L132.703893,153.156361 Z" id="Shape" fill="#FBBEBE" fill-rule="nonzero"></path>
                <ellipse id="Oval" fill="#000000" fill-rule="nonzero" opacity="0.1" cx="286.530612" cy="52" rx="18.0333952" ry="18"></ellipse>
                <ellipse id="Oval" fill="#FBBEBE" fill-rule="nonzero" cx="286.530612" cy="51" rx="18.0333952" ry="18"></ellipse>
                <path d="M301.689123,28.1747864 C303.200296,29.0792552 304.782306,30.052418 305.608729,31.5751314 C306.053118,32.6089018 306.391228,33.6826754 306.618145,34.7808439 C307.651174,38.2155358 310.401982,41.1979933 310.567267,44.7757974 C310.75026,48.6970707 307.716107,52.1031402 304.280549,54.1582309 C303.496418,54.7187043 302.550986,55.0269858 301.576965,55.0398019 C300.579355,54.9768325 299.717514,54.3700369 298.802545,53.9807718 C294.92426,52.3092218 290.58554,54.4272818 286.477037,55.4004445 C282.2076,56.4003209 277.727888,56.1452471 273.608451,54.6677102 C271.394818,53.8662821 269.246118,52.6641399 267.858908,50.8036818 C266.471698,48.9432237 265.975845,46.3385823 267.156449,44.3407364 C267.746751,43.3217778 268.726652,42.4001355 268.661719,41.2380647 C268.626301,40.5396774 268.201284,39.9099838 268.071417,39.2230455 C267.88252,38.1296685 268.472823,37.064914 269.074931,36.1318227 C271.806911,31.8684779 275.259184,28.0813315 279.287157,24.9290025 C280.467762,23.9901867 281.831359,23.0742688 283.377951,23.005575 C286.48294,22.8739118 289.151106,25.1179105 292.34464,25.1293595 C295.969095,25.1408085 298.572328,26.3086037 301.689123,28.1747864 Z" id="Shape" fill="#3F3D56" fill-rule="nonzero"></path>
                <ellipse id="Oval" fill="#000000" fill-rule="nonzero" opacity="0.1" cx="218.90538" cy="29.5" rx="19.5361781" ry="19.5"></ellipse>
                <ellipse id="Oval" fill="#BE6F72" fill-rule="nonzero" cx="218.90538" cy="29.5" rx="19.5361781" ry="19.5"></ellipse>
                <path d="M229.012626,38.8414161 C231.728942,40.3387661 235.08062,40.1838679 238.111702,39.501168 C239.830761,39.1832123 241.460621,38.506349 242.891486,37.5161752 C244.331382,36.5035288 245.218917,34.8960785 245.298865,33.1560755 C245.298865,31.2341894 244.016484,29.5016234 243.859101,27.5797373 C243.666744,25.1587346 245.26972,22.921315 245.438761,20.4888382 C245.607802,18.0563615 244.38954,15.8648377 243.200423,13.7765794 C241.154443,10.190971 239.026856,6.55946687 235.914167,3.81719359 C232.801479,1.07492032 228.488015,-0.674856563 224.407712,0.248796152 C222.402534,0.702017049 220.543082,1.76335712 218.497101,1.96988817 C216.678452,2.13626039 214.883118,1.5969849 213.070298,1.36750596 C211.257477,1.13802703 209.223154,1.28145136 207.923286,2.51490064 C207.212148,3.20333744 206.757485,4.17288594 205.923938,4.6777396 C205.358707,4.93433877 204.77404,5.14724975 204.175236,5.31454365 C202.070966,6.14640479 201.10918,8.48135295 200.363067,10.5810852 L195.361781,24.6883028 C197.034705,25.8356974 199.051541,26.357762 200.881849,27.2412559 C202.712156,28.1247498 204.490003,29.5360453 204.863059,31.5095641 C205.14868,33.0069142 204.606583,34.7280062 205.492591,35.9786664 C206.302823,37.126061 207.952431,37.3211181 209.351393,37.126061 C210.750354,36.9310039 212.155144,36.4548352 213.554105,36.6671032 C217.051508,37.1891677 218.351376,39.300374 221.586474,36.6671032 C224.821571,34.0338324 226.004859,37.1776938 229.012626,38.8414161 Z" id="Shape" fill="#3F3D56" fill-rule="nonzero"></path>
                <ellipse id="Oval" fill="#000000" fill-rule="nonzero" opacity="0.1" cx="137.755102" cy="71.5" rx="17.5324675" ry="17.5"></ellipse>
                <ellipse id="Oval" fill="#FBBEBE" fill-rule="nonzero" cx="137.755102" cy="70.5" rx="17.5324675" ry="17.5"></ellipse>
                <path d="M150.911562,53.5545335 C146.738795,50.3464384 142.050279,47.8754961 137.047927,46.2481184 C133.846379,45.2060175 130.364404,44.4917686 127.116119,45.4519065 C122.71107,46.7106238 116.81625,48.5899181 114.087924,52.2841072 C112.744209,54.0990019 111.382967,55.9665872 110.734478,58.1386065 C109.437501,62.5060629 111.283649,67.1603899 111.160962,71.7151903 C111.014906,77.0252212 108.204788,81.8727466 105.137612,86.2050761 C102.070436,90.5374056 101.451159,96.7431748 99.6400644,101.742917 C99.0207869,103.458286 98.8221508,105.841067 100.417082,106.701678 C101.81922,107.480327 103.513469,106.50848 104.810447,105.57176 L112.609837,99.9221679 C113.216066,99.4227924 113.915008,99.0487102 114.666306,98.8215221 C116.272921,98.4468341 117.844484,99.453808 119.188199,100.408091 L135.546471,112 C136.201103,110.660854 136.228923,109.099638 135.62242,107.737925 C137.158929,108.212139 138.274797,109.494274 139.624355,110.407576 C140.973912,111.320878 143.024538,111.619458 144.006034,110.343177 C144.987531,109.066896 144.245566,107.351528 143.153067,106.321136 C142.060569,105.290744 140.623378,104.676021 139.554248,103.616357 C137.433515,101.502883 137.217352,98.1658182 135.879479,95.4961665 C134.921351,93.6227267 133.373158,92.0537209 132.695458,90.0573366 C131.591275,86.7963805 133.034308,83.2836809 134.44813,80.1456693 C136.136537,76.4222078 138.04695,72.4470027 141.639927,70.503309 C142.849271,69.8476051 144.187144,69.4612081 145.425699,68.8640492 C148.510401,67.3828609 152.360438,63.8877248 153.867735,60.7555676 C155.188082,57.9746805 153.154982,55.2874653 150.911562,53.5545335 Z" id="Shape" fill="#3F3D56" fill-rule="nonzero"></path>
                <path d="M125.001328,111.569575 C126.65592,112.63317 128.523823,113.313173 130.149589,114.423264 C131.775356,115.533355 133.199343,117.218833 133.245464,119.19491 C133.291585,121.083808 132.092438,122.740226 130.939412,124.239721 L116.895556,142.820663 L124.055847,144.732809 C122.902821,146.336919 122.608799,148.38274 122.009226,150.265826 C121.409652,152.148912 120.279687,154.107554 118.365664,154.601573 C116.636125,155.049097 114.825874,154.130802 113.038684,154.235418 C111.718469,154.316785 110.473201,154.944481 109.152987,154.996789 C107.452273,155.060721 105.872628,154.159862 104.454406,153.206695 C101.295115,151.073693 98.1588841,148.016585 98.1819446,144.180669 C98.2567816,142.883322 98.5149743,141.603393 98.9487068,140.379626 C101.018388,133.573782 103.163017,126.605202 107.452273,120.94432 C109.758325,117.922084 112.577474,115.370619 115.396622,112.83659 C116.037613,112.185982 116.791974,111.659942 117.621962,111.284788 C119.466804,110.587348 121.478834,111.447523 123.387092,112.005475 C125.29535,112.563426 127.699409,112.644794 128.800549,111" id="Shape" fill="#000000" fill-rule="nonzero" opacity="0.1"></path>
                <path d="M123.993473,110.610018 C125.648046,111.667381 127.515927,112.352925 129.141675,113.462576 C130.767423,114.572227 132.191394,116.257037 132.24328,118.226522 C132.295165,120.196008 131.090267,121.776244 129.937254,123.275144 L115.887793,141.831297 L123.048003,143.742685 C121.89499,145.34616 121.600971,147.385362 121.001405,149.273511 C120.401838,151.161661 119.271886,153.113717 117.357884,153.607541 C115.628365,154.054887 113.818135,153.136956 112.030965,153.24153 C110.710765,153.317056 109.465512,153.950312 108.145312,153.99679 C106.444618,154.060697 104.86499,153.160194 103.446785,152.207405 C100.28753,150.081058 97.1513348,147.019351 97.1801601,143.190765 C97.2492206,141.893711 97.50558,140.613734 97.9411485,139.391227 C100.010807,132.582269 102.15541,125.616449 106.444618,119.96362 C108.750644,116.936771 111.575525,114.386317 114.388876,111.830053 C115.032901,111.183373 115.786547,110.658033 116.614191,110.278865 C118.459012,109.581702 120.471019,110.441537 122.379255,111.005077 C124.287491,111.568617 126.691523,111.644143 127.79265,110" id="Shape" fill="#F86D70" fill-rule="nonzero"></path>
                <g id="Group" opacity="0.1" transform="translate(266.493506, 36.000000)" fill="#000000" fill-rule="nonzero">
                    <path d="M2.5056928,11.346 C3.86874329,13.296 5.9858217,14.562 8.15510204,15.396 C12.201552,16.9507808 16.6050311,17.2182394 20.7995704,16.164 C24.8597207,15.144 29.0996778,12.924 32.9104189,14.676 C33.8094522,15.09 34.6504834,15.72 35.6307197,15.792 C36.5897431,15.7740936 37.5198359,15.4491915 38.2930183,14.862 C40.6421053,13.362 42.7997852,11.178 43.8322234,8.604 C43.8322234,8.736 43.8322234,8.868 43.8670247,9.006 C44.0468314,13.116 41.0655209,16.686 37.6897959,18.84 C36.9193211,19.4274484 35.9903552,19.7505671 35.0332975,19.764 C34.0530612,19.698 33.2062299,19.062 32.3071966,18.654 C28.4964554,16.902 24.2332975,19.122 20.196348,20.142 C16.0012674,21.1899993 11.5995733,20.9226491 7.5518797,19.374 C5.37679914,18.534 3.26552095,17.274 1.90247046,15.324 C0.539419979,13.374 0.0522019334,10.644 1.2122449,8.55 L1.29924812,8.4 C1.48702954,9.46184054 1.89896811,10.4677474 2.5056928,11.346 Z" id="Shape"></path>
                    <path d="M3.27712137,1.32 C3.32352309,2.244 2.78410311,3.018 2.267884,3.804 C2.19595744,3.60912622 2.13969783,3.40844537 2.09967777,3.204 C1.92567132,2.13 2.4244898,1.086 2.9755102,0.144 C3.13357267,0.517745243 3.23529206,0.914355215 3.27712137,1.32 Z" id="Shape"></path>
                </g>
                <path d="M201.559875,8.49500999 L196.698847,22.6911548 C198.324855,23.846252 200.28513,24.3775967 202.064108,25.2612461 C203.843086,26.1448955 205.571074,27.5714405 205.933668,29.5582078 C206.211279,31.0656096 205.684384,32.7982555 206.545545,34.0630869 C207.333055,35.2181841 208.936401,35.4087752 210.296129,35.2181841 C211.655857,35.0275931 213.021251,34.5424523 214.380979,34.7561452 C217.7803,35.2817145 219.043714,37.4070934 222.188085,34.7850227 C225.332457,32.162952 226.471229,35.275939 229.394645,36.95083 C232.034784,38.4640073 235.292466,38.3080692 238.238543,37.6150109 C239.908941,37.2966659 241.493061,36.6172417 242.884281,35.6224682 C243.082097,35.457592 243.271213,35.2821568 243.450835,35.0968989 C243.017061,36.043443 242.363698,36.8680669 241.547215,37.4995011 C240.156478,38.496322 238.572326,39.1777292 236.901477,39.4978193 C233.9554,40.1851022 230.66939,40.3410403 228.057579,38.8336384 C225.134163,37.1587475 223.93307,34.1035153 220.851019,36.6678311 C217.768969,39.232147 216.431903,37.1645229 213.043913,36.6678311 C211.684185,36.4541382 210.324457,36.9335035 208.959063,37.12987 C207.593669,37.3262366 205.995989,37.12987 205.208479,35.9747728 C204.347318,34.7157168 204.874213,32.983071 204.596602,31.4756691 C204.234008,29.4889019 202.50602,28.0623569 200.727042,27.1787075 C198.948064,26.2950581 196.987789,25.7579379 195.361781,24.6086162 L200.245472,10.372043 C200.812025,8.80688624 201.435234,7.11466882 202.568341,6 C202.17575,6.8067843 201.838779,7.64047304 201.559875,8.49500999 Z" id="Shape" fill="#000000" fill-rule="nonzero" opacity="0.1"></path>
                <g id="Group" opacity="0.1" transform="translate(99.183673, 51.000000)" fill="#000000" fill-rule="nonzero">
                    <path d="M38.5699522,57.0262857 C39.8751059,57.6072381 41.5227888,57.694381 42.349583,56.608 C43.2767738,55.4460952 42.5917157,53.6451429 41.4873548,52.6168571 C40.3829938,51.5885714 38.9301982,50.984381 37.84946,49.9328571 C35.7057006,47.8414286 35.4871907,44.53 34.1347915,41.8808571 C33.1662611,40.016 31.6012577,38.4590476 30.9161996,36.478 C29.8000273,33.2479048 31.2587286,29.756381 32.6879016,26.6482857 C34.3946411,22.9534286 36.3257963,19.0087619 39.9577854,17.08 C41.1802597,16.4293333 42.5326589,16.0459048 43.7846617,15.4533333 C46.9028571,13.9835238 50.7946958,10.5094286 52.3183595,7.40133333 C53.5998906,4.7812381 51.7927546,2.23666667 49.6430895,0.511238095 C50.6883937,1.17933333 51.7100752,1.88228571 52.7022283,2.63171429 C54.9759125,4.37457143 57.0251811,7.01790476 55.6550649,9.76580952 C54.1314012,12.8739048 50.2395625,16.3421905 47.1213671,17.812 C45.8693643,18.3929524 44.5169651,18.788 43.2944908,19.4386667 C39.6625017,21.3674286 37.7313465,25.3120952 36.024607,29.0069524 C34.5895284,32.1208571 33.1308271,35.6065714 34.252905,38.8424762 C34.9379631,40.8235238 36.5029665,42.3804762 37.4714969,44.2395238 C38.8416131,46.8886667 39.042406,50.2000952 41.1861654,52.2973333 C42.2669036,53.3488571 43.7196992,53.9530476 44.8240602,54.9813333 C45.9284211,56.009619 46.5957621,57.7873333 45.6862884,58.9724762 C44.7768148,60.157619 42.6153383,59.913619 41.2570335,59.036381 C40.3416541,58.426381 39.5089542,57.6246667 38.5699522,57.0262857 Z" id="Shape"></path>
                    <path d="M2.75204375,51.8732381 L10.6361176,46.2728571 C11.2486953,45.7756301 11.9551781,45.4024729 12.7149146,45.1748571 C14.3389747,44.8088571 15.9276008,45.8080952 17.2859057,46.7550476 L33.8217908,58.2579048 C34.4837371,56.9270475 34.5118543,55.3759898 33.8985646,54.0227619 C35.4163226,54.4875238 36.5206835,55.7307619 37.8376487,56.6021905 C37.6462415,56.5168111 37.4488844,56.4449779 37.2470813,56.3872381 C37.8601695,57.7384902 37.832047,59.2877135 37.1703076,60.6165714 L20.6344224,49.1137143 C19.2761176,48.1667619 17.6815858,47.1675238 16.0634313,47.5393333 C15.3039768,47.7647761 14.5974453,48.1359846 13.9846343,48.6315238 L6.10056049,54.2377143 C4.78950103,55.1672381 3.07685578,56.131619 1.65949419,55.3589524 C0.870441239,54.8819793 0.399949757,54.0271805 0.425208476,53.1164762 C1.26169444,52.8233341 2.04670187,52.4039013 2.75204375,51.8732381 Z" id="Shape"></path>
                </g>
                <path d="M296.549165,142.298815 C296.549165,142.298815 263.124823,144.789044 256.474954,140.383672 L287.052685,136 L296.549165,142.298815 Z" id="Shape" fill="#E3E8F4" fill-rule="nonzero"></path>
                <path d="M296.549165,142.298815 C296.549165,142.298815 263.124823,144.789044 256.474954,140.383672 L287.052685,136 L296.549165,142.298815 Z" id="Shape" fill="#000000" fill-rule="nonzero" opacity="0.1"></path>
                <path d="M296.549165,141 L287.157991,135.141278 C287.157991,135.141278 259.14245,143.075925 251.465677,139.800577 L259.277028,129 L287.035116,134.333974 L296.549165,141 Z" id="Shape" fill="#E3E8F4" fill-rule="nonzero"></path>
                <path d="M253.90237,62.614385 C252.860174,63.8940659 252.024215,65.320325 251.42315,66.8442677 C251.152261,67.6513225 251.016817,68.49272 250.78715,69.3112223 C250.140954,71.3495143 249.145497,73.2671995 247.842708,74.9835007 C244.939488,79.08746 241.311935,83.0483245 240.581713,87.9765099 C240.22838,90.4091217 240.617046,92.8818001 241.111713,95.2915168 C241.379485,96.8805316 241.846209,98.4317488 242.50149,99.9106174 C243.249378,101.478937 244.362377,102.858371 245.216265,104.375176 C245.996244,105.864003 246.653921,107.410428 247.183153,109 C248.190152,108.021231 248.784929,106.710483 249.591707,105.565724 C250.398484,104.420966 251.599816,103.390683 253.019038,103.373512 C254.656147,103.373512 256.004702,104.689984 257.624145,104.896041 C257.876894,104.945564 258.139049,104.921676 258.377923,104.827355 C258.966811,104.558337 259.013922,103.785625 258.966811,103.167455 C258.501589,98.845992 255.957591,94.5817665 257.158923,90.3919503 C258.266034,86.5169428 262.223364,84.0957785 264.302141,80.6214364 C265.809695,78.0972439 266.25725,75.1208718 266.657694,72.2246327 C267.15825,68.7617382 267.664694,65.2702247 267.440916,61.7844351 C267.329027,60.0272308 265.892139,48.9230732 263.265697,50.0850031 C262.35292,50.4856685 261.55792,52.1856349 260.986698,52.9468993 L258.631145,56.1922897 L253.90237,62.614385 Z" id="Shape" fill="#3F3D56" fill-rule="nonzero"></path>
                <polygon id="Shape" fill="#E3E8F4" fill-rule="nonzero" points="184.341373 135.794057 165.939432 151 142.263451 146.703552 158.205698 134"></polygon>
                <polygon id="Shape" fill="#000000" fill-rule="nonzero" opacity="0.1" points="185.343228 134.794057 166.941288 150 143.265306 145.703552 159.207553 133"></polygon>
                <polygon id="Shape" fill="#E3E8F4" fill-rule="nonzero" points="185.343228 134.799863 166.943789 150 143.265306 145.709358 159.211106 133"></polygon>
                <polygon id="Shape" fill="#000000" fill-rule="nonzero" opacity="0.1" points="185.343228 132.794057 166.938069 148 143.265306 143.703552 159.211106 131"></polygon>
                <polygon id="Shape" fill="#E3E8F4" fill-rule="nonzero" points="185.343228 130.794057 166.941288 146 143.265306 141.703552 159.207553 129"></polygon>
                <path d="M434.119585,340.296756 C435.070931,339.870756 436.189555,339.905157 437.107887,340.388655 C438.026218,340.872153 438.625513,341.742229 438.708848,342.712984 L439.814471,355.908433 L433.254852,357 L429.795918,347.460162 L434.119585,340.296756 Z" id="Shape" fill="#3F3D56" fill-rule="nonzero"></path>
                <path d="M215.971603,249.712107 L120.82917,297.912688 C118.604053,299.045875 117.207223,301.332828 117.217121,303.826497 C117.227018,306.320166 118.641958,308.595996 120.876001,309.711545 L325.789608,412.371536 C333.192857,416.072707 341.955597,415.853626 349.163984,411.787144 L435.472974,363.200865 C437.60691,361.985368 438.891146,359.690146 438.808888,357.238832 C438.726629,354.787518 437.291404,352.583244 435.080767,351.513043 L221.819587,249.647824 C219.965915,248.762004 217.805288,248.785755 215.971603,249.712107 Z" id="Shape" fill="#3F3D56" fill-rule="nonzero"></path>
                <path d="M120.418072,289 L117.451361,291.228459 L117.21822,301.899124 C117.179842,303.596581 118.103321,305.16711 119.596252,305.943365 L327.108663,413.652232 C328.06629,414.151953 329.212157,414.110823 330.132354,413.543699 C331.052552,412.976575 331.614079,411.965427 331.6141,410.875501 L331.6141,395.376508 L120.418072,289 Z" id="Shape" fill="#3F3D56" fill-rule="nonzero"></path>
                <path d="M215.977638,236.715136 L120.837783,284.911371 C118.611072,286.041303 117.210903,288.326235 117.217089,290.819971 C117.223275,293.313707 118.634762,295.591687 120.867051,296.710595 L325.792669,399.373776 C333.196416,403.071939 341.957366,402.852891 349.166412,398.789367 L435.473065,350.195734 C437.606942,348.980199 438.891144,346.684905 438.808888,344.233515 C438.726632,341.782125 437.291445,339.577782 435.080868,338.507548 L221.825464,236.645007 C219.970936,235.760991 217.810362,235.786901 215.977638,236.715136 Z" id="Shape" fill="#E3E8F4" fill-rule="nonzero"></path>
                <polygon id="Shape" fill="#3F3D56" fill-rule="nonzero" points="235.800304 247 131.243043 300.110281 310.948645 390 418.77551 335.248458"></polygon>
                <ellipse id="Oval" fill="#3F3D56" fill-rule="nonzero" cx="376.697588" cy="365.5" rx="11.0204082" ry="6.5"></ellipse>
                <ellipse id="Oval" fill="#3F3D56" fill-rule="nonzero" cx="175.324675" cy="264" rx="1.00185529" ry="1"></ellipse>
                <ellipse id="Oval" fill="#3F3D56" fill-rule="nonzero" cx="172.319109" cy="271" rx="1.00185529" ry="1"></ellipse>
                <path d="M177.328386,270 L189.350649,264" id="Shape" stroke="#3F3D56"></path>
                <rect id="Rectangle-path" fill="#4285F4" fill-rule="nonzero" transform="translate(273.005566, 314.500000) rotate(-30.000000) translate(-273.005566, -314.500000) " x="242.44898" y="304" width="61.1131725" height="21" rx="10.5"></rect>
                <rect id="Rectangle-path" fill="#4285F4" fill-rule="nonzero" transform="translate(305.064935, 329.500000) rotate(-30.000000) translate(-305.064935, -329.500000) " x="274.508349" y="319" width="61.1131725" height="21" rx="10.5"></rect>
                <rect id="Rectangle-path" fill="#4285F4" fill-rule="nonzero" transform="translate(244.953618, 297.500000) rotate(-30.000000) translate(-244.953618, -297.500000) " x="214.397032" y="287" width="61.1131725" height="21" rx="10.5"></rect>
            </g>
        </g>
    </g>
</svg>