<?xml version="1.0" encoding="UTF-8"?>
<svg width="25px" height="35px" viewBox="0 0 25 35" version="1.1" xmlns="http://www.w3.org/2000/svg" xmlns:xlink="http://www.w3.org/1999/xlink">
    <!-- Generator: sketchtool 51 (57462) - http://www.bohemiancoding.com/sketch -->
    <title>D0B2C252-8D5E-40FB-8792-1CC546384412</title>
    <desc>Created with sketchtool.</desc>
    <defs></defs>
    <g id="Page-1" stroke="none" stroke-width="1" fill="none" fill-rule="evenodd">
        <g id="Франшиза|Главная" transform="translate(-550.000000, -539.000000)">
            <rect fill="#FFFFFF" x="0" y="0" width="1440" height="5659"></rect>
            <g id="гарантии" transform="translate(545.000000, 539.000000)">
                <rect id="Rectangle-3" x="0" y="0" width="35" height="35"></rect>
                <g id="guarantee-(1)" transform="translate(5.444444, 0.000000)" fill="#006DF0" fill-rule="nonzero">
                    <path d="M10.0102734,10.0023438 L9.67168945,5.93892578 C9.64954102,5.67321289 9.42744141,5.46881836 9.16077148,5.46881836 L8.64814453,5.46881836 L8.64814453,4.95605469 C8.64814453,4.10791992 7.95819336,3.41796875 7.11005859,3.41796875 C6.26192383,3.41796875 5.57197266,4.10791992 5.57197266,4.95605469 L5.57197266,5.46881836 L5.0593457,5.46881836 C4.79595703,5.46881836 4.57542969,5.66835938 4.54917969,5.93044922 L4.13895508,10.0320117 C4.12453125,10.1761816 4.17176758,10.319668 4.26897461,10.4270605 C4.36618164,10.5344531 4.50426758,10.5957031 4.64912109,10.5957031 L9.5025,10.5957031 C9.50297852,10.5957031 9.50338867,10.5957031 9.50386719,10.5957031 C9.78701172,10.5957031 10.0165625,10.3661523 10.0165625,10.0830078 C10.0165625,10.0555957 10.014375,10.0285938 10.0102734,10.0023438 Z M6.59736328,4.95605469 C6.59736328,4.67332031 6.82732422,4.44335938 7.11005859,4.44335938 C7.39279297,4.44335938 7.62275391,4.67332031 7.62275391,4.95605469 L7.62275391,5.46881836 L6.59736328,5.46881836 L6.59736328,4.95605469 Z M5.21561523,9.57038086 L5.52330078,6.49420898 L8.68902344,6.49420898 L8.94530273,9.57038086 L5.21561523,9.57038086 Z" id="Shape"></path>
                    <path d="M23.6150195,4.56298828 C23.6137891,4.55047852 23.6116016,4.53831055 23.6094824,4.52614258 C23.6087305,4.52183594 23.6083203,4.51746094 23.6075,4.51322266 C23.6046289,4.49873047 23.6008691,4.48451172 23.5966992,4.47042969 C23.5961523,4.46858398 23.5958105,4.46660156 23.5952637,4.46475586 C23.5908887,4.45040039 23.5856934,4.43638672 23.5801563,4.42257813 C23.579541,4.4209375 23.5789941,4.41929688 23.5783789,4.41765625 C23.5729102,4.40446289 23.5666895,4.39161133 23.560127,4.3790332 C23.5589648,4.3768457 23.5580762,4.37452148 23.5569141,4.37233398 C23.550625,4.36064453 23.5436523,4.34929688 23.5364746,4.3381543 C23.5345605,4.33521484 23.5329883,4.33213867 23.5310059,4.32919922 C23.5238281,4.31853516 23.5160352,4.30834961 23.5081055,4.29823242 C23.5057129,4.29515625 23.5035938,4.291875 23.5011328,4.28886719 C23.4904688,4.27594727 23.4792578,4.2634375 23.4673633,4.25161133 L19.3662109,0.150253906 C19.3543848,0.138427734 19.3419434,0.127148438 19.3289551,0.116484375 C19.3256055,0.11375 19.3219824,0.111425781 19.3186328,0.108759766 C19.3088574,0.101103516 19.2990137,0.093515625 19.2886914,0.0866113281 C19.2854785,0.0844238281 19.2820605,0.0826464844 19.2787793,0.0805957031 C19.2679102,0.0736914062 19.2569727,0.0668554687 19.245625,0.0607714844 C19.2430957,0.0594042969 19.240498,0.0583789062 19.2379688,0.0570800781 C19.2255957,0.0507226562 19.2130859,0.0445703125 19.2002344,0.0392382812 C19.1983887,0.0384863281 19.1964746,0.0379394531 19.1946289,0.0372558594 C19.1810254,0.0317871094 19.1672168,0.0266601562 19.1530664,0.0223535156 C19.1510156,0.0217382812 19.1488965,0.021328125 19.1468457,0.02078125 C19.1329004,0.0167480469 19.1188867,0.0129882812 19.1045312,0.0101171875 C19.1002246,0.00922851562 19.0957812,0.00888671875 19.0914746,0.00813476562 C19.079375,0.006015625 19.067207,0.00389648437 19.0547656,0.00266601562 C19.0378125,0.000888671875 19.0207227,0 19.0035645,0 L0.547490234,0 C0.264345703,0 0.0347949219,0.229550781 0.0347949219,0.512695313 L0.0347949219,31.5119629 C0.0347949219,31.7951074 0.264345703,32.0246582 0.547490234,32.0246582 L12.1685156,32.0246582 C12.4516602,32.0246582 12.6812109,31.7951074 12.6812109,31.5119629 C12.6812109,31.2288184 12.4516602,30.9992676 12.1685156,30.9992676 L1.06018555,30.9992676 L1.06018555,1.02539063 L18.4908691,1.02539063 L18.4908691,4.61412109 C18.4908691,4.89726563 18.7204199,5.12681641 19.0035645,5.12681641 L22.5921582,5.12681641 L22.5921582,30.9992676 L19.6880469,30.9992676 C19.4049023,30.9992676 19.1753516,31.2288184 19.1753516,31.5119629 C19.1753516,31.7951074 19.4049023,32.0246582 19.6880469,32.0246582 L23.1048535,32.0246582 C23.387998,32.0246582 23.6175488,31.7951074 23.6175488,31.5119629 L23.6175488,4.61412109 C23.6175488,4.59696289 23.6167285,4.57987305 23.6150195,4.56298828 Z M19.5162598,4.10142578 L19.5162598,1.75047852 L21.8671387,4.10142578 L19.5162598,4.10142578 Z" id="Shape"></path>
                    <path d="M19.0035645,14.594248 L4.64891602,14.594248 C4.36577148,14.594248 4.1362207,14.8237988 4.1362207,15.1069434 C4.1362207,15.3900879 4.36577148,15.6196387 4.64891602,15.6196387 L19.0035645,15.6196387 C19.286709,15.6196387 19.5162598,15.3900879 19.5162598,15.1069434 C19.5162598,14.8237988 19.286709,14.594248 19.0035645,14.594248 Z" id="Shape"></path>
                    <path d="M19.0035645,17.3292383 L4.64891602,17.3292383 C4.36577148,17.3292383 4.1362207,17.5587891 4.1362207,17.8419336 C4.1362207,18.1250781 4.36577148,18.3546289 4.64891602,18.3546289 L19.0035645,18.3546289 C19.286709,18.3546289 19.5162598,18.1250781 19.5162598,17.8419336 C19.5162598,17.5587891 19.286709,17.3292383 19.0035645,17.3292383 Z" id="Shape"></path>
                    <path d="M19.0035645,20.0635449 L4.64891602,20.0635449 C4.36577148,20.0635449 4.1362207,20.2930957 4.1362207,20.5762402 C4.1362207,20.8593848 4.36577148,21.0889355 4.64891602,21.0889355 L19.0035645,21.0889355 C19.286709,21.0889355 19.5162598,20.8593848 19.5162598,20.5762402 C19.5162598,20.2930957 19.286709,20.0635449 19.0035645,20.0635449 Z" id="Shape"></path>
                    <path d="M10.8008496,22.7979199 L4.64891602,22.7979199 C4.36577148,22.7979199 4.1362207,23.0274707 4.1362207,23.3106152 C4.1362207,23.5937598 4.36577148,23.8233105 4.64891602,23.8233105 L10.8008496,23.8233105 C11.0839941,23.8233105 11.3135449,23.5937598 11.3135449,23.3106152 C11.3135449,23.0274707 11.0839941,22.7979199 10.8008496,22.7979199 Z" id="Shape"></path>
                    <path d="M19.5170801,27.754043 C19.5170801,25.7751074 17.9071484,24.1651758 15.9282129,24.1651758 C13.9492773,24.1651758 12.3393457,25.7751074 12.3393457,27.754043 C12.3393457,28.8944824 12.8747363,29.9116699 13.7066699,30.5694922 L13.7066699,34.4873047 C13.7066699,34.4927734 13.7072852,34.4980371 13.7074902,34.5035059 C13.707832,34.5139648 13.7081055,34.5243555 13.7090625,34.5348145 C13.7097461,34.5421289 13.7109082,34.5493066 13.7118652,34.5565527 C13.7131641,34.565918 13.7143945,34.5752832 13.7161719,34.5845801 C13.7176758,34.592373 13.7196582,34.6000293 13.7215039,34.6076855 C13.7235547,34.6162305 13.7255371,34.6247754 13.7280664,34.6331836 C13.730459,34.64125 13.7332617,34.649043 13.7360645,34.6569727 C13.7387988,34.6647656 13.7414648,34.672627 13.7446094,34.6803516 C13.747959,34.6885547 13.7517188,34.696416 13.7554785,34.7044141 C13.7588281,34.7115234 13.762041,34.7187012 13.7657324,34.7257422 C13.7701758,34.7341504 13.7750293,34.7421484 13.7798828,34.7502832 C13.7836426,34.7565723 13.7872656,34.7629297 13.7912988,34.769082 C13.7969727,34.7776953 13.8031934,34.7858984 13.8093457,34.7941699 C13.8126953,34.7986133 13.8155664,34.8032617 13.8190527,34.8076367 C13.8197363,34.8085254 13.8205566,34.809209 13.8212402,34.8100977 C13.8327246,34.8243164 13.8448926,34.8379199 13.8578125,34.8507715 C13.8614355,34.8543945 13.8654004,34.8575391 13.8691602,34.8610254 C13.8785254,34.8698438 13.8880957,34.878457 13.8981445,34.8865918 C13.9041602,34.8914453 13.9103809,34.8958203 13.9166016,34.9004004 C13.9250098,34.9065527 13.933418,34.9125684 13.9420996,34.9181738 C13.9486621,34.9224121 13.955293,34.926377 13.9620605,34.9302734 C13.9711523,34.9356055 13.9804492,34.9405273 13.9898828,34.9453125 C13.9963086,34.9485254 14.0027344,34.9517383 14.0093652,34.9546777 C14.0198242,34.9593945 14.0305566,34.9635645 14.0413574,34.9675977 C14.0472363,34.9697852 14.0530469,34.9721094 14.0589941,34.9740234 C14.0710938,34.9780566 14.0835352,34.9813379 14.0960449,34.9844141 C14.1010352,34.9856445 14.105957,34.9871484 14.1109473,34.9882422 C14.1247559,34.99125 14.1388379,34.9933691 14.1530566,34.9952148 C14.1570215,34.9956934 14.160918,34.996582 14.1648828,34.9969922 C14.1816309,34.9987695 14.1986523,34.9996582 14.2158789,34.9997949 C14.2171777,34.9997949 14.2184766,35 14.2197754,35 C14.2203223,35 14.2208008,34.9998633 14.2213477,34.9998633 C14.2463672,34.9997949 14.2707715,34.997334 14.2947656,34.9938477 C14.2999609,34.9930957 14.3050195,34.9924121 14.3102148,34.9914551 C14.3346191,34.9871484 14.3583398,34.9811328 14.381377,34.9734766 C14.3856152,34.972041 14.3897168,34.9704004 14.3938867,34.9688965 C14.4184277,34.9600098 14.4423535,34.9497559 14.4650488,34.9373828 C14.4658691,34.9369727 14.4666211,34.9363574 14.4674414,34.9359473 C14.4913672,34.9227539 14.5138574,34.9074414 14.5351855,34.8906934 C14.5366895,34.8895313 14.5383301,34.8887793 14.539834,34.8876172 L15.9284863,33.776709 L17.3170703,34.8876172 C17.3185059,34.8887793 17.3200781,34.8894629 17.3215137,34.890625 C17.3429785,34.9074414 17.3656055,34.9227539 17.3895312,34.9360156 C17.3902832,34.9364258 17.3909668,34.9369727 17.3917187,34.9373828 C17.4144141,34.9498242 17.4384082,34.9600781 17.4630176,34.9689648 C17.4671875,34.9704688 17.4712207,34.9721094 17.4753906,34.9734766 C17.4984277,34.9811328 17.5222168,34.9871484 17.5466211,34.9915234 C17.551748,34.9924121 17.5568066,34.9930957 17.562002,34.9938477 C17.5860645,34.9974023 17.6104687,34.9997949 17.6354883,34.9998633 C17.6360352,34.9998633 17.6365137,35 17.6370605,35 C17.638291,35 17.6396582,34.9997949 17.6408887,34.9997949 C17.6581152,34.9996582 17.6751367,34.9987695 17.6919531,34.9969922 C17.6958496,34.996582 17.6996777,34.9956934 17.7035059,34.9952148 C17.717793,34.9933691 17.7320117,34.9911816 17.7458203,34.9881738 C17.7507422,34.9870801 17.7555957,34.9856445 17.7604492,34.9844141 C17.7730957,34.9813379 17.7856055,34.9779883 17.7978418,34.9739551 C17.8036523,34.972041 17.8093262,34.9697168 17.8151367,34.967666 C17.8260742,34.9635645 17.836875,34.9593262 17.8474707,34.9546094 C17.8539648,34.9517383 17.8603223,34.9485254 17.866748,34.9453125 C17.87625,34.9405273 17.8856152,34.9355371 17.8947754,34.9302051 C17.9014746,34.9263086 17.9081055,34.9223438 17.914668,34.9181055 C17.9233496,34.9124316 17.9318262,34.9064844 17.940166,34.900332 C17.9463867,34.895752 17.9526074,34.891377 17.9586914,34.8865234 C17.9687402,34.878457 17.9782422,34.8697754 17.9876074,34.8610254 C17.9913672,34.8575391 17.995332,34.8543262 17.9989551,34.8507031 C18.0119434,34.8378516 18.024043,34.8241797 18.0355957,34.8099609 C18.0362793,34.8091406 18.0370996,34.808457 18.0377832,34.8075684 C18.0412695,34.8032617 18.0440723,34.7986133 18.0474219,34.7942383 C18.0536426,34.7859668 18.0598633,34.7776953 18.0656055,34.7690137 C18.0696387,34.7628613 18.0731934,34.7565039 18.0770215,34.7502832 C18.081875,34.7421484 18.0867969,34.734082 18.0912402,34.7256738 C18.0949316,34.7187012 18.0981445,34.7115918 18.1014258,34.7044824 C18.1051855,34.6964844 18.1089453,34.6885547 18.1122949,34.6802832 C18.1154395,34.6725586 18.1181055,34.6646973 18.1208398,34.6569043 C18.1236426,34.649043 18.1264453,34.6411816 18.1288379,34.6331152 C18.1313672,34.6246387 18.1333496,34.6160938 18.1354004,34.6075488 C18.1372461,34.5998926 18.1392285,34.5923047 18.1407324,34.5845117 C18.1425098,34.5751465 18.1437402,34.5657813 18.1450391,34.556416 C18.1459961,34.5492383 18.1471582,34.5420605 18.1478418,34.5347461 C18.1487988,34.5242871 18.1490723,34.5138281 18.1494141,34.5033691 C18.1496191,34.4979688 18.1502344,34.4927051 18.1502344,34.4872363 L18.1500977,30.5694922 C18.9816895,29.9116699 19.5170801,28.8944824 19.5170801,27.754043 Z M16.2559961,32.725752 C16.2559961,32.7256836 16.2559277,32.7256836 16.2559277,32.7256152 L16.2486816,32.7198047 C16.2449219,32.7168652 16.240957,32.7144043 16.2371973,32.7115332 C16.2281055,32.7046289 16.2190137,32.6978613 16.2095801,32.6916406 C16.204043,32.6880176 16.1983691,32.6848047 16.1926953,32.6813867 C16.1840137,32.6761914 16.1754004,32.6709277 16.1664453,32.6662793 C16.1594043,32.6625879 16.1522266,32.6593066 16.1450488,32.6560254 C16.1373242,32.6524023 16.1295996,32.6487109 16.1217383,32.6455664 C16.1133984,32.6421484 16.1049219,32.6392773 16.0965137,32.6363379 C16.0894727,32.633877 16.0824316,32.6313477 16.0753223,32.6292285 C16.0663672,32.6265625 16.0573438,32.624375 16.048252,32.6221875 C16.0412793,32.6205469 16.0342383,32.6187695 16.0271973,32.617334 C16.0183105,32.615625 16.0094238,32.6143262 16.0004688,32.6130957 C15.9929492,32.612002 15.9853613,32.6109082 15.9777734,32.6101563 C15.9695703,32.6093359 15.9614355,32.6089941 15.9532324,32.608584 C15.9446875,32.6081738 15.9362109,32.6077637 15.927666,32.6077637 C15.9204199,32.6077637 15.9132422,32.6081738 15.9059961,32.6085156 C15.8965625,32.6089258 15.8871289,32.6093359 15.8776953,32.610293 C15.8712695,32.6109082 15.8649121,32.6118652 15.8585547,32.6127539 C15.8485059,32.6141211 15.838457,32.615625 15.8284766,32.6175391 C15.8225293,32.6187695 15.816582,32.6202051 15.8106348,32.6216406 C15.8005859,32.6240332 15.7906055,32.6264258 15.780625,32.6294336 C15.7743359,32.6313477 15.7681836,32.6335352 15.7619629,32.6357227 C15.7527344,32.6388672 15.7435059,32.6420801 15.7344141,32.6457715 C15.7270996,32.6487109 15.7199902,32.6521973 15.7128125,32.6554785 C15.7051563,32.6590332 15.6975,32.6625195 15.6899121,32.6664844 C15.6812988,32.6709961 15.6728906,32.676123 15.6644141,32.6811816 C15.6586035,32.6847363 15.6527246,32.6880176 15.6469824,32.6917773 C15.6375488,32.697998 15.628457,32.704834 15.6192969,32.7117383 C15.6155371,32.7146094 15.6116406,32.717002 15.6079492,32.7199414 L15.6008398,32.7256836 C15.6007715,32.725752 15.6006348,32.7258203 15.600498,32.725957 L14.7320605,33.4207617 L14.7320605,31.1374219 C15.1064648,31.2701758 15.5088965,31.3431836 15.9282129,31.3431836 C16.3475293,31.3431836 16.7499609,31.2702441 17.1244336,31.1374219 L17.124502,33.4205566 L16.2559961,32.725752 Z M15.9282129,30.3175195 C14.5146777,30.3175195 13.3647363,29.1675781 13.3647363,27.754043 C13.3647363,26.3405078 14.5146777,25.1905664 15.9282129,25.1905664 C17.341748,25.1905664 18.4916895,26.3405078 18.4916895,27.754043 C18.4916895,29.1675781 17.341748,30.3175195 15.9282129,30.3175195 Z" id="Shape"></path>
                    <path d="M15.9282812,26.2158887 C15.0801465,26.2158887 14.3901953,26.9058398 14.3901953,27.7539746 C14.3901953,28.6021094 15.0801465,29.2920605 15.9282812,29.2920605 C16.776416,29.2920605 17.4663672,28.6021094 17.4663672,27.7539746 C17.4663672,26.9058398 16.776416,26.2158887 15.9282812,26.2158887 Z M15.9282812,28.2666699 C15.6455469,28.2666699 15.4155859,28.036709 15.4155859,27.7539746 C15.4155859,27.4712402 15.6455469,27.2412793 15.9282812,27.2412793 C16.2110156,27.2412793 16.4409766,27.4712402 16.4409766,27.7539746 C16.4409766,28.036709 16.2110156,28.2666699 15.9282812,28.2666699 Z" id="Shape"></path>
                </g>
            </g>
        </g>
    </g>
</svg>