<?xml version="1.0" encoding="UTF-8"?>
<svg width="35px" height="35px" viewBox="0 0 35 35" version="1.1" xmlns="http://www.w3.org/2000/svg" xmlns:xlink="http://www.w3.org/1999/xlink">
    <!-- Generator: sketchtool 51 (57462) - http://www.bohemiancoding.com/sketch -->
    <title>7F4C4072-5E75-476D-AD0E-6409B84992B0</title>
    <desc>Created with sketchtool.</desc>
    <defs></defs>
    <g id="Page-1" stroke="none" stroke-width="1" fill="none" fill-rule="evenodd">
        <g id="Франшиза|Главная" transform="translate(-355.000000, -539.000000)">
            <rect fill="#FFFFFF" x="0" y="0" width="1440" height="5659"></rect>
            <g id="до-3-часов" transform="translate(355.000000, 539.000000)" fill="#006DF0" fill-rule="nonzero">
                <path d="M17.5,0 C7.8505,0 0,7.8505 0,17.5 C0,27.1495 7.8505,35 17.5,35 C27.1495,35 35,27.1495 35,17.5 C35,7.8505 27.1495,0 17.5,0 Z M17.5,33.8333333 C8.49391667,33.8333333 1.16666667,26.5060833 1.16666667,17.5 C1.16666667,8.49391667 8.49391667,1.16666667 17.5,1.16666667 C26.5060833,1.16666667 33.8333333,8.49391667 33.8333333,17.5 C33.8333333,26.5060833 26.5060833,33.8333333 17.5,33.8333333 Z" id="Shape"></path>
                <path d="M18.1210856,15.2082672 L18.1210856,9.27974948 C18.1210856,8.95649269 17.8592067,8.69519833 17.5365344,8.69519833 C17.2138622,8.69519833 16.9519833,8.95649269 16.9519833,9.27974948 L16.9519833,15.2082672 C16.1341962,15.4210438 15.4941127,16.0611273 15.2813361,16.8789144 L11.1064718,16.8789144 C10.7837996,16.8789144 10.5219207,17.1402088 10.5219207,17.4634656 C10.5219207,17.7867223 10.7837996,18.0480167 11.1064718,18.0480167 L15.2813361,18.0480167 C15.5426305,19.0534447 16.4504384,19.8016701 17.5365344,19.8016701 C18.8260543,19.8016701 19.874739,18.7529854 19.874739,17.4634656 C19.874739,16.376785 19.1265136,15.4695616 18.1210856,15.2082672 Z M17.5365344,18.6325678 C16.8917745,18.6325678 16.3674322,18.1082255 16.3674322,17.4634656 C16.3674322,16.8187056 16.8917745,16.2943633 17.5365344,16.2943633 C18.1812944,16.2943633 18.7056367,16.8187056 18.7056367,17.4634656 C18.7056367,18.1082255 18.1812944,18.6325678 17.5365344,18.6325678 Z" id="Shape"></path>
                <path d="M17.5365344,5.77244259 C17.8592067,5.77244259 18.1210856,5.51114823 18.1210856,5.18789144 L18.1210856,4.60334029 C18.1210856,4.28008351 17.8592067,4.01878914 17.5365344,4.01878914 C17.2138622,4.01878914 16.9519833,4.28008351 16.9519833,4.60334029 L16.9519833,5.18789144 C16.9519833,5.51114823 17.2138622,5.77244259 17.5365344,5.77244259 Z" id="Shape"></path>
                <path d="M17.5365344,29.0814196 C17.2138622,29.0814196 16.9519833,29.342714 16.9519833,29.6659708 L16.9519833,30.2505219 C16.9519833,30.5737787 17.2138622,30.8350731 17.5365344,30.8350731 C17.8592067,30.8350731 18.1210856,30.5737787 18.1210856,30.2505219 L18.1210856,29.6659708 C18.1210856,29.342714 17.8592067,29.0814196 17.5365344,29.0814196 Z" id="Shape"></path>
                <path d="M30.3235908,16.8789144 L29.7390397,16.8789144 C29.4163674,16.8789144 29.1544885,17.1402088 29.1544885,17.4634656 C29.1544885,17.7867223 29.4163674,18.0480167 29.7390397,18.0480167 L30.3235908,18.0480167 C30.646263,18.0480167 30.908142,17.7867223 30.908142,17.4634656 C30.908142,17.1402088 30.646263,16.8789144 30.3235908,16.8789144 Z" id="Shape"></path>
                <path d="M5.26096033,16.8789144 L4.67640919,16.8789144 C4.35373695,16.8789144 4.09185804,17.1402088 4.09185804,17.4634656 C4.09185804,17.7867223 4.35373695,18.0480167 4.67640919,18.0480167 L5.26096033,18.0480167 C5.58363257,18.0480167 5.84551148,17.7867223 5.84551148,17.4634656 C5.84551148,17.1402088 5.58363257,16.8789144 5.26096033,16.8789144 Z" id="Shape"></path>
                <path d="M26.1679881,7.9192307 L25.7482232,8.33909254 C25.5160759,8.57129336 25.5160759,8.9466154 25.7482232,9.17881622 C25.8639999,9.2946197 26.015994,9.35281837 26.1679881,9.35281837 C26.3199822,9.35281837 26.4719763,9.2946197 26.587753,9.17881622 L27.007518,8.75895438 C27.2396652,8.52675356 27.2396652,8.15143152 27.007518,7.9192307 C26.7753707,7.68702988 26.4001353,7.68762375 26.1679881,7.9192307 Z" id="Shape"></path>
                <path d="M8.41224697,25.6749718 L7.99248203,26.0948337 C7.7603348,26.3270345 7.7603348,26.7023565 7.99248203,26.9345574 C8.10825878,27.0503608 8.26025287,27.1085595 8.41224697,27.1085595 C8.56424106,27.1085595 8.71623515,27.0503608 8.83201191,26.9345574 L9.25177684,26.5146955 C9.48392407,26.2824947 9.48392407,25.9071726 9.25177684,25.6749718 C9.01962961,25.442771 8.64380047,25.4433649 8.41224697,25.6749718 Z" id="Shape"></path>
                <path d="M26.587753,25.6751703 C26.3556058,25.4430017 25.9803704,25.4430017 25.7482232,25.6751703 C25.5160759,25.907339 25.5160759,26.2826091 25.7482232,26.5147777 L26.1679881,26.9345814 C26.2837648,27.0503689 26.4357589,27.1085595 26.587753,27.1085595 C26.7397471,27.1085595 26.8917412,27.0503689 27.007518,26.9345814 C27.2396652,26.7024128 27.2396652,26.3271427 27.007518,26.094974 L26.587753,25.6751703 Z" id="Shape"></path>
                <path d="M8.83201191,7.91942921 C8.59986468,7.68726055 8.22462926,7.68726055 7.99248203,7.91942921 C7.7603348,8.15159788 7.7603348,8.52686795 7.99248203,8.75903662 L8.41224697,9.17884032 C8.52802372,9.29462776 8.68001781,9.35281837 8.83201191,9.35281837 C8.984006,9.35281837 9.13600009,9.29462776 9.25177684,9.17884032 C9.48392407,8.94667165 9.48392407,8.57140158 9.25177684,8.33923291 L8.83201191,7.91942921 Z" id="Shape"></path>
            </g>
        </g>
    </g>
</svg>