<?xml version="1.0" encoding="UTF-8"?>
<svg width="17px" height="17px" viewBox="0 0 17 17" version="1.1" xmlns="http://www.w3.org/2000/svg" xmlns:xlink="http://www.w3.org/1999/xlink">
    <!-- Generator: sketchtool 51 (57462) - http://www.bohemiancoding.com/sketch -->
    <title>EBC91034-631A-42D7-9677-2C4E41E7195C</title>
    <desc>Created with sketchtool.</desc>
    <defs></defs>
    <g id="Page-1" stroke="none" stroke-width="1" fill="none" fill-rule="evenodd">
        <g id="Главная-12-колонок" transform="translate(-389.000000, -4965.000000)">
            <rect fill="#FFFFFF" x="0" y="0" width="1440" height="5872"></rect>
            <g id="Контакты" transform="translate(0.000000, 4724.000000)">
                <g id="Дмитрий-Никитин" transform="translate(165.000000, 233.000000)">
                    <g id="vk-(1)" transform="translate(224.000000, 8.000000)">
                        <circle id="XMLID_11_" fill="#4D76A1" fill-rule="nonzero" cx="8.5" cy="8.5" r="8.5"></circle>
                        <path d="M8.38186754,11.9748797 L9.03937899,11.9748797 C9.03937899,11.9748797 9.23799135,11.9540337 9.33938819,11.8495183 C9.43272107,11.7535696 9.42973442,11.5733804 9.42973442,11.5733804 C9.42973442,11.5733804 9.41689181,10.729832 9.82636181,10.6056128 C10.2300078,10.4832498 10.7483413,11.4208906 11.2977359,11.7814119 C11.7131792,12.0542658 12.0288684,11.9944407 12.0288684,11.9944407 L13.4978532,11.9748797 C13.4978532,11.9748797 14.2663188,11.9296182 13.9019472,11.3519275 C13.8720807,11.3046671 13.6897456,10.9245849 12.8097286,10.1435745 C11.8886451,9.32615502 12.0119938,9.45836995 13.121535,8.04441271 C13.7972651,7.18330233 14.0674077,6.65758381 13.9830348,6.43241865 C13.9025445,6.21796204 13.4055656,6.27464598 13.4055656,6.27464598 L11.7515577,6.28449785 C11.7515577,6.28449785 11.6289557,6.26850641 11.5380121,6.32047858 C11.4491592,6.37145129 11.3919648,6.49024483 11.3919648,6.49024483 C11.3919648,6.49024483 11.1301848,7.15660234 10.7810451,7.72329892 C10.0445367,8.91908726 9.75005285,8.98219632 9.62969077,8.90795036 C9.34969214,8.73490016 9.4195798,8.21275115 9.4195798,7.8418069 C9.4195798,6.68299877 9.60340823,6.19982889 9.06162955,6.074753 C8.8818331,6.03320382 8.74952441,6.00578993 8.28972932,6.00136373 C7.69956688,5.99550972 7.20004932,6.00307709 6.91721337,6.13557758 C6.72905429,6.22367327 6.583903,6.41999673 6.6723079,6.4312764 C6.78161937,6.44526891 7.02921282,6.49509937 7.16047618,6.66600787 C7.32996869,6.88646126 7.32399538,7.38162472 7.32399538,7.38162472 C7.32399538,7.38162472 7.42136024,8.74575149 7.09656183,8.91523218 C6.87360825,9.03145566 6.56777508,8.79415415 5.91115963,7.70930642 C5.57471327,7.15360395 5.32069851,6.53936139 5.32069851,6.53936139 C5.32069851,6.53936139 5.27171742,6.42456571 5.18435785,6.36317001 C5.0783317,6.28878127 4.93019376,6.26507967 4.93019376,6.26507967 L3.35846811,6.27493154 C3.35846811,6.27493154 3.1225226,6.28121389 3.03590969,6.37930423 C2.95885406,6.46654323 3.02978705,6.64701803 3.02978705,6.64701803 C3.02978705,6.64701803 4.2602877,9.3995443 5.65356089,10.7866588 C6.9311013,12.0584064 8.38186754,11.9748797 8.38186754,11.9748797 Z" id="Shape" fill="#FFFFFF"></path>
                    </g>
                </g>
            </g>
        </g>
    </g>
</svg>