<svg width="35" height="35" xmlns="http://www.w3.org/2000/svg"><g fill="none" fill-rule="evenodd"><path fill="#FFF" d="M-165-539h1440v5659H-165z"/><g fill="#006DF0" fill-rule="nonzero"><path d="M33.842 20.5h-.54v-4.717c0-.747-.384-1.408-.97-1.81v-.643c0-.931-.783-1.69-1.745-1.69h-.403l1.544-2.195A1.586 1.586 0 0 0 31.29 7.2L20.81.281a1.699 1.699 0 0 0-1.25-.252c-.438.08-.817.32-1.068.677l-9.046 12.86H6.928l.607-5.956a.177.177 0 0 1 .115-.148 3.891 3.891 0 0 0 1.909-1.503.183.183 0 0 1 .171-.078l3.949.378a.511.511 0 0 0 .562-.447.503.503 0 0 0-.461-.546L9.83 4.89a1.218 1.218 0 0 0-1.14.534 2.86 2.86 0 0 1-1.405 1.105c-.433.159-.73.535-.776.984l-.617 6.054h-.656l.96-9.42a.633.633 0 0 1 .697-.554l7.98.763a.511.511 0 0 0 .562-.447.503.503 0 0 0-.461-.545L6.994 2.6c-.914-.087-1.732.562-1.823 1.449l-.774 7.593H3.08c-.962 0-1.745.758-1.745 1.69v.438c-.787.35-1.334 1.121-1.334 2.014v17C0 34.006 1.027 35 2.289 35h28.724c1.262 0 2.288-.994 2.288-2.217v-4.717h.541c.638 0 1.157-.503 1.157-1.121v-5.323c0-.619-.519-1.121-1.157-1.121zm-3.255-7.862c.394 0 .715.31.715.692v.255a2.367 2.367 0 0 0-.289-.019H28.83l.653-.928h1.105zM19.342 1.268a.636.636 0 0 1 .529-.27c.126 0 .25.036.357.107l10.481 6.92a.606.606 0 0 1 .168.858l-3.294 4.683h-.79l1.615-2.296c.262-.372.283-.846.056-1.237a2.714 2.714 0 0 1-.345-1.72c.06-.44-.14-.868-.52-1.12l-5.434-3.586a1.237 1.237 0 0 0-1.266-.06 2.97 2.97 0 0 1-1.78.318 1.235 1.235 0 0 0-1.167.503l-6.47 9.198h-.791l8.651-12.298zm.227 8.469c-2.242 0-4.082 1.693-4.232 3.83h-2.61l6.076-8.638a.185.185 0 0 1 .174-.076 4.022 4.022 0 0 0 2.42-.433.187.187 0 0 1 .188.01l5.433 3.588a.174.174 0 0 1 .08.166 3.69 3.69 0 0 0 .469 2.34.172.172 0 0 1-.01.184l-2.01 2.858H23.8c-.15-2.136-1.99-3.829-4.232-3.829zm3.2 3.83h-6.4c.148-1.586 1.526-2.833 3.2-2.833 1.674 0 3.053 1.247 3.2 2.832zM2.365 13.33c0-.382.32-.692.715-.692h1.216l-.094.928H2.365v-.236zM1.03 15.783c0-.673.565-1.22 1.259-1.22h28.724c.694 0 1.259.547 1.259 1.22v1.384H1.03v-1.384zm31.242 17c0 .673-.565 1.22-1.259 1.22H2.29c-.694 0-1.259-.547-1.259-1.22V31.4h2.776a.507.507 0 0 0 .515-.5.507.507 0 0 0-.515-.498H1.03V18.164h31.242v2.337h-4.895c-1.542 0-2.878.87-3.512 2.131l-.007.013-.015.032a3.662 3.662 0 0 0-.37 1.606c0 2.086 1.75 3.783 3.904 3.783h4.895v2.336H7.102a.507.507 0 0 0-.514.499c0 .275.23.499.515.499h25.169v1.383zm1.698-5.839a.126.126 0 0 1-.128.124h-6.465a2.892 2.892 0 0 1-2.591-1.578 2.703 2.703 0 0 1 .064-2.533 2.892 2.892 0 0 1 2.527-1.459h6.465c.07 0 .128.056.128.124v5.322z"/><path d="M27.498 22.26c-1.152 0-2.09.907-2.09 2.023s.938 2.023 2.09 2.023c1.151 0 2.088-.907 2.088-2.023s-.937-2.023-2.088-2.023zm0 3.049c-.584 0-1.06-.46-1.06-1.026 0-.566.476-1.026 1.06-1.026.584 0 1.059.46 1.059 1.026 0 .566-.475 1.026-1.06 1.026z"/></g></g></svg>