<svg width="161" height="61" xmlns="http://www.w3.org/2000/svg"><g fill="none" fill-rule="evenodd"><path fill="#FFF" d="M-165-31h1440v5659H-165z"/><path d="M3.2 51.653h1.6L8 59.82H6.3l-.6-1.672H2.3l-.7 1.672H0l3.2-8.166zm.8 2.165L2.9 56.67h2.2L4 53.818zm5.2-2.165h4.1v1.476h-2.5v6.592H9.2v-8.068zm5.3 0H19v1.476h-2.9v1.476H19v1.476h-2.9v2.164H19v1.476h-4.5v-8.068zm6 0h1.6v3.05h2.8v-3.05h1.6v8.166h-1.6v-3.542h-2.8v3.542h-1.6v-8.166zm7 0h4.6v1.574h-1.5v6.592H29v-6.592h-1.5v-1.574zm13.2 1.476l-1.1.984c-.7-.787-1.6-1.18-2.5-1.18-.8 0-1.5.294-2 .786-.5.492-.8 1.181-.8 1.968 0 .59.1.984.4 1.476.2.393.6.787 1 .984.4.197.9.393 1.5.393.5 0 .9-.098 1.3-.295.4-.197.8-.492 1.2-.885l1.1 1.082c-.6.59-1.2.984-1.7 1.18-.5.197-1.2.296-1.9.296-1.3 0-2.3-.394-3.2-1.18-.8-.788-1.2-1.87-1.2-3.05 0-.788.2-1.575.6-2.165.4-.59.9-1.181 1.6-1.476.7-.394 1.4-.59 2.2-.59.7 0 1.3.098 2 .393.5.295 1.1.689 1.5 1.279zm.6-1.476h4.6v1.574h-1.5v6.592h-1.6v-6.592h-1.5v-1.574zm5.6 8.166v-8.166h1.3c.8 0 1.3 0 1.7.099.5.098.9.393 1.2.688.3.394.4.787.4 1.28 0 .295-.1.59-.2.885-.1.295-.3.492-.6.689.5.196.9.491 1.1.885.2.394.3.787.3 1.28 0 .491-.1.885-.4 1.278-.2.394-.6.689-.9.886-.4.196-.9.295-1.6.295h-2.3v-.099zm1.6-6.69V54.9h.4c.4 0 .7-.098.9-.197.2-.197.3-.393.3-.688 0-.296-.1-.492-.3-.59-.2-.198-.5-.198-.8-.198h-.5v-.098zm0 3.148v2.067h.4c.7 0 1.1-.099 1.3-.197.2-.197.3-.394.3-.689 0-.393-.1-.59-.4-.787-.3-.197-.7-.295-1.3-.295h-.3v-.099zm9-4.82c1.2 0 2.2.393 3 1.278.8.788 1.3 1.87 1.3 3.05 0 1.181-.4 2.165-1.2 3.05-.8.788-1.8 1.28-3 1.28s-2.3-.394-3.1-1.28c-.8-.885-1.2-1.869-1.2-3.05 0-.787.2-1.475.6-2.164.4-.689.9-1.18 1.6-1.574.5-.394 1.2-.59 2-.59zm0 1.475c-.8 0-1.4.295-1.9.787-.5.492-.8 1.181-.8 1.968 0 .886.3 1.574 1 2.165.5.393 1.1.59 1.7.59.7 0 1.4-.295 1.9-.787.5-.492.8-1.18.8-1.968 0-.787-.3-1.476-.8-1.968-.6-.492-1.2-.787-1.9-.787zm48.3-1.279h1.7c.9 0 1.6.099 2 .295.4.197.7.394.9.787.2.394.3.788.3 1.28 0 .59-.2 1.082-.5 1.377-.3.393-.7.689-1.2.787-.3.098-.9.098-1.7.098v3.444h-1.6v-8.068h.1zm1.5 3.149h.5c.4 0 .7 0 .8-.099.2-.098.3-.197.4-.295.1-.098.1-.295.1-.492 0-.295-.1-.59-.4-.689-.2-.098-.5-.196-1-.196h-.4v1.77zm4.9-3.149h4.5v1.476h-2.9v1.476h2.9v1.476h-2.9v2.164h2.9v1.476h-4.5v-8.068zm6 0h1.6v2.853l2.2-2.853h1.9l-2.9 3.64 3.2 4.526h-1.9l-2.5-3.64v3.64h-1.6v-8.166zm12.5 8.166l-2.3-6.001-2.3 6.001h-1.7l3.2-8.166h1.6l3.2 8.166h-1.7zm5.1-8.166h1.6l3.2 8.166H139l-.6-1.672H135l-.7 1.672h-1.6l3.1-8.166zm.8 2.165l-1.1 2.853h2.2l-1.1-2.853zm6-2.165h1.5l1.9 5.707 1.9-5.707h1.5l1.4 8.166h-1.5l-.9-5.116-1.7 5.116h-1.4l-1.7-5.116-.9 5.116h-1.5l1.4-8.166zm15.8 0h1.6v8.166h-1.6v-8.166zm-6.3 8.166v-8.166h1.6v3.05h.3c.7 0 1.2.099 1.6.197.4.197.8.394 1.1.885.3.394.5.886.5 1.476s-.1.984-.4 1.378c-.3.393-.6.688-.9.787-.4.197-.9.197-1.5.197h-2.3v.196zm1.6-3.738v2.263h.4c.7 0 1.1-.099 1.3-.197.2-.197.3-.394.3-.787 0-.787-.6-1.181-1.7-1.181h-.3v-.098zm-87.4-4.428h1.6v8.166h-1.6v-8.166zm3.4 0h1.5l3.6 5.412v-5.412h1.6v8.166h-1.5l-3.5-5.313v5.313h-1.6v-8.166h-.1zm8.5 0h1.9c1.2 0 2.1.197 2.7.394.6.295 1.1.787 1.4 1.476.4.688.6 1.475.6 2.36 0 .591-.1 1.182-.3 1.772-.2.492-.5.984-.9 1.279-.4.393-.8.59-1.2.689-.4.098-1.2.196-2.3.196h-1.9v-8.166zm1.6 1.476v5.116h.7c.7 0 1.2-.098 1.6-.197.3-.196.6-.393.8-.787.2-.393.3-.885.3-1.377 0-.886-.2-1.574-.7-1.968-.5-.59-1.2-.787-2.2-.787h-.5zm10.3-1.673c1.2 0 2.2.394 3 1.28.8.787 1.3 1.869 1.3 3.05 0 1.18-.4 2.164-1.2 3.05-.8.787-1.8 1.279-3 1.279s-2.3-.394-3.1-1.28c-.8-.885-1.2-1.869-1.2-3.05 0-.787.2-1.475.6-2.164.4-.689.9-1.18 1.6-1.574.5-.394 1.3-.59 2-.59zm0 1.476c-.8 0-1.4.295-1.9.787-.5.492-.8 1.181-.8 1.968 0 .886.3 1.574 1 2.165.5.393 1.1.59 1.7.59.7 0 1.4-.295 1.9-.787.5-.492.8-1.18.8-1.968 0-.787-.3-1.476-.8-1.968s-1.1-.787-1.9-.787zm5.9-1.279h1.7c.9 0 1.6.099 2 .197.4.197.7.394.9.787.2.394.4.787.4 1.28 0 .491-.1.983-.4 1.377-.3.393-.7.59-1.2.787l1.9 3.64h-1.7l-1.9-3.444h-.2v3.444H96v-8.068zm1.6 3.149h.5c.5 0 .9-.099 1-.197.2-.099.3-.394.3-.689 0-.197 0-.295-.1-.492-.1-.098-.2-.197-.4-.295-.2.098-.5 0-.9 0h-.4v1.673z" fill="#000" fill-rule="nonzero"/><path d="M73 23.711c.8 1.378 1.4 2.755 1.6 4.33.3 2.262-.4 4.82-1.9 6.493-2.4 2.755-6.4 3.64-10.1 3.739-1.4 3.345-3.8 6.69-7.2 7.772-2.2.689-4.8.394-6.8-.689-2.7-1.475-4.6-4.23-5.8-7.083-3.9-.099-8.2-1.083-10.4-4.33-2.4-3.443-1.9-7.083 0-10.232-1.9-3.148-2.4-6.788 0-10.232 2.3-3.247 6.5-4.23 10.4-4.329 1.6-3.542 4.1-7.084 8-7.97 6.1-1.377 9.8 3.05 11.9 7.97 3.7.098 7.7.984 10.1 3.739 1.5 1.77 2.2 4.23 1.9 6.493-.3 1.574-.9 3.05-1.7 4.33z" fill="#A2C7FF"/><path d="M35.1 26.368h1.3c.4 0 .9 0 1.3.098.5 0 1 .099 1.5.197s1 .197 1.4.393c.8.296 1.5.984 1.5 1.968v.394l-.1.295c-.4 1.082-1.2 1.968-2.1 2.755-.6.492-1.2.885-1.9 1.18v.099c.2.393.3.787.5 1.279.2.492.3.984.3 1.476 0 .885-.4 1.672-1.2 2.164-.5.394-1.1.689-1.7.984-.9.492-1.8.689-2.8.689H33c-1 0-1.9-.59-2.5-1.378-.5-.59-.9-1.18-1.2-1.87a11.6 11.6 0 0 1-.8-1.573h-.1c-.3.098-.6.098-.8.098h-.3c-3 1.082-6.2 1.968-9.4 2.755-4.3.984-8.6 1.77-12.9 2.46h-.5c-1.5 0-2.5-.984-2.7-2.362v-2.066h.7c.2-.197.3-.295.4-.492.3-.295.5-.688.8-.984.3-.492.5-.885.7-1.377.1-.295.2-.59.2-.885v-.296l.1-.295c.1-.197.2-.393.2-.59.1-.197.1-.295.2-.492H5c-.4.098-.8.098-1.2.197h-.7c-.8 0-1.7-.197-2.3-.787l-.8-.787.6-1.083c.4-.688 1-1.279 1.5-1.87.7-.688 1.5-1.377 2.4-1.868l.6-.394h.1c.5-.197 1.2-.492 1.8-.492h1c.3-.393.5-.787.7-1.279.3-.689.5-1.279.7-1.968.2-.787.4-1.476.7-2.263.6-1.869 1.2-3.837 1.8-5.706.4-1.476.9-2.853 1.3-4.33.3-1.081.6-2.164 1.2-3.147.6-1.083 1.7-1.673 2.8-2.067 1.5-.688 3.3-1.574 5-1.77l1.1-.099.5.984c1 1.77 1.9 3.542 2.9 5.411 1 1.87 1.8 3.837 2.7 5.707 1.3 2.754 2.5 5.41 3.8 8.166.5 1.672 1.2 3.247 1.9 4.82zM12 32.86s0 .099 0 0v.394l-.1.197c-.1.196-.1.295-.2.492 1.3 0 2.6-.197 3.9-.296 1.2-.098 2.4-.295 3.6-.492-.8-.098-1.6-.295-2.4-.393-1.1-.197-2.2-.394-3.3-.394-.5 0-1 .099-1.4.296 0 .098-.1.196-.1.196zm4.7-8.363c.5.099 1.1.099 1.4.099 1.3 0 2.7.197 4 .393l2.1.295c-.1-.196-.1-.295-.2-.491l-1.2-3.05c-.7-1.673-1.4-3.346-2.2-5.018-.2-.394-.4-.689-.5-1.082-.3.59-.5 1.18-.8 1.77l-1.2 2.952c-.4.886-.7 1.87-1 2.853-.2.394-.3.886-.4 1.28z" fill="#A2C7FF"/><path d="M17.5 35.911c-.5.099-1.1.099-1.6.197-1.4.197-2.8.295-4.1.295H8.2l1.3-3.345c0-.098.1-.197.1-.197v-.196l.1-.788.5-.59c.2-.197.5-.393.7-.59.8-.492 1.7-.689 2.7-.689 1.3 0 2.5.197 3.7.394.8.098 1.6.295 2.4.393l15 2.657-4.2.59.2.492c.2.492.4.885.7 1.377.3.492.7 1.083 1 1.574.1.099.4.492.5.492h.3c.6 0 1.1-.196 1.6-.393.4-.197.9-.492 1.3-.787l.1-.099h.1c0-.295-.1-.492-.2-.787-.1-.393-.3-.688-.4-1.082v-.098l-.9-2.165 2.2-.984c.5-.197.9-.492 1.3-.787.5-.393.9-.787 1.2-1.377-.2-.099-.5-.099-.8-.197-.4-.098-.8-.098-1.3-.197h-1.9c-.3 0-.5 0-.7-.098l-1.5-.197-.5-1.377c-.6-1.575-1.3-3.149-2-4.723-1.2-2.755-2.5-5.411-3.7-8.068-.9-1.87-1.8-3.837-2.7-5.706-.8-1.574-1.7-3.247-2.5-4.821-1.2.295-2.6.885-3.7 1.476H18l-.2.098c-.5.197-1.2.492-1.4.984-.4.787-.7 1.77-1 2.558-.4 1.476-.8 2.952-1.3 4.427-.6 1.87-1.2 3.838-1.8 5.707-.2.689-.4 1.476-.6 2.164-.2.787-.5 1.476-.8 2.263-.3.689-.6 1.28-1.1 1.87l-.7.885H6.9c-.2 0-.6.197-.8.295l-.5.295c-.7.394-1.3.886-1.9 1.476l-.4.394h.2c.3 0 .7-.099 1-.099h4l-1.2 3.247c-.1.197-.1.295-.2.492s-.1.394-.2.59c0 .59-.2 1.181-.4 1.673-.3.59-.5 1.082-.9 1.574-.3.492-.6.886-1 1.28-.2.196-.3.393-.5.491l-.1.099c0 .196.1.295.3.295h.2c4.2-.689 8.5-1.378 12.6-2.362.3-.295.4-.295.4-.295zm-3.2-12.003c.1-.492.2-.984.4-1.377.3-.984.7-1.968 1-2.952.4-.984.8-2.066 1.2-3.05.3-.59.5-1.18.8-1.87l2.1-4.525 2.3 4.427.6 1.18c.8 1.674 1.6 3.444 2.3 5.215l1.2 3.05c.1.099.1.296.2.394l1.7 3.935-4.3-.59-2.1-.295c-1.2-.197-2.4-.295-3.5-.394-.6 0-1.2 0-1.8-.098l-2.6-.393.5-2.657z" fill="#3742FA"/><path d="M118.9 24.498c.3-.688.7-1.279 1.2-1.869l1.9-1.77c0-.1.1-.394.1-.493v-4.92c0-3.148 1.8-5.312 5.1-5.312h27.5c3.3 0 5.4 1.968 5.4 5.214V36.01c0 .984-.4 1.967-1 2.656-.7.787-1.8 1.18-2.9 1.18h-1.6c-2.5 0-4.3-1.475-4.3-4.033V19.677H146V36.01c0 .984-.4 1.967-1.1 2.656-.7.787-1.7 1.18-2.8 1.18h-1.6c-2.5 0-4.3-1.475-4.3-4.033V19.677h-4.3v16.136c0 2.46-1.8 4.034-4.2 4.034h-5c-2.2 0-3.8-1.18-4.1-3.149-.2.492-.5.984-.9 1.378-1 1.18-2.4 1.77-3.9 1.77H97c-1.5 0-2.9-.491-4-1.377-1.2-.984-1.8-2.36-1.8-3.837V19.185c-.8.394-1.7.492-2.6.492h-5.2v.984l1.9 1.771c1.4 1.28 1.7 3.149 1.7 4.92v8.46c0 2.46-1.7 4.035-4.2 4.035h-5c-2.5 0-4.2-1.574-4.2-4.034V19.677h-5.3c-1.2 0-2.3-.196-3.2-.983-.9-.788-1.3-1.968-1.3-3.149v-1.377c0-2.657 2.1-4.034 4.6-4.034h20.2c1.7 0 3.2.59 4 1.77 1-1.18 2.6-1.77 4.6-1.77h16.5c1.4 0 2.6.393 3.7 1.279 1 .885 1.7 2.066 1.7 3.345v9.74h-.2zm-9.8 5.904V19.677H101v.59c0 .1 0 .296.1.394l1.9 1.771c1.4 1.28 1.7 3.149 1.7 4.92v2.951h.1l4.3.099z" fill="#A2C7FF"/><path d="M66.5 16.923c.4.295 1.1.393 1.6.393h7.8v18.595c0 1.18.6 1.673 1.8 1.673h5c1.1 0 1.8-.492 1.8-1.673V27.45c0-1.082-.1-2.361-1-3.148l-2.3-2.165-.2-.59c-.1-.394-.2-.787-.2-1.18v-3.05h7.7c.4 0 1.1 0 1.5-.296l2.1-1.082-1.7-2.558c-.4-.59-1.3-.69-1.9-.69H68.2c-1.1 0-2.2.296-2.2 1.575v1.378c.1.393.2.885.5 1.279zm25.8-1.083l1.3-.688v19.48c0 .787.4 1.476 1 2.066.7.59 1.5.787 2.4.787h16.6c.8 0 1.5-.295 2-.885.2-.295.4-.492.5-.787l.2-.492V14.856c0-.59-.4-1.18-.8-1.574-.6-.492-1.3-.688-2.1-.688H97c-1 0-2.1.196-2.7.983l-2 2.263zm18.3 16.53c-.1 0-.1.098-.2.098l-.6.393h-5.6l-.5-.196c-.1 0-.2-.099-.3-.197l-1.2-.689V27.45c0-.984-.1-2.46-.9-3.148L99 22.137l-.3-.492c-.2-.393-.2-.885-.2-1.279v-3.05h13v14.365l-.9.688zm9-2.952l1.3 6.985c.2.886.9 1.18 1.7 1.18h5c1.1 0 1.8-.491 1.8-1.672V17.316h9.2V36.01c0 1.18.7 1.574 1.9 1.574h1.6c.4 0 .7-.099 1-.394.3-.295.4-.59.4-.984v-18.89h9.2V36.01c0 1.18.8 1.574 1.9 1.574h1.6c.4 0 .8-.099 1-.394.3-.295.4-.59.4-.984v-20.66c0-1.969-1-2.854-3-2.854h-27.5c-1.9 0-2.6 1.082-2.6 2.853v4.92c0 .393-.1.885-.2 1.279l-.2.491-2.3 2.165c-.3.295-.5.59-.6.885l-1.6 4.133z" fill="#3742FA"/><path d="M62.1 23.81c0 1.77-.1 3.443-.3 5.017 2.6-1.574 4.8-3.345 6.4-5.116-1.6-1.77-3.9-3.542-6.6-5.214.3 2.164.5 4.034.5 5.313zm-9.4-6.1c3.3 0 5.9 2.656 5.9 5.903 0 3.247-2.7 5.903-5.9 5.903-3.3 0-5.9-2.656-5.9-5.903-.1-3.247 2.6-5.903 5.9-5.903zm15.9 5.51c-1.7-1.968-4.2-3.838-7.1-5.609-.2-1.082-.4-2.263-.7-3.443 4.1-.295 7.5.295 9.5 1.87.7.59.8.688.8 1.573 0 1.771-.9 3.739-2.5 5.608zm-19.3 9.15c.8.295 1.5.59 2.3.786-2.1.59-4.1.984-6 1.083-.4-1.378-.7-2.755-1-4.33 1.8 1.181 3.5 1.968 4.7 2.46zm3.5 1.18c-2.5.787-4.9 1.18-7.1 1.377 1.3 4.034 3.4 6.986 5.8 7.871.8.296 1 .296 1.8-.196 2.2-1.181 4-4.034 5.3-7.871-1.9-.197-3.8-.59-5.8-1.181zm7.6 1.476c-1.4 4.23-3.5 7.182-6 8.068-1.3.393-3 .196-4.2-.492-2.1-1.181-3.9-3.837-5.2-7.576-4.7.295-8.4-.689-10-2.952-2-2.755-.9-5.706 1.4-8.363-2.3-2.656-3.3-5.608-1.4-8.363 1.6-2.164 5.3-3.246 10-2.951 1.5-4.428 3.8-7.478 6.5-8.068 4.6-1.082 7.3 3.148 8.9 8.068 4.5-.295 8.2.492 9.9 2.558.9 1.082 1.3 2.656 1.1 4.034-.2 1.476-1 3.148-2.3 4.722 1.3 1.574 2.1 3.247 2.3 4.723.2 1.377-.2 2.951-1.1 4.034-1.8 1.967-5.4 2.853-9.9 2.558zm-.9-18.399c-.1-.787-.3-1.475-.5-2.164-1 .098-2.1.295-3.2.59.1 0 .2.099.3.099 1.3.393 2.4.983 3.4 1.475zm-6.7-2.656c2-.59 4-.984 5.8-1.28-1.3-4.131-3.4-7.083-5.8-8.067-.6-.295-.8-.197-1.4.099-2.3.983-4.3 3.837-5.6 7.87 2.1.099 4.5.59 7 1.378zm-15.2 11.02c-1.8 2.065-2.8 4.132-2.8 5.903 0 .688.1.787.6 1.279 1.8 1.77 5.2 2.46 9.4 2.164-.5-1.476-.8-3.05-1.1-4.82-2.1-1.28-4.3-2.854-6.1-4.527zm-2.2-9.643c-.5.492-.6.59-.6 1.28 0 1.869 1 3.837 2.8 5.903 1.8-1.771 4-3.247 6.2-4.526.3-1.673.6-3.345 1.1-4.821-4.3-.295-7.7.393-9.5 2.164zm10.1-2.164c-.4 1.377-.7 2.755-1 4.329 1.9-1.082 3.6-1.87 4.7-2.361.8-.296 1.5-.59 2.3-.787-2.1-.59-4.1-.984-6-1.181zm9.2 2.164c-1.5.394-3.1.886-4.7 1.575-2.1.787-4 1.77-5.8 2.754-.1 1.28-.2 2.657-.2 4.034 0 1.378.1 2.755.2 4.034 1.7.984 3.7 1.968 5.7 2.755 1.6.59 3.2 1.18 4.7 1.574.4-.197.8-.295 1.3-.492 1.3-.492 2.6-1.082 3.8-1.672.3-1.968.5-4.034.5-6.199 0-2.164-.2-4.329-.5-6.296-1.2-.59-2.4-1.181-3.7-1.673-.5-.098-.9-.295-1.3-.394zm13.9 8.855c1.6 1.87 2.5 3.837 2.5 5.51 0 .885-.1.984-.8 1.574-1.9 1.574-5.3 2.165-9.4 1.87.3-1.083.5-2.263.7-3.542 2.9-1.575 5.3-3.444 7-5.412zm-9.5 8.855c.2-.689.3-1.476.5-2.164-1.1.491-2.2 1.082-3.3 1.475-.1 0-.2.099-.3.099 1 .295 2.1.492 3.1.59zm-15.6-5.706c-.1-1.181-.2-2.362-.2-3.64 0-1.181.1-2.46.2-3.543-1.8 1.181-3.4 2.362-4.7 3.64 1.3 1.181 2.9 2.362 4.7 3.543z" fill="#3742FA"/></g></svg>