<svg width="503" height="400" xmlns="http://www.w3.org/2000/svg"><defs><linearGradient x1="49.99%" y1="100.007%" x2="49.99%" y2="-.002%" id="a"><stop stop-color="gray" stop-opacity=".25" offset="0%"/><stop stop-color="gray" stop-opacity=".12" offset="54%"/><stop stop-color="gray" stop-opacity=".1" offset="100%"/></linearGradient></defs><g fill="none" fill-rule="evenodd"><path fill="#FFF" d="M-772-3284H668v5659H-772z"/><g transform="translate(-37 -16)" fill-rule="nonzero"><ellipse fill="#6C63FF" opacity=".1" cx="279.223" cy="401.452" rx="207.119" ry="14.337"/><path d="M53.885 61.954c-12.907 15.076-16.172 34.187-16.35 52.51-.124 12.922 1.645 26.938 12.455 36.467 14.228 12.537 41.546 15.008 48.595 31.03 6.251 14.236-8.295 28.558-22.269 38.605-13.973 10.048-30.02 22.35-27.408 37.31 1.654 9.554 10.728 17.053 19.777 23.349 17.205 11.995 36.545 22.489 58.347 27.594 39.555 9.25 82.28-.326 119.344-14.826 22.816-8.925 49.306-19.88 71.964-10.7 5.982 2.423 11.06 6.084 16.575 9.116 16.037 8.766 35.622 11.996 54.683 14.735 27.938 4.03 57.299 7.394 84.217.125 26.918-7.27 50.182-28.53 46.061-51.206-3.885-21.361-28.62-35.286-48.33-49.877-6.954-5.148-14.032-11.971-12.3-19.461 1.374-5.94 7.847-10.076 13.617-13.915 30.37-20.315 52.692-48.36 62.954-79.112 4.847-14.51 6.597-31.226-4.218-43.461-8.722-9.87-23.672-14.61-37.89-18.512-26.385-7.24-53.429-13.358-81.179-15.008-27.75-1.65-56.419 1.497-81.053 11.942-11.814 5.014-22.523 11.617-34.453 16.444-33.871 13.703-73.782 11.86-111.558 9.697-13.498-.773-27.606-2.145-39.325-8.028-10.098-5.076-15.868-8.713-28.37-9.28-24.504-1.108-49.855 8.042-63.886 24.462z" fill="#6C63FF" opacity=".1"/><path fill="#535461" d="M236.802 165.23l-.53 1.088-3.428 7.03-35.963 73.685-61.025 149.203-8.723.068 61.06-149.271L229.8 161.77l3.043 1.502 3.429 1.693z"/><path fill="#535461" d="M343.869 396.304l-7.18-.068-61.03-149.203-35.015-71.752-4.371-8.963-.534-1.089.534-.264 4.37-2.159 2.102-1.036 40.983 85.263z"/><path fill="#535461" d="M232.844 141.728h7.804v254.576h-7.804zm3.01-41.941c-5.481.006-9.924 4.438-9.93 9.908v3.541a9.908 9.908 0 0 0 4.903 8.767 9.953 9.953 0 0 0 10.06 0 9.908 9.908 0 0 0 4.902-8.767v-3.54c-.008-5.471-4.452-9.903-9.935-9.909zm7.449 13.435c0 4.107-3.337 7.437-7.453 7.437-4.117 0-7.454-3.33-7.454-7.437v-3.541c0-4.107 3.337-7.437 7.454-7.437 4.116 0 7.453 3.33 7.453 7.437v3.541z"/><path fill="#000" opacity=".1" d="M283.728 247.033h-8.068l-35.016-71.752v71.752h-7.8v-73.685l-35.963 73.685h-8.689l41.609-85.263 3.043 1.502v-21.544h7.8v21.078l2.101-1.036zM245.789 110.05v3.186a9.908 9.908 0 0 1-4.902 8.767 9.953 9.953 0 0 1-10.06 0 9.908 9.908 0 0 1-4.902-8.767v-3.186h2.481v3.186c0 4.108 3.337 7.438 7.453 7.438 4.117 0 7.454-3.33 7.454-7.438v-3.186h2.476z"/><path fill="#535461" d="M85.809 110.761h300.097v135.212H85.809z"/><path fill="#FFF" d="M91.132 115.007h288.744v123.178H91.132z"/><path d="M119.646 128.399h13.651v6.204h-13.651zm0 12.001h13.651v6.203h-13.651zm0 11.994h13.651v6.204h-13.651zm0 11.996h13.651v6.204h-13.651zm0 12h13.651v6.203h-13.651zm0 11.995h13.651v6.204h-13.651zm0 11.995h13.651v6.204h-13.651zm0 11.995h13.651v6.204h-13.651zm25.702 6.21H159v6.204h-13.65zm24.048 0h13.65v6.204h-13.65zm24.043 0h13.65v6.204h-13.65zm24.046 0h13.651v6.204h-13.65zm24.043 0h13.651v6.204h-13.65zm24.048 0h13.65v6.204h-13.65zm24.043 0h13.65v6.204h-13.65zm24.047 0h13.651v6.204h-13.65zm24.044 0h13.65v6.204h-13.65z" opacity=".2" fill="#6C63FF"/><path fill="#6C63FF" d="M145.348 173.492h13.651v38.884h-13.651zm24.048-17.993h13.651v56.882h-13.651zm24.042-15.1h13.651v71.982h-13.651zm24.048 7.826h13.651v64.151h-13.651zm24.043-13.618h13.651v77.773h-13.651z"/><path d="M265.576 164.39h13.65v47.986h-13.65zm24.043 0h13.65v47.986h-13.65zm24.047 0h13.651v47.986h-13.65zm24.044 0h13.65v47.986h-13.65z" opacity=".2" fill="#6C63FF"/><path fill="#535461" d="M336.142 164.284l-116.896 7.178v2.274l119.386-4.726z"/><path d="M474.541 211.67s6.117-10.037 4.491-25.785c-1.625-15.747-7.506-41.235-7.506-41.235s2.554-14.28-11.295-16.285c0 0-8.607-1.598-14.762-5.46-2.29-1.44-4.237-3.181-5.29-5.278 0 0-.081.235-.24.667a7.61 7.61 0 0 1-.375-.667s-.034.086-.087.24l-2.351-3.657s-.322.341-.866.903a24.398 24.398 0 0 1-2.404-4.319c.585-.14 1.158-.324 1.717-.547a3.367 3.367 0 0 0 1.399-.892 3.537 3.537 0 0 0 .635-1.579c.375-1.824.482-3.692.317-5.547-.13-1.439-.423-2.878-.322-4.342.106-1.56.659-3.066.736-4.63.134-2.754-1.236-5.374-2.929-7.557-1.01-1.3-2.144-2.51-3.02-3.901-.76-1.21-1.312-2.543-2.13-3.719-1.923-2.735-5.13-4.347-8.42-4.918-3.289-.57-6.674-.216-9.968.327-2.885.48-5.77 1.175-8.655 1.343-2.52.144-4.573-.705-6.881.96a6.637 6.637 0 0 0-2.683 4.798 2.53 2.53 0 0 0 .072.96c.136.323.297.636.48.935 1.025 2.015-.533 4.41-.331 6.66a4.453 4.453 0 0 0 3.943 3.877c-.091.192-.192.379-.279.576a19.865 19.865 0 0 0 1.01 18.083 19.95 19.95 0 0 0 15.277 9.78l.894.686a95.062 95.062 0 0 1 6.477 5.455l-.043.034-.356-.202a19.159 19.159 0 0 1-2.096 1.44c-2.025 1.238-5.29 2.845-8.964 3.027 0 0-6.578 3.479-8.842 14.951-3.251 2.908-10.209 8.157-19.403 9.525-12.92 1.919-28.851 2.547-28.851 2.547s-.13.23-.313.653l-1.471-.269s0 .178-.063.48l-.577-.259c-4.563-1.991-13.68-4.894-14.834 3.104-1.549 10.73 8.703 9.496 8.703 9.496a47.884 47.884 0 0 1 6.218-1.886l.572-.11c.097.28.233.545.404.787h1.394c.485 1 1.07 1.948 1.746 2.83l32.496-.71s5.554-1.208 10.68-.44c-2.236 16.678-4.876 34.968-4.876 34.968s-5.53 28.967-1.659 31.994a59.006 59.006 0 0 1 6.857-1.833c.035 1.79.225 3.574.567 5.331l2.477 16.175s.962 16.525 4.178 26.39l2.837 13.482 2.376 10.192 1.337 17.297a163.958 163.958 0 0 1 3.972 22.283c1.255 11.62 8.068 30.4 8.977 32.872-2.327 3.287-7.107 8.862-13.103 9.438-8.56.825-8.766 5.973-2.784 7.826 5.982 1.852 18.57 0 18.57 0l17.753-4.381c-.533 3.267-.812 5.849-.423 6.127 1.135.825 18.364 5.278 18.984-1.852.049-.589.092-1.16.13-1.713a36.196 36.196 0 0 0-1.803-13.483 20.74 20.74 0 0 1-.375-1.29c.256-.286.49-.589.702-.907 0 0 1.24-19.25 2.169-26.15.072-.552.12-1.224.144-1.982.428-8.272-2.597-30.032-2.597-30.032s-3.736-14.154-3.596-20.66a6.15 6.15 0 0 1 .274-1.593s0-.13-.048-.346c0-.091.043-.187.072-.273 0 0-1.895-12.955-1.63-20.661a15.95 15.95 0 0 1 .48-3.407c.301-1.464.454-2.954.457-4.448.24-5.278-.038-14.394-.423-22.945.043-.144.087-.287.12-.455a4.453 4.453 0 0 0-.235-2.016c-.03-.551-.053-1.098-.082-1.64a19.04 19.04 0 0 0 .404-1.714h.25v.034s16.166-.772 19.883-5.096c0 0-3.755-11.645-5.837-21.111l2.447-5.35zm-69.666-36.22l-.255-.092c.409-1.44.895-3.114 1.443-4.87-.467 1.9-.87 3.627-1.188 4.961zm16.407-47.738l.072.068-.077-.044.005-.024zm20.196 249.754c-.87-2.99-4.328-15.177-4.217-20.987a5.91 5.91 0 0 1 .264-1.488 11.09 11.09 0 0 0 .48-3.248c.347-6.065-1.98-16.933-1.98-16.933s-5.208-14.658-4.809-26.298c0-.293.034-.586.053-.878a88.52 88.52 0 0 0 .202-3.56v-.025c.197-4.495.154-9.908.024-14.955l-.029-.188c-.178-6.683-.51-12.7-.649-15.08.481 3.44 3.558 24.854 4.886 28.357 0 0 .726 9.88 4.024 18.233l3.616 21.716s.928 25.843 2.472 33.15c.692 3.254 1.279 5.447 1.717 6.877-.625 2.912-1.635 7.792-2.313 11.832-.4-2.634-1.804-12.672-3.737-16.525h-.004z" fill="url(#a)"/><path d="M426.018 378.133s-6.035 10.916-14.522 11.731c-8.487.816-8.689 5.917-2.76 7.754 5.93 1.838 18.407 0 18.407 0l17.792-4.385s-2.15-17.552-5.01-18.468c-2.862-.917-13.907 3.368-13.907 3.368z" fill="#4C4C78"/><path d="M447.705 378.334s-4.501 20.2-3.366 21.021c1.135.82 18.2 5.201 18.816-1.837.048-.592.09-1.158.13-1.699a35.943 35.943 0 0 0-1.79-13.363c-.48-1.44-.817-2.98-.692-4.122.284-2.854-13.098 0-13.098 0z" fill="#4C4C78"/><path d="M442.122 122.588s-13.805 33.837-11.348 22.969c1.625-7.197-8.882-16.76-16.147-22.379-3.698-2.879-6.554-4.707-6.554-4.707s25.918-30.151 24.08-17.144a19.552 19.552 0 0 0 1.415 10.499c2.86 6.784 8.554 10.762 8.554 10.762zm-88.184 48.068c-.73-.187-1.923-.067-3.16.197a47.547 47.547 0 0 0-6.159 1.866s-10.16 1.224-8.626-9.409c1.14-7.927 10.174-5.048 14.7-3.08a33.97 33.97 0 0 1 2.557 1.242l.688 9.184z" fill="#FFB9B9"/><path d="M353.938 170.656c-.73-.187-1.923-.067-3.16.197-1.105-2.783-.264-9.38-.086-10.623a33.97 33.97 0 0 1 2.558 1.242l.688 9.184z" fill="#000" opacity=".1"/><path d="M353.981 160.503l-2.659-.48s-1.36 9.117.419 11.516h3.058l-.818-11.036z" fill="#CBCDDA"/><path d="M407.313 177.138s-8.127-4.85-9.098 1.272c-.971 6.122-2.25 16.582-2.25 16.582l-2.25 13.315-2.915 26.678.41 4.539s8.654-2.908 10.684-1.886c2.029 1.022 3.683-11.223 3.683-11.223l3.366-12.652.51-26.832-2.14-9.793z" fill="#4C4C78"/><path d="M407.313 177.138s-8.127-4.85-9.098 1.272c-.971 6.122-2.25 16.582-2.25 16.582l-2.25 13.315-2.915 26.678.41 4.539s8.654-2.908 10.684-1.886c2.029 1.022 3.683-11.223 3.683-11.223l3.366-12.652.51-26.832-2.14-9.793z" fill="#000" opacity=".1"/><path d="M402.932 145.71s-8.434 9.491-21.239 11.4c-12.805 1.91-28.606 2.53-28.606 2.53s-3.986 7.115 1.765 14.691l32.217-.71s7.131-1.545 12.656 0l3.207-27.91z" fill="#4C4C78"/><path d="M402.932 145.71s-8.434 9.491-21.239 11.4c-12.805 1.91-28.606 2.53-28.606 2.53s-3.986 7.115 1.765 14.691l32.217-.71s7.131-1.545 12.656 0l3.207-27.91z" fill="#000" opacity=".05"/><path d="M432.202 111.533c-3.145 6.718-8.612 11.67-16.541 11.67-.351 0-.693 0-1.034-.025-3.698-2.879-6.554-4.707-6.554-4.707s25.918-30.151 24.08-17.144c-.567 3.983-1.216 7.217.049 10.206z" fill="#000" opacity=".1"/><path d="M435.414 102.872c-.008 10.888-8.859 19.708-19.77 19.702-10.91-.007-19.751-8.837-19.747-19.724.005-10.887 8.853-19.71 19.764-19.708a19.737 19.737 0 0 1 13.986 5.77 19.65 19.65 0 0 1 5.767 13.96z" fill="#FFB9B9"/><path d="M447.488 223.354s-44.065 3.882-45.68-1.732c-1.617-5.614 4.495-20.814 4.495-20.814l-1.99-21.223-.073-.81s5.52-22.96 5.319-24.793c-.193-1.65 8.886-20.915 10.751-24.854.222-.456.337-.705.337-.705l.351.201.154.091 2.159 1.257 8.526-2.015 10.275-5.369.962 58.734 4.414 42.032z" fill="#CBCDDA"/><path d="M424.585 129.133s-3.015-.816-4.193 2.192a31.152 31.152 0 0 1-1.635 3.777l-1.173 6.986-2.15 11.036-1.586 48.82.716 8.671 3.938-6.986.717-45.635v-5.677a41.017 41.017 0 0 1 3.28-14.25l.547-1.281 3.424-4.39-1.885-3.263z" fill="#000" opacity=".1"/><path d="M423.975 128.519s-3.02-.816-4.194 2.192a30.903 30.903 0 0 1-1.64 3.776l-1.173 6.991-2.149 11.036-1.582 48.821.717 8.675 3.938-7.01.716-45.606v-5.69a41.233 41.233 0 0 1 3.28-14.251l.553-1.281 3.423-4.386-1.89-3.267z" fill="#4C4C78"/><path d="M436.857 115.919s-10.43 11.035-14.113 12.345c0 0 1.841 8.368 3.683 10 0 0 10.944-11.137 12.882-12.039l1.625-3.968-4.077-6.338z" fill="#000" opacity=".1"/><path d="M436.857 115.29s-10.43 11.036-14.113 12.346c0 0 1.841 8.368 3.683 10 0 0 10.944-11.137 12.882-12.04l1.625-3.963-4.077-6.343z" fill="#CBCDDA"/><path d="M421.258 128.423l-.106.287-3.342 8.94-5.977 16.865s-.053.173-.159.48c-.99 3.07-6.313 19.735-7.362 24.576l-.072-.811s5.52-22.96 5.319-24.792c-.193-1.65 8.886-20.915 10.751-24.854.299-.202.53-.375.688-.504l.26-.187z" fill="#000" opacity=".1"/><path d="M420.647 128.418l-3.453 9.231-5.977 16.866s-.052.173-.158.48c-1.048 3.272-7.026 21.951-7.506 25.368-.544 3.752-8.06 24.034-8.06 24.034l-4.294 35.117c-3.846-2.98 1.616-31.668 1.616-31.668s6.136-42.545 7.588-56.7c1.452-14.154 9.285-18.29 9.285-18.29 3.616-.182 6.877-1.775 8.882-2.999a18.754 18.754 0 0 0 2.077-1.44z" fill="#4C4C78"/><path d="M463.948 354.358c-.918 6.837-2.145 25.91-2.145 25.91-4.294 6.425-13.805 2.956-13.805 2.956s-1.02-1.92-2.553-9.184c-1.534-7.264-2.453-32.853-2.453-32.853l-3.582-21.496c-3.27-8.267-3.986-18.06-3.986-18.06-1.443-3.776-4.91-28.568-4.91-28.568s1.443 22.24.515 33.976 4.698 27.527 4.698 27.527 3.173 14.797 1.534 19.39c-1.64 4.59 4.092 23.563 4.092 23.563-.481 5.513-16.763 3.267-16.763 3.267s-7.66-20.512-9.002-32.857a162.818 162.818 0 0 0-3.938-22.072l-1.327-17.144-2.356-10.133-2.808-13.363c-3.174-9.793-4.14-26.17-4.14-26.17l-2.458-16.068c-1.606-7.946.481-17.274 1.866-22.154.601-2.116 1.082-3.406 1.082-3.406 1.409.998 9.478 2.169 13.651 3.119 2.285.525 4.634.712 6.973.556a155.666 155.666 0 0 0 31.154-5.7 48.016 48.016 0 0 0 1.054-.326l.216 1.837.51 4.376.908 7.769s2.76 41.422 1.126 47.021c-1.635 5.6 1.125 24.471 1.125 24.471-1.534 4.477 3.27 22.671 3.27 22.671s3.375 24.308 2.452 31.145z" fill="#000" opacity=".1"/><path d="M463.948 353.758c-.918 6.838-2.145 25.91-2.145 25.91-4.294 6.43-13.805 2.956-13.805 2.956s-1.02-1.92-2.553-9.179c-1.534-7.26-2.453-32.858-2.453-32.858l-3.582-21.524c-3.246-8.267-3.986-18.084-3.986-18.084-1.443-3.777-4.91-28.569-4.91-28.569s1.443 22.24.515 33.976 4.698 27.546 4.698 27.546 3.173 14.798 1.534 19.39c-1.64 4.592 4.092 23.568 4.092 23.568-.481 5.509-16.763 3.263-16.763 3.263s-7.66-20.488-9.002-32.839a162.818 162.818 0 0 0-3.938-22.071l-1.327-17.14-2.356-10.1-2.808-13.362c-3.174-9.798-4.14-26.174-4.14-26.174l-2.458-16.069c-1.606-7.946.481-17.273 1.866-22.153.601-2.111 1.082-3.402 1.082-3.402 1.409.998 9.478 2.164 13.651 3.114a23.83 23.83 0 0 0 6.973.557 155.666 155.666 0 0 0 31.154-5.7l1.054-.322.216 1.833.51 4.38.908 7.769s2.76 41.417 1.126 47.022c-1.635 5.604 1.125 24.47 1.125 24.47-1.534 4.472 3.27 22.667 3.27 22.667s3.375 24.278 2.452 31.125z" fill="#474463"/><path d="M435.414 102.872a19.64 19.64 0 0 1-2.616 9.827c-3.077.542-6.352-.058-8.655-2.087-1.577-1.387-2.597-3.282-3.953-4.89a29.643 29.643 0 0 0-2.822-2.778 8.958 8.958 0 0 0-2.227-1.617 3.03 3.03 0 0 0-2.669-.028c-1.086.604-1.442 1.952-2.072 3.027a4.05 4.05 0 0 1-2.265 1.972 2.407 2.407 0 0 1-2.707-.916c-.668-1.147-.178-2.937-1.298-3.637a7.16 7.16 0 0 0-.914-.374c-1.443-.653-1.61-2.587-1.736-4.17-.062-.777-.23-1.655-.885-2.073-.654-.417-1.514-.206-2.293-.192a2.94 2.94 0 0 1-.688-.052c3.785-8.513 13.023-13.223 22.153-11.294 9.13 1.929 15.663 9.97 15.666 19.282h-.019z" fill="#000" opacity=".1"/><path d="M396.402 77.231a6.58 6.58 0 0 0-2.659 4.77 2.46 2.46 0 0 0 .072.935c.135.323.295.634.481.93 1.01 2.002-.534 4.372-.336 6.603a4.396 4.396 0 0 0 4.327 3.839c.78 0 1.635-.23 2.294.192.659.422.822 1.295.885 2.072.125 1.584.283 3.518 1.73 4.17.313.106.618.231.914.374 1.126.7.635 2.495 1.304 3.637a2.407 2.407 0 0 0 2.707.917 4.037 4.037 0 0 0 2.26-1.967c.62-1.08.99-2.4 2.077-3.028a3.016 3.016 0 0 1 2.669.024c.821.423 1.572.97 2.226 1.622a29.08 29.08 0 0 1 2.823 2.778c1.356 1.602 2.375 3.498 3.952 4.884 2.972 2.606 7.521 2.88 11.185 1.377a3.396 3.396 0 0 0 1.39-.882c.334-.465.55-1.003.63-1.57.372-1.806.479-3.656.317-5.493-.13-1.44-.423-2.88-.322-4.319.1-1.545.654-3.037.73-4.582.135-2.735-1.225-5.33-2.884-7.495-1-1.29-2.126-2.485-2.991-3.867-.755-1.2-1.303-2.519-2.111-3.68-1.895-2.711-5.088-4.319-8.348-4.88-3.26-.561-6.612-.216-9.877.326-2.846.48-5.712 1.162-8.597 1.33-2.525.177-4.559-.672-6.848.983z" fill="#472727"/><path d="M420.647 128.418l-3.453 9.231-5.977 16.866s-.052.173-.158.48v.024l7.52-25.171c.72-.43 1.412-.908 2.068-1.43z" fill="#000" opacity=".1"/><path d="M457.971 234.068s.356 11.17-2.66 13.977l-8.025-15.1 6.732-3.267 3.953 4.39z" fill="#FFB9B9"/><path d="M476.705 238.147c-3.683 4.285-19.715 5.052-19.715 5.052l-15.868-24.95s-3.756-2.6-10.81-14.313c-7.054-11.712-6.823-20.733-6.429-27.47.394-6.736 4.809-26.097 4.809-26.097.687-4.356 10.579-31.667 10.579-31.667 1.038 2.068 2.971 3.795 5.231 5.22 6.107 3.838 14.633 5.412 14.633 5.412 13.733 1.991 11.199 16.146 11.199 16.146s.154 55.02-.693 61.604c-.846 6.583 7.064 31.063 7.064 31.063z" fill="#000" opacity=".1"/><path fill="#CBCDDA" d="M458.178 236.208l-.462 4.084-5.573-2.04-4.087-6.175 3.068-2.399z"/><path d="M457.98 220.394l-2.913.297-28.097 2.802a45.61 45.61 0 0 1-13.512-.662l-13.03-2.6c.6-2.112 1.081-3.402 1.081-3.402 1.409.998 9.478 2.164 13.651 3.114a23.83 23.83 0 0 0 6.973.556 155.666 155.666 0 0 0 31.154-5.7l1.27 1.511 3.424 4.084z" fill="#000" opacity=".1"/><path d="M401.814 216.989a2.65 2.65 0 0 1-.28-.16s0 .03-.03.075l.31.085zm59.706 105.639s-4.809-18.195-3.27-22.667c0 0-2.76-18.856-1.12-24.47 1.64-5.614-1.13-47.022-1.13-47.022l-.91-7.768-.51-4.381-.21-1.833-1.059.322-.653.192.081.71.51 4.376.909 7.768s2.76 41.422 1.13 47.022c-1.63 5.6 1.12 24.47 1.12 24.47-1.534 4.477 3.27 22.667 3.27 22.667s3.366 24.288 2.457 31.12c-.909 6.833-2.15 25.91-2.15 25.91-3.134 4.698-9.054 4.113-12.02 3.455l.052.115s9.512 3.474 13.806-2.955c0 0 1.226-19.082 2.149-25.91.923-6.828-2.452-31.121-2.452-31.121zm-24.23 30.712c1.634-4.59-1.535-19.388-1.535-19.388s-5.62-15.834-4.702-27.547c.384-4.889.36-11.597.197-17.753-1.303-7.94-2.553-16.793-2.553-16.793s1.442 22.24.519 33.97c-.923 11.732 4.698 27.552 4.698 27.552s3.173 14.792 1.534 19.384c-1.64 4.592 4.082 23.545 4.082 23.545-.409 4.414-10.915 3.838-15.084 3.454l.158.423s16.258 2.245 16.768-3.263c.01-.015-5.718-18.991-4.083-23.583z" opacity=".1" fill="#000"/><path d="M477.316 238.147c-3.679 4.285-19.715 5.052-19.715 5.052l-15.868-24.95s-3.756-2.6-10.815-14.313c-7.059-11.712-6.818-20.733-6.429-27.47.39-6.736 4.809-26.097 4.809-26.097.687-4.356 10.578-31.667 10.578-31.667 1.034 2.068 2.967 3.795 5.232 5.22 6.107 3.838 14.633 5.412 14.633 5.412 13.728 1.991 11.194 16.146 11.194 16.146s.154 55.02-.693 61.604c-.846 6.583 7.074 31.063 7.074 31.063z" fill="#4C4C78"/><path d="M442.814 132.242l-3.452 1.281 2.298 1.607-17.166 41.322c.399-6.717 4.808-26.097 4.808-26.097.688-4.357 10.58-31.668 10.58-31.668 1.033 2.068 2.966 3.795 5.23 5.22l-2.298 8.335zm4.141 73.613l17.56-4.515 2.304 7.116-17.946 4.366z" fill="#000" opacity=".1"/><path d="M457 135.15s-7.978 7.49-4.968 24.182c3.01 16.693 7.824 34.816 7.824 34.816l-12.983 35.89s9.05 9.414 13.497 10.556l12.96-28.698s6.058-9.946 4.447-25.555c-1.61-15.608-7.438-40.866-7.438-40.866s.004-15.373-13.34-10.325z" fill="#000" opacity=".1"/><path d="M457.61 135.15s-7.982 7.49-4.981 24.182c3 16.693 7.818 34.816 7.818 34.816l-12.983 35.89s9.05 9.414 13.498 10.556l12.983-28.698s6.059-9.946 4.448-25.555c-1.611-15.608-7.439-40.866-7.439-40.866s0-15.373-13.344-10.325z" fill="#4C4C78"/><path d="M447.897 230.8s10.122 13.983 9.357 17.706c-.764 3.723-3.73 1.732-3.73 1.732l-3.987-5.455-3.583-10.206s.351-4.405 1.943-3.776z" fill="#000" opacity=".1"/><path d="M446.67 230.8s10.099 13.983 9.358 17.706c-.74 3.723-3.731 1.732-3.731 1.732l-3.991-5.455-3.578-10.206s.351-4.405 1.943-3.776z" fill="#000" opacity=".1"/><path d="M447.286 230.8s10.098 13.983 9.353 17.706c-.745 3.723-3.731 1.732-3.731 1.732l-3.987-5.455-3.577-10.206s.346-4.405 1.942-3.776z" fill="#474463"/></g></g></svg>