<svg width="540" height="478" xmlns="http://www.w3.org/2000/svg"><g fill="none" fill-rule="evenodd"><path fill="#FFF" d="M-735-1967H705v5659H-735z"/><path d="M241.58 184.994c-21.129-6.822-43.469-12.542-66.3-11.952-33.565.87-65.838 16.475-81.755 39.539-13.454 19.544-15.25 42.515-21.123 64.248-7.236 26.775-20.97 52.185-35.63 77.035-7.874 13.347-16.18 26.974-17.549 41.64-1.878 20.361 10.488 40.717 29.985 54.362 19.497 13.644 45.44 20.916 71.506 22.614 13.87.899 28.365.204 40.714-4.78 13.062-5.252 22.615-14.864 35.73-20.058 12.155-4.809 26.323-5.427 39.959-4.721a222.795 222.795 0 0 1 52.097 8.905c19.005 5.673 36.665 13.838 55.63 19.592 18.964 5.754 40.163 9.01 59.596 4.383 18.245-4.342 32.717-15.046 45.768-25.889a497.06 497.06 0 0 0 58.467-57.192c11.787-13.65 22.767-28.066 28.031-44.015 10.056-30.5-3.416-65.03-33.559-86.034-24.972-17.409-58.567-25.095-91.465-29.764-30.003-4.3-64.715-4.727-92.29-15.681-26.3-10.476-50.225-23.326-77.812-32.232z" fill="#4285F4" fill-rule="nonzero" opacity=".1"/><ellipse fill="#4285F4" fill-rule="nonzero" opacity=".1" cx="512.449" cy="288" rx="13.525" ry="2"/><ellipse fill="#4285F4" fill-rule="nonzero" opacity=".1" cx="459.351" cy="292" rx="13.525" ry="2"/><ellipse fill="#4285F4" fill-rule="nonzero" opacity=".1" cx="398.237" cy="285" rx="13.525" ry="2"/><ellipse fill="#4285F4" fill-rule="nonzero" opacity=".1" cx="480.39" cy="307" rx="9.518" ry="1"/><ellipse fill="#4285F4" fill-rule="nonzero" opacity=".1" cx="425.288" cy="306" rx="9.518" ry="1"/><path d="M458.372 292s18.657-62.371-2.918-87.352c-16.113-18.69-34.46-16.436-42.66-14.14-4.296 1.166-7.874 4.198-9.783 8.293-2.878 6.31-2.348 16.553 17.897 28.51 33.902 20.02 36.014 47.485 36.014 47.485l1.45 17.204z" fill="#4285F4" fill-rule="nonzero"/><path d="M414.768 200s55.76 17.416 43.256 92m-10.194-86s-8.062 5.196-5.514 13m-21.536-10s4.494-3.255 10.018-1.46m12.022 25.659s7.96-3.17 10.019.801m11.02 10.024s-5.905-.392-6.011 1.976" stroke="#565987"/><path d="M458.85 293s-21.935-44.968-27.932-43.984c-2.886.466-4.18 3.307-4.774 6.154a18.242 18.242 0 0 0 1.195 10.947c3.111 7.197 11.464 20.862 31.51 26.883z" fill="#4285F4" fill-rule="nonzero"/><path d="M431.8 257s23.509 33.526 28.052 35m-30.056-29h6.011m0 12l8.015.62M441.818 265l-1.002 5m8.296 8l-.28 4" stroke="#565987"/><path d="M459.852 293s21.934-44.968 27.931-43.984c2.886.466 4.18 3.307 4.774 6.154a18.242 18.242 0 0 1-1.195 10.947c-3.111 7.197-11.464 20.862-31.51 26.883z" fill="#4285F4" fill-rule="nonzero"/><path d="M487.904 257s-23.51 33.526-28.052 35m30.055-29h-6.01m-.001 12l-8.015.62m2.004-10.62l1.002 5m-9.017 8l.29 4" stroke="#565987"/><path d="M421.043 302.022a3.837 3.837 0 0 1-1.213-1.88 1.693 1.693 0 0 1 .848-1.92c.78-.305 1.612.249 2.247.814.634.565 1.353 1.193 2.18 1.078a3.462 3.462 0 0 1-1.023-3.188 1.35 1.35 0 0 1 .28-.652c.433-.473 1.22-.265 1.736.104 1.646 1.193 2.107 3.488 2.118 5.552.08-.766.08-1.54 0-2.306a2.376 2.376 0 0 1 .837-2.024c.39-.22.83-.327 1.275-.311a2.604 2.604 0 0 1 2.073.605c.623.692.46 1.851-.085 2.612a8.113 8.113 0 0 1-2.14 1.73 4.762 4.762 0 0 0-1.533 1.499 1.865 1.865 0 0 0-.112.265h-4.64a12.783 12.783 0 0 1-2.848-1.978zm85.157-16.009a3.78 3.78 0 0 1-1.213-1.878 1.685 1.685 0 0 1 .848-1.912c.78-.306 1.612.247 2.246.806.635.559 1.36 1.198 2.185 1.077a3.446 3.446 0 0 1-1.028-3.185c.034-.239.133-.462.286-.645.433-.473 1.213-.271 1.73.103 1.645 1.187 2.106 3.456 2.117 5.547a10.69 10.69 0 0 0 0-2.304 2.373 2.373 0 0 1 .837-2.022 2.503 2.503 0 0 1 1.274-.305 2.58 2.58 0 0 1 2.072.576c.63.686.466 1.843-.084 2.604a8.025 8.025 0 0 1-2.14 1.762 4.76 4.76 0 0 0-1.532 1.498 1.43 1.43 0 0 0-.113.265h-4.638a12.933 12.933 0 0 1-2.847-1.987zm-28.054 16.009a3.837 3.837 0 0 1-1.21-1.88 1.695 1.695 0 0 1 .846-1.92c.779-.305 1.608.249 2.242.814.633.565 1.35 1.193 2.174 1.078a3.472 3.472 0 0 1-1.025-3.188 1.42 1.42 0 0 1 .286-.652c.431-.473 1.216-.265 1.732.104 1.642 1.193 2.101 3.488 2.113 5.552.09-.765.098-1.538.028-2.306a2.378 2.378 0 0 1 .835-2.024c.389-.22.828-.327 1.272-.311a2.594 2.594 0 0 1 2.068.605c.622.692.46 1.851-.084 2.612a8.099 8.099 0 0 1-2.135 1.73 4.757 4.757 0 0 0-1.53 1.499 1.867 1.867 0 0 0-.113.265h-4.63a12.75 12.75 0 0 1-2.869-1.978zM397.23 266s-2.008 2.406.926 6.036c2.933 3.63 5.343 6.7 4.371 8.964 0 0-4.423-6.743-8.024-6.838-3.6-.095-1.236-4.105 2.727-8.162z" fill="#4285F4" fill-rule="nonzero"/><path d="M397.282 266c-.18.232-.32.486-.42.755-3.55 3.785-5.443 7.321-2.03 7.41 3.184.084 7.003 5.242 7.914 6.538 0 .1-.066.202-.105.297 0 0-4.474-6.745-8.117-6.84-3.642-.095-1.251-4.101 2.758-8.16z" fill="#000" fill-rule="nonzero" opacity=".1"/><path d="M394.731 269.522c0 .82.16 1.478.36 1.478.201 0 .351-.659.351-1.478s-.2-.43-.39-.43-.321-.383-.321.43zm-2.529.978c.78.356 1.467.568 1.523.48.057-.088-.524-.449-1.305-.8-.78-.35-.475-.098-.537 0-.062.098-.462-.03.319.32z" fill="#FFD037" fill-rule="nonzero"/><path d="M408.26 266s2.008 2.406-.926 6.036c-2.935 3.63-5.345 6.7-4.367 8.964 0 0 4.418-6.743 8.02-6.838 3.603-.095 1.238-4.105-2.727-8.162z" fill="#4285F4" fill-rule="nonzero"/><path d="M408.21 266c.18.232.32.486.419.755 3.55 3.785 5.444 7.321 2.03 7.41-3.183.084-7.003 5.242-7.913 6.538.03.1.067.2.111.297 0 0 4.468-6.745 8.11-6.84 3.643-.095 1.252-4.101-2.757-8.16z" fill="#000" fill-rule="nonzero" opacity=".1"/><path d="M410.47 269.522c0 .82-.16 1.478-.36 1.478-.2 0-.351-.659-.351-1.478s.2-.43.39-.43.321-.383.321.43z" fill="#FFD037" fill-rule="nonzero"/><path d="M411.286 270.5c-.78.356-1.467.568-1.523.48-.057-.088.524-.449 1.305-.8.78-.35.474-.098.537 0 .062.098.462-.03-.319.32z" fill="#FFD037" fill-rule="nonzero"/><path d="M408.757 280.859s-4.838-.16-6.297-1.296c-1.46-1.137-7.45-2.494-7.83-.673-.38 1.822-7.27 9.06-1.812 9.108 5.459.05 12.706-.929 14.16-1.9 1.455-.973 1.779-5.24 1.779-5.24z" fill="#A8A8A8" fill-rule="nonzero"/><path d="M392.746 286.47c5.47.04 12.714-.781 14.175-1.598 1.12-.616 1.55-2.845 1.68-3.872h.156s-.302 3.595-1.764 4.401c-1.46.807-8.7 1.639-14.175 1.598-1.578 0-2.121-.514-2.093-1.29.24.468.845.755 2.02.76z" fill="#000" fill-rule="nonzero" opacity=".2"/><ellipse fill="#4285F4" fill-rule="nonzero" opacity=".1" cx="75.64" cy="35.5" rx="12.523" ry="12.5"/><ellipse fill="#4285F4" fill-rule="nonzero" opacity=".1" cx="294.045" cy="14.5" rx="12.523" ry="12.5"/><ellipse fill="#4285F4" fill-rule="nonzero" opacity=".1" cx="495.417" cy="64.5" rx="12.523" ry="12.5"/><ellipse fill="#4285F4" fill-rule="nonzero" opacity=".1" cx="21.039" cy="150" rx="21.039" ry="21"/><ellipse fill="#4285F4" fill-rule="nonzero" opacity=".1" cx="42.078" cy="255" rx="21.039" ry="21"/><ellipse fill="#4285F4" fill-rule="nonzero" opacity=".1" cx="438.813" cy="164" rx="21.039" ry="21"/><path d="M261.57 202.84c-.733.071-1.477.036-2.204.154a9.885 9.885 0 0 0-3.436 1.418c-5.21 3.05-10.129 7.241-12.287 12.986a1.81 1.81 0 0 0-.16 1.148c.127.322.337.603.606.813l2.027 1.895c.256.274.562.494.9.648a2.86 2.86 0 0 0 1.66-.053c5.57-1.313 11.491-2.826 15.402-7.111 1.855-2.031 3.567-4.827 6.298-4.904 1.145 0 2.216.453 3.344.589 1.128.135 2.485-.36 2.754-1.49a3.213 3.213 0 0 0-.183-1.666l-1.684-5.763c-.458-1.577-5.078-1.66-6.619-1.377-2.347.418-3.927 2.478-6.418 2.714zm21.156 31.516c-.081 1.93.075 3.883-.243 5.796a16.903 16.903 0 0 1-1.435 4.35 28.56 28.56 0 0 1-3.922 6.172c-1.459 1.729-3.206 3.354-5.368 4.033-2.163.68-4.82.19-6.17-1.63-1.102-1.481-1.154-3.457-1.073-5.307.196-4.546.911-9.156 2.953-13.224.876-1.729 1.989-3.377 2.883-5.122 1.868-3.625 2.935-7.923 6.158-10.424a20.258 20.258 0 0 0 6.401 1.757c.86.093 3.316.15 3.604 1.25.196.744-1.418 2.824-1.73 3.556a24.249 24.249 0 0 0-2.058 8.793z" fill="#65617D" fill-rule="nonzero"/><path d="M260.317 151.7c.69 1.806 1.565 3.578 1.726 5.503.115 1.18 0 2.361 0 3.542.097 1.618.359 3.221.782 4.783l3.204 13.462c.478 2.013.955 4.08.708 6.134-.167 1.37-.65 2.699-.645 4.074a16.17 16.17 0 0 0 .484 3.088 19.51 19.51 0 0 1-.484 9.388 1.44 1.44 0 0 0-.097.726c.08.384.443.62.77.803A32.272 32.272 0 0 0 277.867 207a113.92 113.92 0 0 0 7.305-26.776c.817-5.574 1.214-11.219 2.261-16.751.024-.32.156-.62.374-.85.391-.337.984-.124 1.444.1a128.098 128.098 0 0 1 16.917 10.038c3.832-5.094 5.263-11.672 3.906-17.956a37.806 37.806 0 0 0-2.876-7.723 43.886 43.886 0 0 0-4.89-8.425c-4.268-5.491-10.526-8.998-16.969-11.378-3.917-1.452-7.95-2.527-11.976-3.625-2.255-.62-6.034-2.64-8.225-1.069-2.301 1.636-3.831 5.692-4.775 8.266a31.164 31.164 0 0 0-1.875 9.973 28.844 28.844 0 0 0 1.83 10.876z" fill="#3F3D56" fill-rule="nonzero"/><path d="M306.568 167.376c-1.186 1.324-.188 3.436-.414 5.224a7.32 7.32 0 0 1-.834 2.293l-5.43 10.906a20.498 20.498 0 0 0-2.02 5.224c-.743 3.935.783 8.358-1.169 11.835-.63 1.12-1.605 2.083-1.866 3.349-.193.923 0 1.886-.097 2.82-.13 1.098-.703 2.084-1.02 3.14a22.335 22.335 0 0 0-.529 3.089c-.688 4.438-2.96 8.458-6.377 11.283a10 10 0 0 1-7.035 2.45c-2.53-.221-5.044-1.98-5.56-4.522-.176-.865-.142-1.828-.67-2.53-.748-1.005-2.326-1.045-3.046-2.073l2.791-4.701c.868-1.457 1.753-2.978 1.895-4.678.17-2.084-.811-4.162-.46-6.223.301-1.77 1.544-3.244 1.918-4.997.466-2.177-.465-4.376-.97-6.547-1.237-5.346.148-10.918 1.526-16.252 1.833-7.058 3.71-14.226 7.421-20.466 7.404 4.08 14.213 7.998 21.946 11.376z" fill="#3F3D56" fill-rule="nonzero"/><path d="M307.152 56.463c.455 1.244.21 2.623.122 3.943-.204 2.933.415 5.867.275 8.842-.14 2.975-1.05 5.814-1.681 8.707-1.792 8.255-1.36 16.857-2.983 25.147-2.001 10.268-7.12 19.832-8.13 30.252-.32 3.31-.28 6.853-2.083 9.646a150.487 150.487 0 0 1-30.186-17.825c2.054-15.32 4.086-30.715 3.811-46.17a19.922 19.922 0 0 1 .385-5.562 17.19 17.19 0 0 1 2.078-4.33c2.259-3.69 4.745-7.235 7.226-10.773 1.587-2.264 3.303-4.64 5.836-5.703 2.533-1.062 5.533-.586 8.293-.082l9.957 1.83c2.072.382 6.193-.345 7.08 2.078z" fill="#4285F4" fill-rule="nonzero"/><path d="M226.633 114.955a30.224 30.224 0 0 0-4.221-3.762c1.971-2.575 1.583-6.3 2.066-9.596a33.373 33.373 0 0 1 1.794-6.241c.2-.566.483-1.192 1.033-1.341.337-.045.68.013.988.167 1.666.631 5.143.596 6.437 1.752 1.56 1.407.133 4.351-.456 6.11-.416 1.18-6.814 13.805-7.641 12.91z" fill="#BE6F72" fill-rule="nonzero"/><path d="M231.748 221.541a11.954 11.954 0 0 1 1.665 4.612c.138 1.638-.46 3.43-1.855 4.296-1.393.865-3.392.576-5.05.057a26.296 26.296 0 0 1-15.926-14.413c-.524-1.211-.98-2.497-1.906-3.43a10.55 10.55 0 0 0-2.275-1.529c-2.264-1.28-4.447-2.963-5.495-5.35-1.048-2.387-.576-5.575 1.595-6.994a5.88 5.88 0 0 1 4.516-.576 17.454 17.454 0 0 1 4.273 1.862c2.235 1.217 4.965 2.266 6.912 3.886 1.728 1.424 3.277 3.35 4.752 5.027a70.692 70.692 0 0 1 4.74 6.054c.472.617 4.452 5.939 4.054 6.498zm-41.782-9.807a38.513 38.513 0 0 1-1.604 8.595c-.49 1.574-1.137 3.212-2.499 4.213a9.409 9.409 0 0 1-3.819 1.337 3.791 3.791 0 0 1-1.458.087c-.835-.168-1.428-.857-1.943-1.51-2.02-2.559-3.988-5.262-4.84-8.364-1.211-4.497 0-9.318 2.1-13.52a13.837 13.837 0 0 1 3.237-4.509 12.674 12.674 0 0 1 5.942-2.552c2.233-.428 4.975-1.343 5.138 1.256.24 4.989.154 9.988-.254 14.967z" fill="#65617D" fill-rule="nonzero"/><path d="M221.36 102c4.026 2.094 8.494 4.757 9.334 9.232.52 2.733-.478 5.53-.315 8.31.146 2.446 1.167 4.81 1.038 7.25a34.291 34.291 0 0 1-.583 3.43c-.344 2.165-.14 4.37-.227 6.558-.193 4.926-1.832 9.665-2.626 14.527-.561 3.472-.692 7-.39 10.504.192 2.264.583 4.517.583 6.792a29.91 29.91 0 0 1-.403 4.892 48.984 48.984 0 0 1-4.666 14.586c-2.806 5.554-2.41 12.721-2.112 18.944.13.857.02 1.735-.315 2.534-.735 1.343-2.567 1.536-4.084 1.407a22.127 22.127 0 0 1-14.583-7.425 3.766 3.766 0 0 1-1.062-1.976c-.128-1.256.875-2.288 1.598-3.326 2.462-3.519 1.838-8.287 2.13-12.61.212-3.144.96-6.23 2.21-9.12.724-1.671 1.628-3.32 1.791-5.138.152-1.695-.361-3.372-.869-4.99l-1.75-5.584c-2.713-8.675-5.443-17.402-9.55-25.501a12.755 12.755 0 0 0-5.395 7.624c-1.529 5.525.647 11.695-1.436 17.009-.344.737-.631 1.5-.857 2.281a9.227 9.227 0 0 0-.14 2.047c.054 5.717.4 11.427 1.038 17.108a5.3 5.3 0 0 0 .7 2.446c.344.499.846.868 1.214 1.343 1.02 1.332.828 3.197.583 4.856l-1.167 7.848c-.02.398-.152.782-.379 1.108a2.085 2.085 0 0 1-.992.54 27.51 27.51 0 0 1-11.468 1.056c-1.138-.135-2.17-.904-3.121-1.549-.1-1.173 1.353-1.953 1.406-3.12a2.697 2.697 0 0 0-.893-1.795c-2.17-2.463-4.76-5.079-4.737-8.369 0-.862.204-1.724.175-2.586-.076-2.212-1.592-4.106-2.123-6.235-.653-2.633.216-5.366.548-8.059.455-3.624-.081-7.296-.583-10.914l-1.954-13.279a35.735 35.735 0 0 0-1.214-6.088 47.79 47.79 0 0 0-2.584-5.712c-1.867-3.812-3.401-7.777-4.93-11.73a10.737 10.737 0 0 1-.904-3.396c-.087-2.012.945-3.912 2.229-5.46a16.966 16.966 0 0 1 9.334-5.69 4.062 4.062 0 0 1 1.872-.076 5.02 5.02 0 0 1 1.453.769 34.736 34.736 0 0 0 30.842 3.677c.583.446 1.662.252 2.333-.064 1.873-.863 3.401-2.3 5.046-3.52 3.063-2.334 7.193-4.55 10.955-5.366zM101.414 250.91a7.733 7.733 0 0 0 1.397 2.402c2.142 2.693 5.131 4.845 6.51 7.989.29.673.504 1.38.77 2.065a13.587 13.587 0 0 0 3.847 5.376 23.768 23.768 0 0 0 4.245 2.71c2.616 1.375 5.445 2.619 8.417 2.545a9.47 9.47 0 0 0 1.775-.206 9.837 9.837 0 0 0 2.646-.935c1.912-1.016 3.552-3.002 3.173-5.073a4.522 4.522 0 0 0-.385-1.141 11.931 11.931 0 0 0-1.083-1.65c-1-1.335-2.03-2.704-3.492-3.56-1.646-.97-3.718-1.21-5.197-2.408a7.946 7.946 0 0 1-1.498-1.746 21.625 21.625 0 0 1-2.96-6.465c-.45-1.712-.751-3.59-2.048-4.845-1.296-1.255-3.078-1.54-4.806-1.826a8.653 8.653 0 0 0-1.776-.165c-.846.028-1.722.262-2.515-.12-.793-.382-1.06-.924-2.019-.85-.763.1-1.482.401-2.077.873-2.25 1.603-3.741 4.456-2.924 7.03z" fill="#3F3D56" fill-rule="nonzero"/><path d="M121.771 254.809c.378 1.972.96 4.072 2.485 5.358.971.838 2.327 1.362 2.81 2.543.483 1.18-.14 2.665-.942 3.747a13.801 13.801 0 0 1-3.748 3.438c-1.233.763-2.705 1.344-4.12 1.007-1.163-.274-2.082-1.111-2.95-1.92-1.99-1.845-4.026-3.759-5.143-6.232-1.164-2.606-1.222-5.626-2.49-8.192-.74-1.495-1.88-2.804-2.328-4.41a2.74 2.74 0 0 1 0-1.792 2.525 2.525 0 0 1 2.281-1.356 7.977 7.977 0 0 1 2.73.582 60.096 60.096 0 0 0 8.046 2.252c1.088.204 1.746.198 2.328 1.25.537 1.18.889 2.437 1.041 3.725zm6.52 17.379a5.874 5.874 0 0 0-.93 2.067 4.286 4.286 0 0 0-.065 1.745c.937-.18 1.84-.487 2.68-.911 1.938-.99 3.599-2.923 3.215-4.94a4.287 4.287 0 0 0-.39-1.111 1.758 1.758 0 0 0-1.595.46 12.85 12.85 0 0 0-2.915 2.69z" fill="#FBBEBE" fill-rule="nonzero"/><path d="M107.465 224.647a2.804 2.804 0 0 0-.215 1.726c.267 1.15 1.459 1.812 2.534 2.336l10.223 4.947c.709.325 1.4.688 2.069 1.087 1.743 1.059 3.115 2.554 4.603 3.924 1.488 1.369 3.144 2.651 5.114 3.135a8.722 8.722 0 0 0 5.812-.754 12.02 12.02 0 0 0 2.662-1.789 16.274 16.274 0 0 0 1.918-1.973c.5-.523.858-1.162 1.04-1.858.192-1.053-.337-2.088-.953-2.957-.355-.5-.743-.977-1.162-1.427-3.877-4.24-10.23-6.437-15.692-7.3-2.174-.345-4.237-1.15-6.33-1.806-2.092-.656-4.306-1.15-6.48-.846-2.173.305-4.312 1.542-5.143 3.555z" fill="#3F3D56" fill-rule="nonzero"/><path d="M107.465 224.647a2.804 2.804 0 0 0-.215 1.726c.267 1.15 1.459 1.812 2.534 2.336l10.223 4.947c.709.325 1.4.688 2.069 1.087 1.743 1.059 3.115 2.554 4.603 3.924 1.488 1.369 3.144 2.651 5.114 3.135a8.722 8.722 0 0 0 5.812-.754 12.02 12.02 0 0 0 2.662-1.789 16.274 16.274 0 0 0 1.918-1.973c.5-.523.858-1.162 1.04-1.858.192-1.053-.337-2.088-.953-2.957-.355-.5-.743-.977-1.162-1.427-3.877-4.24-10.23-6.437-15.692-7.3-2.174-.345-4.237-1.15-6.33-1.806-2.092-.656-4.306-1.15-6.48-.846-2.173.305-4.312 1.542-5.143 3.555z" fill="#000" fill-rule="nonzero" opacity=".1"/><path d="M133.916 229.657c.76.845 1.387 1.8 1.857 2.83a3.14 3.14 0 0 1 .422 2.264 3.308 3.308 0 0 1-1.03 1.334l-.985.901a3.906 3.906 0 0 1-1.024.756c-.539.2-1.114.285-1.689.25-1.322 0-2.746 0-3.821-.784-1.469-1.045-1.733-3.208-1.064-4.87.67-1.663 2.071-2.92 3.484-4.043 1.148-.918 3.045.523 3.85 1.362zm5.435 4.998a4.928 4.928 0 0 0 .255 2.774c.25.84.493 1.68.737 2.537V240a15.856 15.856 0 0 0 1.87-1.922 4.133 4.133 0 0 0 1.013-1.81c.187-1.024-.328-2.033-.929-2.879a13.328 13.328 0 0 0-1.133-1.389c-.266.342-.498.678-.691.896a4.94 4.94 0 0 0-1.122 1.76z" fill="#FBBEBE" fill-rule="nonzero"/><path d="M112.254 191.777c-1.16 5.072-.667 10.376-.05 15.552.47 3.94.996 8.02-.124 11.815-.415 1.417-1.07 2.856-.818 4.32.476 2.757 3.67 3.817 6.313 4.336a5.988 5.988 0 0 0 2.336.146 5.477 5.477 0 0 0 2.13-1.166c3.758-2.843 6.612-6.791 8.195-11.337 1.003-3.043 1.322-6.278 1.63-9.478.515-5.386 1.036-10.836.28-16.187-.224-1.574-.56-3.13-.7-4.716a35.435 35.435 0 0 1 .437-8.248 137.643 137.643 0 0 1 4.37-19.9c-5.335.737-10.757-.282-15.507-2.914.919.513-.134 8.691-.246 9.84a69.225 69.225 0 0 1-1.776 10.142c-1.563 6.22-5.053 11.617-6.47 17.795z" fill="#3F3D56" fill-rule="nonzero"/><path d="M112.254 191.777c-1.16 5.072-.667 10.376-.05 15.552.47 3.94.996 8.02-.124 11.815-.415 1.417-1.07 2.856-.818 4.32.476 2.757 3.67 3.817 6.313 4.336a5.988 5.988 0 0 0 2.336.146 5.477 5.477 0 0 0 2.13-1.166c3.758-2.843 6.612-6.791 8.195-11.337 1.003-3.043 1.322-6.278 1.63-9.478.515-5.386 1.036-10.836.28-16.187-.224-1.574-.56-3.13-.7-4.716a35.435 35.435 0 0 1 .437-8.248 137.643 137.643 0 0 1 4.37-19.9c-5.335.737-10.757-.282-15.507-2.914.919.513-.134 8.691-.246 9.84a69.225 69.225 0 0 1-1.776 10.142c-1.563 6.22-5.053 11.617-6.47 17.795z" fill="#000" fill-rule="nonzero" opacity=".1"/><path d="M144.597 161.628c2.35 6.809 1.834 14.247.817 21.379-1.016 7.132-2.515 14.265-2.074 21.45.17 2.82.629 5.717-.194 8.413a18.388 18.388 0 0 1-1.804 3.754l-18.75 32.42a5.83 5.83 0 0 1-4.701 2.937c-2.004.14-3.973-.517-5.841-1.252a10.507 10.507 0 0 1-3.402-1.885 4.024 4.024 0 0 1-1.434-3.443c.84-5.629 2.103-11.392 3.038-17.038a29.49 29.49 0 0 1 4.078-10.793c1.451-2.35 3.237-4.459 4.49-6.903 3.595-7.003 2.35-15.545-.424-22.913-2.774-7.367-6.904-14.206-9.108-21.738a24.919 24.919 0 0 1-1.11-6.462 17.23 17.23 0 0 1 4.912-12.256 4.307 4.307 0 0 1 1.698-1.175 4.76 4.76 0 0 1 2.315.041c10.442 2.027 24.045 5.405 27.494 15.464z" fill="#3F3D56" fill-rule="nonzero"/><path d="M311.506 60.964c.34 2.564-.586 5.157-1.904 7.376-4.988 8.312-16.487 11.988-25.378 8.119-3.663-1.598-6.763-4.233-9.799-6.832-1.02-.878-2.08-1.797-2.596-3.038-.909-2.195.187-4.811 1.975-6.38 1.787-1.57 4.102-2.342 6.406-3.038 7.601-2.365 29.485-9.823 31.296 3.793z" fill="#FBBEBE" fill-rule="nonzero"/><path d="M305.642 52.056c6.75 5.577 16.574 10.891 24.221 15.024 2.6 1.41 5.487 2.995 6.424 5.872.503 1.538.337 3.211.171 4.832-.32 3.117-.651 6.282-1.823 9.177-1.377 3.387-3.812 6.182-5.766 9.259-3.43 5.39-5.441 11.742-9.676 16.504 2.857 9.752 5.984 19.493 7 29.615a1.39 1.39 0 0 1-.085.828 1.42 1.42 0 0 1-.446.417l-7.11 4.79a8.057 8.057 0 0 0-2.051 1.762c-1.258 1.68-1.092 4.04-1.87 5.994a7.663 7.663 0 0 1-4.4 4.11 13.212 13.212 0 0 1-6.052.658 13.833 13.833 0 0 1-7.224-2.613c-1.812-1.409-3.104-3.387-4.35-5.337a20.956 20.956 0 0 1-2.286-4.28c-.76-2.16-.805-4.515-.777-6.817.019-4.38.427-8.748 1.218-13.051.331-1.709.742-3.394 1.005-5.114.526-3.464.423-6.999.812-10.48a72.133 72.133 0 0 1 2.543-11.55 60.988 60.988 0 0 0 1.486-7.104c.669-4.215 2-8.284 3.332-12.33l2.286-6.933c.486-1.498.978-2.989 1.555-4.45 1.074-2.731 2.457-5.39 2.823-8.303.406-3.176-2.932-6.946-1.806-9.928.092-.33.589-.764.846-.552z" fill="#3F3D56" fill-rule="nonzero"/><path d="M336.085 71c1.622.72 2.518 2.438 3.098 4.098a22.875 22.875 0 0 1 .913 11.641 20.533 20.533 0 0 0-.468 2.974c.012 1.16.128 2.318.345 3.458.586 4.41 0 8.887.194 13.336.199 5.003 1.306 10.288-.826 14.835-1.417 3.02-4.1 5.268-6.747 7.308a135.553 135.553 0 0 1-32.31 18.35c1.998-2.363 2.033-5.919.703-8.703-1.329-2.783-3.8-4.875-6.442-6.5a41.951 41.951 0 0 0 9.693-3.407c6.137-3.066 11.396-7.555 16.59-11.999a4.982 4.982 0 0 0 1.723-2.144c.527-1.729-.926-3.371-1.933-4.887-3.051-4.61-2.343-10.633-1.066-15.97 1.423-5.85 3.514-11.676 7.326-16.379 2.378-2.94 5.482-5.198 9.207-6.011z" fill="#3F3D56" fill-rule="nonzero"/><path d="M300.67 150.147a7.904 7.904 0 0 1-2.028 2.159c-1.77 1.142-4.199.708-6.174-.103a18.101 18.101 0 0 1-5.013-3.09 7.842 7.842 0 0 0-2.223-1.599c-1.545-.571-3.703-.143-4.57-1.52a.787.787 0 0 1-.141-.49c.053-.497.725-.634 1.244-.663a15.807 15.807 0 0 0 6.822-2.038 6.435 6.435 0 0 1-1.674-1.714 1.31 1.31 0 0 1-.283-.81c.072-.32.252-.605.513-.812 3.877-3.543 9.581-4.464 14.435-2.33.464.182.87.477 1.18.857.218.35.364.738.43 1.142.384 1.6 1.77 3.998 1.268 5.614-.554 1.856-2.648 3.826-3.786 5.397z" fill="#FBBEBE" fill-rule="nonzero"/><path d="M259.027 142.365c7.164-8.467 10.366-19.61 13.337-30.386l2.125-7.66 5.125-18.45c.755-2.722 1.51-5.444 2.01-8.22.858-4.79.939-9.686.887-14.554a16.054 16.054 0 0 0-1.33-5.845c-.501-1.273-.743-2.628-1.152-3.942a19.89 19.89 0 0 0-2.31-5.18 5.393 5.393 0 0 0-1.041-1.272 5.982 5.982 0 0 0-2.356-.978 20.297 20.297 0 0 0-5.637-.878c-1.912.07-3.882.748-5.114 2.233-.939 1.137-1.37 2.61-2.113 3.89-.346.523-.66 1.068-.94 1.631a8.417 8.417 0 0 0-.517 2.675 466.34 466.34 0 0 0-.766 11.149c-.098 1.691-.185 3.394-.121 5.09.052 1.32.19 2.635.328 3.949l1.365 12.869c.317 3.022.092 5.85.357 8.88.645 7.312-.893 14.624-2.47 21.801-.755 3.412-1.532 6.87-3.145 9.958-1.422 2.734-3.553 5.51-2.988 8.556.195 1.06.72 2.05.8 3.123a6.41 6.41 0 0 0 .19 1.974 2.286 2.286 0 0 0 2.459 1.178 5.663 5.663 0 0 0 3.017-1.59z" fill="#3F3D56" fill-rule="nonzero"/><path d="M260.032 108.217c.213 1.68.05 3.382.129 5.072a35.504 35.504 0 0 0 1.123 6.436c.561 2.34 1.28 4.961 3.263 6.26.497.27.972.58 1.42.93.453.372.636.997.46 1.568l-1.543-.269a1.67 1.67 0 0 1 .582 1.628 1.604 1.604 0 0 1-1.154 1.253 1.53 1.53 0 0 1-1.585-.54 3.96 3.96 0 0 1-.14 1.567c-.16.51-.61.86-1.123.878a1.77 1.77 0 0 1-.803-.351l-4.033-2.604a7.589 7.589 0 0 1-2.903-2.925l-1.763-2.767a6.701 6.701 0 0 1-.916-1.755c-.657-2.34 1.18-4.938.225-7.144a9.628 9.628 0 0 0-1.005-1.533c-2.039-2.925-1.91-6.903-1.685-10.53.073-1.224.286-2.675 1.348-3.207.842-.427 1.853-.047 2.634.486.78.532 1.47 1.234 2.358 1.55.562.199 1.18.222 1.741.433.786.287 1.516 1.404 2.044 2.065a7.016 7.016 0 0 1 1.326 3.499z" fill="#FBBEBE" fill-rule="nonzero"/><path d="M207.533 55.804a10.194 10.194 0 0 1-2.004 3.014 3.862 3.862 0 0 1-3.302 1.146c-1.263-.252-2.191-1.3-3.028-2.292-2.186-2.584-4.401-5.203-5.87-8.263-2.243-4.66-2.602-9.977-2.926-15.14-.08-1.33-.148-2.74.484-3.903.803-1.484 2.505-2.183 4.076-2.774l8.682-3.266a3.345 3.345 0 0 1 1.708-.315c1.36.229 1.861 1.88 2.231 3.215a20.111 20.111 0 0 0 3.246 6.647c1.947 2.613 6.313 6.132 3.82 9.392-3.012 3.909-4.925 8.126-7.117 12.539z" fill="#BE6F72" fill-rule="nonzero"/><path d="M219.676 39.477c3.91 3.656 5.233 9.35 5.046 14.677-.187 5.327-1.674 10.52-2.523 15.783-.849 5.263-1.019 10.882 1.282 15.72.79 1.659 1.867 3.196 2.418 4.948a15.44 15.44 0 0 1 .462 5.316 15.105 15.105 0 0 1-1.065 5.495c-1.247 2.748-3.811 4.658-6.264 6.405-5.005 3.598-10.11 7.254-15.987 9.134-3.98 1.275-8.196 1.694-12.364 1.921-2.822.224-5.66.144-8.465-.238a23.028 23.028 0 0 1-12.849-6.765 7.163 7.163 0 0 1-1.458-1.997 8.255 8.255 0 0 1-.509-3.028c-.14-3.823-.117-7.646.07-11.469a50.16 50.16 0 0 1 1.505-10.8c1.118-4.075 3.056-7.894 4.525-11.865 5.116-13.803 4.601-29.51 11.708-42.4 1.534-2.783 4.098-5.712 7.259-5.27.608.037 1.18.299 1.604.734.363.53.566 1.152.585 1.793.755 6.265 1.827 12.692 4.795 18.345 1.17 2.218 2.926 5.595 5.625 6.189 2.699.594 4.291-1.968 5.737-3.784a46.592 46.592 0 0 1 8.863-8.844z" fill="#E3E8F4" fill-rule="nonzero"/><path d="M238.75 31.613a11.96 11.96 0 0 1 2.263 1.523c1.792 1.625 2.45 4.115 2.438 6.473-.012 2.358-.598 4.682-.956 7.017-.962 6.295-.144 12.74.239 19.116a8.876 8.876 0 0 1-.191 3.079c-.293.961-.896 1.808-1.285 2.741-1.14 2.759-.28 5.907-.95 8.803-.717 3.085-3.172 5.89-2.712 9.02.185 1.225.8 2.352 1.064 3.565.262 1.214.035 2.679-1.058 3.331-1.093.653-2.682.178-3.985.538-.529.187-1.044.41-1.54.664-2.014.87-4.416.573-6.4-.377a19.282 19.282 0 0 1-5.167-3.927c-2.276-2.232-4.48-4.676-5.478-7.646-1.457-4.304-.161-8.991 1.422-13.261s3.471-8.585 3.19-13.124c-.155-2.54-.992-4.985-1.493-7.48a45.874 45.874 0 0 1-.663-10.474c.077-2.564.256-5.208 1.41-7.526 1.67-3.142 4.892-5.255 8.554-5.609 4.182-.435 7.766 1.608 11.297 3.554z" fill="#3F3D56" fill-rule="nonzero"/><path d="M228.491 86.622A17.23 17.23 0 0 0 229.48 92c1.041-2.337 1.163-4.96 1.303-7.503.582-8.756 2.553-17.015 4.653-25.497-1.53 1.145-2.39 4.009-3.123 5.727a49.813 49.813 0 0 0-3.822 21.895z" fill="#000" fill-rule="nonzero" opacity=".1"/><path d="M189.56 25.354c-2.836.736-5.295 2.395-8.042 3.479-2.854 1.16-5.924 1.652-8.919 2.365-6.93 1.659-13.89 4.738-18.072 10.437-3.083 4.192-4.36 9.37-6.471 14.119-1.765 3.983-4.118 7.717-5.418 11.863-1.7 5.41-1.506 11.208-1.089 16.855.341 4.638.86 9.33 2.995 13.44 1.117 2.157 2.659 4.088 3.776 6.245 1.342 2.591 2.048 5.45 3.165 8.117 1.118 2.667 2.76 5.334 5.354 6.726l4.294-2.476c6.407-3.693 12.813-7.392 19.02-11.405 5.412-3.479 10.871-7.474 13.754-13.19 2.553-5.05 2.806-10.953 2.147-16.56-.659-5.607-2.165-11.092-2.941-16.681-.99-7.035-.84-14.18.441-21.17.588-3.154 2.153-6.412 2.477-9.555.359-3.357-4.018-3.247-6.471-2.61z" fill="#3F3D56" fill-rule="nonzero"/><path d="M161.708 118.356c3.196 3.119 7.793 4.027 11.79 5.896a25.36 25.36 0 0 1 7.872 5.896c1.23 1.391 2.419 3.284 1.801 5.052-.52 1.522-2.115 2.3-3.579 2.866-1.818.707-3.848 1.332-5.66.619-1.064-.419-1.921-1.256-2.9-1.851-2.395-1.468-5.413-1.474-7.872-2.83-3.465-1.91-5.191-6.115-8.45-8.385-1.784-1.238-4.248-2.252-4.431-4.463-.009-.8.155-1.59.48-2.317.657-1.804 1.778-8 4.282-7.836 2.727.183 4.637 5.86 6.667 7.353zm-17.346-28.164c1.053 3.772 3.498 6.989 6.034 9.982 1.823 2.15 3.825 4.489 3.888 7.304.058 2.66-1.725 5.108-4.026 6.467-2.3 1.358-5.01 1.794-7.673 1.966-2.13.205-4.28.055-6.361-.441-5.258-1.422-8.904-5.991-13.04-9.523-2.456-2.093-5.217-3.916-7.098-6.536-1.88-2.62-2.674-6.381-.822-9.024a13.082 13.082 0 0 1 2.3-2.293 38.361 38.361 0 0 0 7.932-9.489c.852-1.439 1.668-2.998 3.1-3.864 2.054-1.244 4.688-.677 7.012-.069 2.525.66 9.64 1.95 10.135 5.16.201 1.319-1.438 3.371-1.685 4.787a12.648 12.648 0 0 0 .304 5.573z" fill="#FBBEBE" fill-rule="nonzero"/><path d="M157.906 98.013a24.969 24.969 0 0 1 1.868 4.376c1.769 6.226-1.392 12.64-2.9 18.936-1.926 8.064-1.108 16.498-1.201 24.798-.04 3.794-.44 7.97-3.138 10.601-.696.67-1.531 1.233-2.001 2.08a8.68 8.68 0 0 0-.644 1.943 9.978 9.978 0 0 1-5.742 6.498 9.785 9.785 0 0 1-8.596-.519c-2.198-1.239-4.106-3.389-6.623-3.453-.792.039-1.58.127-2.361.264-2.506.253-4.96-.687-7.308-1.61a4.749 4.749 0 0 1-1.543-.833c-.424-.394-.696-.922-1.085-1.345-1.432-1.563-3.88-1.292-5.945-1.727-3.145-.713-5.6-3.2-6.305-6.384-.417-2.02-.063-4.112.285-6.15l1.554-9.08a84.594 84.594 0 0 0 1.351-10.085 42.807 42.807 0 0 0-.962-11.4c-.685-3.054-1.706-6.044-2.077-9.157a22.584 22.584 0 0 1 4.06-15.746c.806-1.122 1.862-2.244 3.23-2.35 1.109-.1 2.147.5 3.11 1.075a1201.5 1201.5 0 0 0 25.265 14.725c2.32 1.321 4.692 2.649 7.28 3.3.777.2 1.89.118 2-.68a1.5 1.5 0 0 0-.226-.864c-1.45-2.825-3.55-5.25-5.22-7.94-1.67-2.691-2.958-5.874-2.465-8.999.673-4.323 4.64-7.183 7.882-3.794 3.637 3.847 6.073 8.792 8.457 13.52z" fill="#F86D70" fill-rule="nonzero"/><path d="M132.704 153.156c6.793.418 13.736.864 20.025 3.372 2.02.802 4.163 1.839 6.288 1.343a8.519 8.519 0 0 0 2.896-1.494 65.644 65.644 0 0 0 7.4-6.074c-.231-1.22-1.951-1.387-3.237-1.376a19.964 19.964 0 0 1-9.01-2.084 15.465 15.465 0 0 0-2.895-1.299c-2.751-.73-5.554.663-8.316 1.343-4.088 1.003-8.397.418-12.572-.173l-11.269-1.599c-1.048-.145-2.23-.262-3.063.362a3.566 3.566 0 0 0-1.095 1.89c-1.378 4.457-.718 4.83 3.868 5.11l10.98.68z" fill="#FBBEBE" fill-rule="nonzero"/><ellipse fill="#000" fill-rule="nonzero" opacity=".1" cx="286.531" cy="52" rx="18.033" ry="18"/><ellipse fill="#FBBEBE" fill-rule="nonzero" cx="286.531" cy="51" rx="18.033" ry="18"/><path d="M301.69 28.175c1.51.904 3.092 1.877 3.919 3.4a16.646 16.646 0 0 1 1.01 3.206c1.032 3.435 3.783 6.417 3.948 9.995.183 3.921-2.85 7.327-6.286 9.382a4.76 4.76 0 0 1-2.704.882c-.998-.063-1.86-.67-2.774-1.06-3.879-1.67-8.217.447-12.326 1.42-4.27 1-8.75.745-12.869-.732-2.213-.802-4.362-2.004-5.75-3.864-1.386-1.86-1.882-4.465-.702-6.463.59-1.02 1.57-1.94 1.506-3.103-.036-.698-.46-1.328-.59-2.015-.19-1.093.4-2.158 1.003-3.091a45.212 45.212 0 0 1 10.212-11.203c1.18-.939 2.544-1.855 4.091-1.923 3.105-.132 5.773 2.112 8.967 2.123 3.624.012 6.227 1.18 9.344 3.046z" fill="#3F3D56" fill-rule="nonzero"/><ellipse fill="#000" fill-rule="nonzero" opacity=".1" cx="218.905" cy="29.5" rx="19.536" ry="19.5"/><ellipse fill="#BE6F72" fill-rule="nonzero" cx="218.905" cy="29.5" rx="19.536" ry="19.5"/><path d="M229.013 38.841c2.716 1.498 6.068 1.343 9.099.66a12.346 12.346 0 0 0 4.78-1.985 5.651 5.651 0 0 0 2.407-4.36c0-1.922-1.283-3.654-1.44-5.576-.192-2.421 1.41-4.659 1.58-7.091.169-2.433-1.05-4.624-2.239-6.712-2.046-3.586-4.173-7.218-7.286-9.96-3.113-2.742-7.426-4.492-11.506-3.568-2.005.453-3.865 1.514-5.91 1.72-1.82.167-3.615-.372-5.428-.601-1.813-.23-3.847-.087-5.147 1.147-.71.688-1.166 1.658-2 2.163-.564.256-1.149.47-1.748.637-2.104.831-3.066 3.166-3.812 5.266l-5.001 14.107c1.673 1.148 3.69 1.67 5.52 2.553 1.83.884 3.608 2.295 3.981 4.269.286 1.497-.256 3.218.63 4.469.81 1.147 2.46 1.342 3.858 1.147 1.4-.195 2.804-.671 4.203-.459 3.498.522 4.797 2.633 8.032 0 3.236-2.633 4.419.51 7.427 2.174z" fill="#3F3D56" fill-rule="nonzero"/><ellipse fill="#000" fill-rule="nonzero" opacity=".1" cx="137.755" cy="71.5" rx="17.532" ry="17.5"/><ellipse fill="#FBBEBE" fill-rule="nonzero" cx="137.755" cy="70.5" rx="17.532" ry="17.5"/><path d="M150.912 53.555a46.19 46.19 0 0 0-13.864-7.307c-3.202-1.042-6.684-1.756-9.932-.796-4.405 1.259-10.3 3.138-13.028 6.832-1.344 1.815-2.705 3.683-3.354 5.855-1.296 4.367.55 9.021.427 13.576-.146 5.31-2.956 10.158-6.023 14.49-3.068 4.332-3.687 10.538-5.498 15.538-.62 1.715-.818 4.098.777 4.959 1.402.778 3.096-.194 4.393-1.13l7.8-5.65a5.938 5.938 0 0 1 2.056-1.1c1.607-.375 3.178.632 4.522 1.586L135.546 112c.655-1.34.683-2.9.076-4.262 1.537.474 2.653 1.756 4.002 2.67 1.35.913 3.4 1.211 4.382-.065.982-1.276.24-2.991-.853-4.022-1.092-1.03-2.53-1.645-3.599-2.705-2.12-2.113-2.337-5.45-3.675-8.12-.958-1.873-2.506-3.442-3.184-5.439-1.104-3.26.34-6.773 1.753-9.911 1.689-3.724 3.599-7.699 7.192-9.643 1.21-.655 2.547-1.042 3.786-1.639 3.084-1.481 6.934-4.976 8.442-8.108 1.32-2.781-.713-5.469-2.956-7.201z" fill="#3F3D56" fill-rule="nonzero"/><path d="M125.001 111.57c1.655 1.063 3.523 1.743 5.149 2.853 1.625 1.11 3.05 2.796 3.095 4.772.047 1.889-1.153 3.545-2.306 5.045l-14.043 18.58 7.16 1.913c-1.153 1.604-1.447 3.65-2.047 5.533-.6 1.883-1.73 3.842-3.643 4.336-1.73.447-3.54-.471-5.327-.367-1.32.082-2.566.71-3.886.762-1.7.064-3.28-.837-4.699-1.79-3.159-2.133-6.295-5.19-6.272-9.026a13.75 13.75 0 0 1 .767-3.801c2.07-6.806 4.214-13.775 8.503-19.436 2.306-3.022 5.125-5.573 7.945-8.107a7.407 7.407 0 0 1 2.225-1.552c1.845-.698 3.857.163 5.765.72 1.908.558 4.312.64 5.414-1.005" fill="#000" fill-rule="nonzero" opacity=".1"/><path d="M123.993 110.61c1.655 1.057 3.523 1.743 5.149 2.853 1.625 1.11 3.05 2.794 3.101 4.764.052 1.969-1.153 3.55-2.306 5.048l-14.05 18.556 7.161 1.912c-1.153 1.603-1.447 3.642-2.047 5.53-.6 1.889-1.73 3.84-3.643 4.335-1.73.447-3.54-.471-5.327-.366-1.32.075-2.565.708-3.886.755-1.7.064-3.28-.837-4.698-1.79-3.16-2.126-6.296-5.188-6.267-9.016.07-1.297.326-2.577.761-3.8 2.07-6.809 4.214-13.775 8.504-19.427 2.306-3.027 5.13-5.578 7.944-8.134a7.62 7.62 0 0 1 2.225-1.551c1.845-.697 3.857.163 5.765.726 1.908.564 4.313.64 5.414-1.005" fill="#F86D70" fill-rule="nonzero"/><path d="M269 47.346c1.362 1.95 3.48 3.216 5.649 4.05a20.96 20.96 0 0 0 12.644.768c4.06-1.02 8.3-3.24 12.11-1.488.9.414 1.741 1.044 2.721 1.116a4.54 4.54 0 0 0 2.663-.93c2.349-1.5 4.506-3.684 5.539-6.258 0 .132 0 .264.035.402.18 4.11-2.802 7.68-6.178 9.834-.77.587-1.7.91-2.656.924-.98-.066-1.827-.702-2.726-1.11-3.811-1.752-8.074.468-12.111 1.488a21.055 21.055 0 0 1-12.645-.768c-2.175-.84-4.286-2.1-5.649-4.05-1.363-1.95-1.85-4.68-.69-6.774l.087-.15a7.473 7.473 0 0 0 1.206 2.946zm.77-10.026c.047.924-.492 1.698-1.009 2.484a3.892 3.892 0 0 1-.168-.6c-.174-1.074.325-2.118.876-3.06.158.374.26.77.302 1.176zM201.56 8.495l-4.861 14.196c1.626 1.155 3.586 1.687 5.365 2.57 1.78.884 3.507 2.31 3.87 4.297.277 1.508-.25 3.24.612 4.505.787 1.155 2.39 1.346 3.75 1.155 1.36-.19 2.725-.676 4.085-.462 3.4.526 4.663 2.651 7.807.029s4.283.49 7.207 2.166c2.64 1.513 5.897 1.357 8.844.664a11.778 11.778 0 0 0 4.645-1.993c.198-.164.387-.34.567-.525a6.412 6.412 0 0 1-1.904 2.403 11.779 11.779 0 0 1-4.646 1.998c-2.946.687-6.232.843-8.843-.664-2.924-1.675-4.125-4.73-7.207-2.166-3.082 2.564-4.42.497-7.807 0-1.36-.214-2.72.266-4.085.462-1.365.196-2.963 0-3.75-1.155-.862-1.26-.335-2.992-.612-4.5-.363-1.986-2.091-3.413-3.87-4.296-1.779-.884-3.74-1.421-5.365-2.57l4.883-14.237c.567-1.565 1.19-3.257 2.323-4.372-.392.807-.73 1.64-1.008 2.495zm-63.806 99.531c1.305.581 2.952.668 3.78-.418.926-1.162.241-2.963-.863-3.991s-2.557-1.633-3.638-2.684c-2.144-2.092-2.362-5.403-3.715-8.052-.968-1.865-2.533-3.422-3.218-5.403-1.116-3.23.342-6.722 1.772-9.83 1.706-3.695 3.637-7.64 7.27-9.568 1.222-.65 2.574-1.034 3.826-1.627 3.119-1.47 7.01-4.944 8.534-8.052 1.282-2.62-.526-5.164-2.675-6.89a47.568 47.568 0 0 1 3.059 2.12c2.274 1.744 4.323 4.387 2.953 7.135-1.524 3.108-5.416 6.576-8.534 8.046-1.252.581-2.604.976-3.827 1.627-3.632 1.928-5.563 5.873-7.27 9.568-1.435 3.114-2.893 6.6-1.771 9.835.685 1.982 2.25 3.538 3.218 5.398 1.37 2.649 1.571 5.96 3.715 8.057 1.08 1.052 2.533 1.656 3.638 2.684 1.104 1.029 1.771 2.806.862 3.991-.91 1.186-3.071.942-4.43.064-.915-.61-1.747-1.411-2.686-2.01zm-35.818-5.153l7.884-5.6a6.056 6.056 0 0 1 2.079-1.098c1.624-.366 3.212.633 4.57 1.58l16.536 11.503a4.929 4.929 0 0 0 .077-4.235c1.518.465 2.622 1.708 3.94 2.58a4.464 4.464 0 0 0-.591-.216 4.917 4.917 0 0 1-.077 4.23l-16.536-11.503c-1.358-.947-2.953-1.946-4.57-1.575a6.039 6.039 0 0 0-2.08 1.093l-7.884 5.606c-1.31.93-3.023 1.894-4.44 1.121a2.54 2.54 0 0 1-1.235-2.243 8.602 8.602 0 0 0 2.327-1.243z" opacity=".1" fill="#000" fill-rule="nonzero"/><path d="M296.55 142.299s-33.425 2.49-40.075-1.915L287.053 136l9.496 6.299z" fill="#E3E8F4" fill-rule="nonzero"/><path d="M296.55 142.299s-33.425 2.49-40.075-1.915L287.053 136l9.496 6.299z" fill="#000" fill-rule="nonzero" opacity=".1"/><path d="M296.55 141l-9.392-5.859s-28.016 7.935-35.692 4.66L259.277 129l27.758 5.334L296.55 141z" fill="#E3E8F4" fill-rule="nonzero"/><path d="M253.902 62.614a15.99 15.99 0 0 0-2.479 4.23c-.27.807-.406 1.649-.636 2.467a18.76 18.76 0 0 1-2.944 5.673c-2.904 4.103-6.531 8.064-7.261 12.993-.354 2.432.035 4.905.53 7.315a19.33 19.33 0 0 0 1.39 4.619c.747 1.568 1.86 2.947 2.714 4.464a31.213 31.213 0 0 1 1.967 4.625c1.007-.979 1.602-2.29 2.409-3.434.806-1.145 2.008-2.175 3.427-2.192 1.637 0 2.986 1.316 4.605 1.522.253.05.515.026.754-.069.589-.269.636-1.041.589-1.66-.465-4.321-3.01-8.585-1.808-12.775 1.107-3.875 5.064-6.296 7.143-9.77 1.508-2.525 1.955-5.501 2.356-8.397.5-3.463 1.007-6.955.783-10.44-.112-1.758-1.549-12.862-4.175-11.7-.913.4-1.708 2.1-2.28 2.862l-2.355 3.245-4.729 6.422z" fill="#3F3D56" fill-rule="nonzero"/><path fill="#E3E8F4" fill-rule="nonzero" d="M184.341 135.794L165.94 151l-23.676-4.296L158.206 134z"/><path fill="#000" fill-rule="nonzero" opacity=".1" d="M185.343 134.794L166.941 150l-23.676-4.296L159.208 133z"/><path fill="#E3E8F4" fill-rule="nonzero" d="M185.343 134.8l-18.4 15.2-23.678-4.29L159.211 133z"/><path fill="#000" fill-rule="nonzero" opacity=".1" d="M185.343 132.794L166.938 148l-23.673-4.296L159.211 131z"/><path fill="#E3E8F4" fill-rule="nonzero" d="M185.343 130.794L166.941 146l-23.676-4.296L159.208 129z"/><path d="M434.12 340.297a3.444 3.444 0 0 1 2.988.092c.918.483 1.518 1.353 1.6 2.324l1.106 13.195-6.56 1.092-3.458-9.54 4.324-7.163z" fill="#3F3D56" fill-rule="nonzero"/><path d="M215.972 249.712l-95.143 48.2a6.608 6.608 0 0 0-3.612 5.914 6.608 6.608 0 0 0 3.659 5.886l204.914 102.66a24.91 24.91 0 0 0 23.374-.585l86.309-48.586a6.607 6.607 0 0 0 3.336-5.962 6.609 6.609 0 0 0-3.728-5.726L221.82 249.648a6.63 6.63 0 0 0-5.848.064z" fill="#3F3D56" fill-rule="nonzero"/><path d="M120.418 289l-2.967 2.228-.233 10.671a4.44 4.44 0 0 0 2.378 4.044l207.513 107.71a3.057 3.057 0 0 0 3.023-.11 3.132 3.132 0 0 0 1.482-2.667v-15.5L120.418 289z" fill="#3F3D56" fill-rule="nonzero"/><path d="M215.978 236.715l-95.14 48.196a6.608 6.608 0 0 0-3.62 5.909 6.609 6.609 0 0 0 3.65 5.89l204.925 102.664a24.926 24.926 0 0 0 23.373-.585l86.307-48.593a6.607 6.607 0 0 0 3.336-5.962 6.61 6.61 0 0 0-3.728-5.726L221.825 236.645a6.63 6.63 0 0 0-5.847.07z" fill="#E3E8F4" fill-rule="nonzero"/><path fill="#3F3D56" fill-rule="nonzero" d="M235.8 247l-104.557 53.11L310.949 390l107.827-54.752z"/><ellipse fill="#3F3D56" fill-rule="nonzero" cx="376.698" cy="365.5" rx="11.02" ry="6.5"/><ellipse fill="#3F3D56" fill-rule="nonzero" cx="175.325" cy="264" rx="1.002" ry="1"/><ellipse fill="#3F3D56" fill-rule="nonzero" cx="172.319" cy="271" rx="1.002" ry="1"/><path d="M177.328 270l12.023-6" stroke="#3F3D56"/><rect fill="#4285F4" fill-rule="nonzero" transform="rotate(-30 273.006 314.5)" x="242.449" y="304" width="61.113" height="21" rx="10.5"/><rect fill="#4285F4" fill-rule="nonzero" transform="rotate(-30 305.065 329.5)" x="274.508" y="319" width="61.113" height="21" rx="10.5"/><rect fill="#4285F4" fill-rule="nonzero" transform="rotate(-30 244.954 297.5)" x="214.397" y="287" width="61.113" height="21" rx="10.5"/></g></svg>