<svg width="15" height="15" xmlns="http://www.w3.org/2000/svg"><defs><linearGradient x1="50%" y1="96.464%" x2="50%" y2="0%" id="a"><stop stop-color="#2948FF" offset="0%"/><stop stop-color="#396AFC" offset="100%"/></linearGradient></defs><g fill="none" fill-rule="evenodd"><path fill="#FFF" d="M-165-479h1440v5659H-165z"/><path d="M14.046 7.156c0 .662-.53 1.192-1.192 1.192h-4.77v4.506c0 .662-.53 1.192-1.193 1.192s-1.193-.53-1.193-1.192V8.348H1.193C.53 8.348 0 7.818 0 7.156c0-.663.53-1.193 1.193-1.193h4.505v-4.77C5.698.53 6.228 0 6.891 0c.662 0 1.192.53 1.192 1.193v4.77h4.77c.663 0 1.193.53 1.193 1.193z" fill="url(#a)" fill-rule="nonzero"/></g></svg>