<svg width="25" height="35" xmlns="http://www.w3.org/2000/svg"><g fill="none" fill-rule="evenodd"><path fill="#FFF" d="M-550-539H890v5659H-550z"/><path d="M-5 0h35v35H-5z"/><g fill="#006DF0" fill-rule="nonzero"><path d="M10.455 10.002l-.339-4.063a.513.513 0 0 0-.51-.47h-.513v-.513a1.54 1.54 0 0 0-1.538-1.538 1.54 1.54 0 0 0-1.539 1.538v.513h-.512c-.264 0-.484.2-.51.461l-.41 4.102a.513.513 0 0 0 .51.564h4.854a.513.513 0 0 0 .507-.594zM7.042 4.956a.513.513 0 0 1 1.025 0v.513H7.042v-.513zM5.66 9.57l.308-3.076h3.165L9.39 9.57H5.66z"/><path d="M24.06 4.563l-.006-.037-.002-.013a.478.478 0 0 0-.01-.043l-.002-.005a.524.524 0 0 0-.015-.042l-.002-.005a.486.486 0 0 0-.018-.039L24 4.372a.507.507 0 0 0-.02-.034l-.006-.009a.532.532 0 0 0-.022-.03l-.007-.01a.512.512 0 0 0-.034-.037L19.81.15a.514.514 0 0 0-.038-.034l-.01-.007a.497.497 0 0 0-.03-.022c-.003-.003-.006-.004-.01-.006a.524.524 0 0 0-.033-.02l-.008-.004a.513.513 0 0 0-.037-.018l-.006-.002a.509.509 0 0 0-.041-.015L19.59.021a.517.517 0 0 0-.042-.01c-.004-.002-.009-.002-.013-.003A.494.494 0 0 0 19.448 0H.992a.513.513 0 0 0-.513.513v30.999c0 .283.23.513.513.513h11.621a.513.513 0 0 0 0-1.026H1.505V1.025h17.43v3.59c0 .282.23.512.513.512h3.589v25.872h-2.905a.513.513 0 0 0 0 1.026h3.417c.283 0 .513-.23.513-.513V4.614c0-.017 0-.034-.003-.051zm-4.1-.462v-2.35l2.352 2.35H19.96z"/><path d="M19.448 14.594H5.093a.513.513 0 0 0 0 1.026h14.355a.513.513 0 0 0 0-1.026zm0 2.736H5.093a.513.513 0 0 0 0 1.025h14.355a.513.513 0 0 0 0-1.026zm0 2.734H5.093a.513.513 0 0 0 0 1.025h14.355a.513.513 0 0 0 0-1.025zm-8.203 2.734H5.093a.513.513 0 0 0 0 1.025h6.152a.513.513 0 0 0 0-1.025zm8.717 4.956a3.593 3.593 0 0 0-3.59-3.589 3.593 3.593 0 0 0-3.588 3.589c0 1.14.535 2.158 1.367 2.815v3.935l.003.03.002.023.005.028.005.023.007.025.008.024.008.023.01.024.011.022.014.024.012.02.018.024.01.014.002.002a.504.504 0 0 0 .036.04l.012.011.029.026.018.013a.532.532 0 0 0 .073.045l.02.01.032.013.017.006a.478.478 0 0 0 .037.01l.015.004a.5.5 0 0 0 .043.007l.011.002a.523.523 0 0 0 .051.003h.006c.025 0 .05-.003.073-.006l.016-.003a.502.502 0 0 0 .07-.018l.013-.004a.514.514 0 0 0 .071-.032l.003-.001a.504.504 0 0 0 .068-.045l.004-.003 1.389-1.111 1.389 1.11c0 .002.003.002.004.004a.516.516 0 0 0 .068.045l.002.001a.504.504 0 0 0 .071.032l.013.004a.512.512 0 0 0 .071.019l.015.002a.51.51 0 0 0 .074.006h.005a.525.525 0 0 0 .051-.003l.012-.002a.501.501 0 0 0 .042-.007.487.487 0 0 0 .052-.014l.018-.006a.58.58 0 0 0 .032-.013l.02-.01a.525.525 0 0 0 .073-.045l.018-.013a.514.514 0 0 0 .03-.026l.01-.01a.505.505 0 0 0 .037-.041l.002-.002.01-.014.018-.025.011-.019.015-.024.01-.022.01-.024.01-.023a.462.462 0 0 0 .007-.024l.007-.025.005-.023.004-.029.003-.021.002-.032V30.57a3.584 3.584 0 0 0 1.368-2.815zM16.7 32.726l-.007-.006-.011-.008a.512.512 0 0 0-.028-.02l-.017-.01-.026-.016a.437.437 0 0 0-.022-.01l-.023-.01-.025-.01-.021-.007a.524.524 0 0 0-.027-.007l-.021-.005a.505.505 0 0 0-.05-.007l-.024-.001-.026-.001h-.022l-.028.002-.019.003a.561.561 0 0 0-.03.005c-.006 0-.012.002-.018.004a.523.523 0 0 0-.03.007l-.019.007a.511.511 0 0 0-.027.01l-.022.01-.023.01-.025.015-.018.01a.544.544 0 0 0-.027.02l-.012.009-.007.006-.868.695v-2.284a3.572 3.572 0 0 0 2.392 0v2.284l-.869-.695zm-.327-2.408a2.566 2.566 0 0 1-2.564-2.564 2.566 2.566 0 0 1 2.564-2.563 2.566 2.566 0 0 1 2.563 2.563 2.566 2.566 0 0 1-2.563 2.564z"/><path d="M16.373 26.216a1.54 1.54 0 0 0-1.538 1.538c0 .848.69 1.538 1.538 1.538a1.54 1.54 0 0 0 1.538-1.538 1.54 1.54 0 0 0-1.538-1.538zm0 2.05a.513.513 0 1 1 0-1.026.513.513 0 0 1 0 1.027z"/></g></g></svg>