<svg width="35" height="35" xmlns="http://www.w3.org/2000/svg"><g fill="none" fill-rule="evenodd"><path fill="#FFF" d="M-355-539h1440v5659H-355z"/><g fill="#006DF0" fill-rule="nonzero"><path d="M17.5 0C7.85 0 0 7.85 0 17.5S7.85 35 17.5 35 35 27.15 35 17.5 27.15 0 17.5 0zm0 33.833c-9.006 0-16.333-7.327-16.333-16.333 0-9.006 7.327-16.333 16.333-16.333 9.006 0 16.333 7.327 16.333 16.333 0 9.006-7.327 16.333-16.333 16.333z"/><path d="M18.121 15.208V9.28a.584.584 0 1 0-1.169 0v5.928a2.335 2.335 0 0 0-1.67 1.67h-4.176a.584.584 0 1 0 0 1.17h4.175a2.336 2.336 0 0 0 2.256 1.754 2.34 2.34 0 0 0 2.338-2.339 2.336 2.336 0 0 0-1.754-2.255zm-.584 3.425a1.17 1.17 0 0 1 0-2.339 1.17 1.17 0 0 1 0 2.339zm0-12.861a.584.584 0 0 0 .584-.584v-.585a.584.584 0 1 0-1.169 0v.585c0 .323.262.584.585.584zm0 23.309a.584.584 0 0 0-.585.585v.585a.584.584 0 1 0 1.17 0v-.585a.584.584 0 0 0-.585-.585zm12.787-12.202h-.585a.584.584 0 1 0 0 1.169h.585a.584.584 0 1 0 0-1.17zm-25.063 0h-.585a.584.584 0 1 0 0 1.169h.585a.584.584 0 1 0 0-1.17zM26.168 7.92l-.42.42a.593.593 0 1 0 .84.839l.42-.42a.593.593 0 1 0-.84-.84zM8.412 25.675l-.42.42a.593.593 0 1 0 .84.84l.42-.42a.593.593 0 1 0-.84-.84zm18.176 0a.593.593 0 1 0-.84.84l.42.42a.592.592 0 0 0 .84 0 .593.593 0 0 0 0-.84l-.42-.42zM8.832 7.92a.593.593 0 1 0-.84.839l.42.42a.592.592 0 0 0 .84 0 .593.593 0 0 0 0-.84l-.42-.42z"/></g></g></svg>