<svg width="17" height="17" xmlns="http://www.w3.org/2000/svg"><g fill="none" fill-rule="evenodd"><path fill="#FFF" d="M-389-4965h1440V907H-389z"/><circle fill="#4D76A1" fill-rule="nonzero" cx="8.5" cy="8.5" r="8.5"/><path d="M8.382 11.975h.657s.199-.021.3-.125c.094-.096.09-.277.09-.277s-.012-.843.397-.967c.404-.123.922.815 1.472 1.175.415.273.73.213.73.213l1.47-.02s.768-.044.404-.622c-.03-.047-.212-.427-1.092-1.208-.921-.818-.798-.686.312-2.1.675-.86.945-1.386.861-1.612-.08-.214-.577-.157-.577-.157l-1.654.01s-.123-.016-.214.035c-.089.051-.146.17-.146.17s-.262.667-.611 1.233c-.736 1.196-1.03 1.26-1.151 1.185-.28-.173-.21-.695-.21-1.066 0-1.159.183-1.642-.358-1.767-.18-.042-.312-.07-.772-.074-.59-.005-1.09.002-1.373.135-.188.088-.333.284-.245.295.11.014.357.064.488.235.17.22.164.716.164.716s.097 1.364-.227 1.533c-.223.116-.53-.12-1.186-1.206-.336-.555-.59-1.17-.59-1.17s-.05-.114-.137-.176a.712.712 0 0 0-.254-.098l-1.572.01s-.235.006-.322.104c-.077.088-.006.268-.006.268s1.23 2.753 2.624 4.14c1.277 1.271 2.728 1.188 2.728 1.188z" fill="#FFF"/></g></svg>